<svg width="36" height="36" viewBox="0 0 36 36" fill="none" xmlns="http://www.w3.org/2000/svg">
<g clip-path="url(#clip0_1010_2)">
<path d="M21.5086 33.1523C21.1008 35.093 19.1953 36.3305 17.2617 35.9227C15.8695 35.6273 14.7867 34.5445 14.4914 33.1523H21.5086Z" fill="#04285B"/>
<path d="M18 0C15.7922 0 14.0063 1.77891 13.9922 3.98672C14.7516 3.73359 15.5391 3.55078 16.3336 3.44531C16.643 2.52422 17.6414 2.03203 18.5625 2.34141C19.0828 2.51719 19.4906 2.925 19.6664 3.44531C20.4609 3.55078 21.2484 3.73359 22.0078 3.98672C21.9937 1.77891 20.2078 0 18 0Z" fill="#04285B"/>
<path d="M29.5945 26.4445V15.9891C29.5945 9.58359 24.4055 4.39453 18 4.39453C11.5945 4.39453 6.40547 9.58359 6.40547 15.9891V26.4516C5.09062 26.5641 4.07812 27.668 4.07812 28.9969V29.5453C4.07812 30.9586 5.22422 32.0977 6.63047 32.1047H29.3625C30.7758 32.1047 31.9148 30.9586 31.9219 29.5523V29.0039C31.9219 27.668 30.9094 26.5641 29.5945 26.4445Z" fill="#04285B"/>
</g>
<defs>
<clipPath id="clip0_1010_2">
<rect width="36" height="36" fill="white"/>
</clipPath>
</defs>
</svg>
