<svg width="30" height="30" viewBox="0 0 30 30" fill="none" xmlns="http://www.w3.org/2000/svg">
<g clip-path="url(#clip0_941_2610)">
<path d="M22.7 3.32499L15.2 0.0419866C15.0725 -0.01367 14.9275 -0.01367 14.8 0.0419866L7.3 3.32499C7.11787 3.40447 7.0001 3.58427 7 3.78299V11.633C7.00271 13.3971 7.85045 15.0532 9.28 16.087L14.4635 19.8255C14.7836 20.0572 15.2164 20.0572 15.5365 19.8255L20.72 16.0875C22.1495 15.0537 22.9973 13.3976 23 11.6335V3.78299C22.9999 3.58427 22.8821 3.40447 22.7 3.32499ZM22 11.6335C21.9977 13.0764 21.3043 14.431 20.135 15.2765L15 18.98L9.865 15.2765C8.69572 14.431 8.00229 13.0764 8 11.6335V4.10999L15 1.04599L22 4.10999V11.6335Z" fill="#04285B"/>
<path d="M14.8 2.22497L9.3 4.63297C9.11787 4.71246 9.0001 4.89225 9 5.09097V11.6335C9.00154 12.7553 9.54074 13.8084 10.45 14.4655L14.7075 17.5365C14.8822 17.6625 15.1178 17.6625 15.2925 17.5365L19.55 14.4655C20.4593 13.8084 20.9985 12.7553 21 11.6335V5.09097C20.9999 4.89225 20.8821 4.71246 20.7 4.63297L15.2 2.22497C15.0725 2.16931 14.9275 2.16931 14.8 2.22497ZM20 5.41747V11.6335C19.9985 12.434 19.6137 13.1854 18.965 13.6545L15 16.5145L11.035 13.6545C10.3863 13.1854 10.0015 12.434 10 11.6335V5.41747L15 3.22897L20 5.41747Z" fill="#04285B"/>
<path d="M4.14245 16.6L3.06095 14.073C2.83096 13.552 2.3405 13.1933 1.77432 13.132C1.20814 13.0707 0.65226 13.3161 0.316071 13.7757C-0.0201186 14.2354 -0.0855402 14.8395 0.14445 15.3605L2.10395 19.671C2.36831 20.2545 2.73606 20.7854 3.18945 21.238L6.27095 24.32C6.0974 24.5039 6.00049 24.7471 5.99995 25V29C5.99995 29.5523 6.44767 30 6.99995 30H12.5C13.0522 30 13.5 29.5523 13.5 29V25C13.5 24.4477 13.0522 24 12.5 24V23.0695C12.5153 21.8853 12.1289 20.7309 11.404 19.7945C10.9789 19.2354 10.3996 18.8129 9.73745 18.579C8.68437 18.1365 7.71589 17.515 6.87495 16.742C6.09437 16.0991 4.98546 16.0415 4.14245 16.6ZM12.5 29H6.99995V25H12.5V29ZM10.6235 20.419C11.2063 21.1783 11.5152 22.1124 11.5 23.0695V24H7.36545L3.89645 20.531C3.52802 20.1631 3.22905 19.7316 3.01395 19.2575L1.05445 14.947C0.970826 14.763 0.986389 14.5491 1.09577 14.3792C1.20515 14.2093 1.39336 14.1065 1.59545 14.1065C1.83327 14.1063 2.04821 14.2482 2.14145 14.467L3.25995 17.0755C3.55696 17.7714 3.98507 18.4037 4.52095 18.938L6.80495 21.2225C6.93049 21.3525 7.11639 21.4046 7.2912 21.3588C7.46602 21.3131 7.60254 21.1765 7.6483 21.0017C7.69406 20.8269 7.64193 20.641 7.51195 20.5155L5.22795 18.231C4.99828 18.0019 4.79178 17.7506 4.61145 17.481C5.09162 17.1115 5.76337 17.1227 6.23095 17.508C7.16562 18.3658 8.2459 19.0498 9.42095 19.528C9.89971 19.7021 10.3175 20.0116 10.6235 20.419Z" fill="#04285B"/>
<path d="M11 26.5H10.5C10.2239 26.5 10 26.7239 10 27C10 27.2761 10.2239 27.5 10.5 27.5H11C11.2761 27.5 11.5 27.2761 11.5 27C11.5 26.7239 11.2761 26.5 11 26.5Z" fill="#04285B"/>
<path d="M27.896 19.671L29.8555 15.3605C30.0964 14.8377 30.0368 14.2257 29.6996 13.7593C29.3623 13.2928 28.7998 13.0445 28.2278 13.1095C27.6559 13.1745 27.1635 13.5428 26.9395 14.073L25.8605 16.5905C25.0146 16.0347 23.9051 16.0956 23.125 16.7405C22.2841 17.5135 21.3156 18.135 20.2625 18.5775C19.6003 18.8114 19.0211 19.2339 18.596 19.793C17.8707 20.7298 17.4843 21.8848 17.5 23.0695V24C16.9477 24 16.5 24.4477 16.5 25V29C16.5 29.5523 16.9477 30 17.5 30H23C23.5523 30 24 29.5523 24 29V25C23.9995 24.7471 23.9025 24.5039 23.729 24.32L26.8105 21.238C27.2639 20.7854 27.6316 20.2545 27.896 19.671ZM23 29H17.5V25H23V29ZM22.6345 24H18.5V23.0695C18.4849 22.1126 18.7938 21.1787 19.3765 20.4195C19.6818 20.0124 20.0986 19.7027 20.5765 19.528C21.7518 19.05 22.8322 18.3659 23.767 17.508C24.2341 17.1198 24.9077 17.1067 25.3895 17.4765C25.2086 17.7481 25.0011 18.0011 24.77 18.2315L22.486 20.516C22.2965 20.7122 22.2992 21.024 22.4921 21.2169C22.685 21.4098 22.9968 21.4125 23.193 21.223L25.477 18.9385C26.0129 18.4043 26.441 17.7719 26.738 17.076L27.8565 14.467C27.95 14.2485 28.1648 14.1068 28.4025 14.107C28.6046 14.1071 28.7928 14.2098 28.9022 14.3797C29.0116 14.5496 29.0271 14.7635 28.9435 14.9475L26.984 19.258C26.7689 19.7321 26.4699 20.1636 26.1015 20.5315L22.6345 24Z" fill="#04285B"/>
<path d="M19.5 26.5H19C18.7239 26.5 18.5 26.7239 18.5 27C18.5 27.2761 18.7239 27.5 19 27.5H19.5C19.7761 27.5 20 27.2761 20 27C20 26.7239 19.7761 26.5 19.5 26.5Z" fill="#04285B"/>
<path d="M12.2999 10.5999C12.079 10.4343 11.7656 10.479 11.5999 10.6999C11.4342 10.9209 11.479 11.2343 11.6999 11.3999L13.6999 12.8999C13.7865 12.9649 13.8917 12.9999 13.9999 12.9999C14.0282 12.9999 14.0565 12.9975 14.0844 12.9929C14.2198 12.9697 14.3397 12.8918 14.4159 12.7774L18.4159 6.77744C18.515 6.62882 18.5274 6.4386 18.4482 6.27843C18.3691 6.11826 18.2105 6.01247 18.0322 6.00093C17.8539 5.98938 17.683 6.07382 17.5839 6.22244L13.8769 11.7829L12.2999 10.5999Z" fill="#04285B"/>
</g>
<defs>
<clipPath id="clip0_941_2610">
<rect width="30" height="30" fill="white"/>
</clipPath>
</defs>
</svg>
