<svg width="17" height="20" viewBox="0 0 17 20" fill="none" xmlns="http://www.w3.org/2000/svg">
<path d="M15.6986 9.33011C15.4378 9.06936 15.1213 8.93909 14.7487 8.93909H14.302V6.25724C14.302 4.54395 13.6876 3.07287 12.4585 1.84375C11.2294 0.614584 9.75845 0 8.04493 0C6.33145 0 4.86022 0.614584 3.63125 1.8437C2.40208 3.07287 1.78769 4.5439 1.78769 6.25724V8.93909H1.3408C0.968473 8.93909 0.651813 9.06936 0.391068 9.33011C0.130323 9.59066 0 9.90732 0 10.28V18.325C0 18.6973 0.130372 19.0141 0.391068 19.2749C0.651813 19.5354 0.968473 19.6658 1.3408 19.6658H14.749C15.1217 19.6658 15.4381 19.5355 15.6989 19.2749C15.9594 19.0141 16.09 18.6973 16.09 18.325V10.2798C16.0902 9.90746 15.9594 9.59085 15.6986 9.33011ZM11.6205 8.93909H4.4694V6.25724C4.4694 5.27027 4.81864 4.42752 5.51698 3.72928C6.21541 3.03095 7.05801 2.68185 8.04507 2.68185C9.03223 2.68185 9.87464 3.0309 10.5731 3.72928C11.2713 4.42747 11.6205 5.27027 11.6205 6.25724V8.93909Z" fill="#04285B"/>
</svg>
