<svg width="36" height="36" viewBox="0 0 36 36" fill="none" xmlns="http://www.w3.org/2000/svg">
<path d="M24.5802 18.0583C24.1903 17.3494 23.4456 16.909 22.6366 16.909H21.9091V16.3091C21.9091 15.3968 21.1668 14.6545 20.2545 14.6545H15.7455C14.8331 14.6545 14.0909 15.3968 14.0909 16.3091V16.909H13.3634C12.5544 16.909 11.8096 17.3494 11.4198 18.0583L6.05049 27.8206C5.77958 28.3132 5.63635 28.8707 5.63635 29.4329V30.9636C5.63635 31.876 6.37864 32.6182 7.29095 32.6182H9.5818V34.909C9.5818 35.5106 10.0712 36 10.6728 36H25.3272C25.9288 36 26.4182 35.5106 26.4182 34.909V32.6182H28.709C29.6214 32.6182 30.3636 31.8759 30.3636 30.9636V29.4329C30.3636 28.8707 30.2204 28.3132 29.9495 27.8206L24.5802 18.0583ZM15.1456 16.3091C15.1456 15.9783 15.4147 15.7092 15.7455 15.7092H20.2545C20.5854 15.7092 20.8544 15.9784 20.8544 16.3091V16.909H15.1456V16.3091ZM25.3636 34.909C25.3636 34.929 25.3473 34.9453 25.3273 34.9453H10.6728C10.6528 34.9453 10.6366 34.9291 10.6366 34.909V32.6182H25.3636V34.909ZM29.309 30.9636C29.309 31.2944 29.0399 31.5635 28.7091 31.5635H7.29095C6.96013 31.5635 6.69104 31.2943 6.69104 30.9636V29.4329C6.69104 29.3672 6.69491 29.3017 6.7006 29.2364H8.98189C9.27313 29.2364 9.50924 29.0003 9.50924 28.709C9.50924 28.4178 9.27313 28.1817 8.98189 28.1817H7.05561L12.344 18.5664C12.5484 18.1946 12.9391 17.9637 13.3635 17.9637H22.6366C23.061 17.9637 23.4516 18.1946 23.6562 18.5664L28.9445 28.1817H11.2365C10.9452 28.1817 10.7091 28.4178 10.7091 28.709C10.7091 29.0003 10.9452 29.2364 11.2365 29.2364H29.2995C29.3052 29.3017 29.309 29.3672 29.309 29.4329V30.9636Z" fill="#04285B"/>
<path d="M7.32727 16.3091C7.32727 17.5524 7.55086 18.7905 7.99193 19.9892C8.09248 20.2625 8.3956 20.4025 8.6689 20.302C8.94221 20.2014 9.08227 19.8983 8.98172 19.625C8.58375 18.5434 8.38196 17.4277 8.38196 16.3091C8.38196 11.0057 12.6966 6.69102 18.0001 6.69102C23.3035 6.69102 27.6182 11.0057 27.6182 16.3091C27.6182 17.4278 27.4164 18.5435 27.0184 19.6251C26.9179 19.8984 27.0579 20.2015 27.3312 20.302C27.3913 20.3241 27.4528 20.3346 27.5133 20.3346C27.728 20.3346 27.9298 20.2025 28.0083 19.9892C28.4493 18.7906 28.673 17.5525 28.673 16.3091C28.673 11.4608 25.4232 7.3578 20.9877 6.0625C21.2115 5.78027 21.3457 5.42385 21.3457 5.03643C21.3457 4.12405 20.6034 3.38184 19.6911 3.38184H16.3093C15.3969 3.38184 14.6547 4.12412 14.6547 5.03643C14.6547 5.42378 14.7888 5.78027 15.0127 6.0625C10.5771 7.35773 7.32727 11.4607 7.32727 16.3091ZM16.3092 5.63627C15.9784 5.63627 15.7093 5.36711 15.7093 5.03636C15.7093 4.70561 15.9784 4.43645 16.3092 4.43645H19.691C20.0218 4.43645 20.2909 4.70561 20.2909 5.03636C20.2909 5.36711 20.0218 5.63627 19.691 5.63627H16.3092Z" fill="#04285B"/>
<path d="M29.5323 4.77682C26.452 1.69643 22.3564 0 18 0C13.6437 0 9.54813 1.69643 6.46774 4.77682C3.38735 7.85721 1.69092 11.9528 1.69092 16.3091C1.69092 19.8063 2.78393 23.1421 4.85189 25.9559C4.95525 26.0966 5.11514 26.171 5.27721 26.171C5.38563 26.171 5.49503 26.1377 5.58911 26.0686C5.82382 25.8961 5.87423 25.566 5.70175 25.3313C3.76788 22.6998 2.74568 19.58 2.74568 16.3091C2.74568 12.2345 4.33242 8.40382 7.21354 5.52262C10.0947 2.64143 13.9254 1.05469 18 1.05469C22.0747 1.05469 25.9053 2.64143 28.7865 5.52255C31.6677 8.40375 33.2544 12.2344 33.2544 16.3091C33.2544 19.5799 32.2322 22.6998 30.2983 25.3313C30.1259 25.566 30.1763 25.896 30.411 26.0685C30.6457 26.2411 30.9757 26.1906 31.1482 25.9559C33.2161 23.142 34.3092 19.8062 34.3092 16.3091C34.3092 11.9528 32.6127 7.85721 29.5323 4.77682Z" fill="#04285B"/>
<path d="M30.4 16.8364H31.5273C31.8185 16.8364 32.0546 16.6003 32.0546 16.3091C32.0546 16.0178 31.8185 15.7817 31.5273 15.7817H30.4C30.1088 15.7817 29.8727 16.0178 29.8727 16.3091C29.8727 16.6003 30.1088 16.8364 30.4 16.8364Z" fill="#04285B"/>
<path d="M5.60003 15.7817H4.47278C4.18154 15.7817 3.94543 16.0178 3.94543 16.3091C3.94543 16.6003 4.18154 16.8364 4.47278 16.8364H5.60003C5.89126 16.8364 6.12737 16.6003 6.12737 16.3091C6.12737 16.0178 5.89126 15.7817 5.60003 15.7817Z" fill="#04285B"/>
</svg>
