<svg width="12" height="15" viewBox="0 0 12 15" fill="none" xmlns="http://www.w3.org/2000/svg">
<path d="M11.4233 7.14206C11.2377 6.95643 11.0124 6.86369 10.7471 6.86369H10.4291V4.95449C10.4291 3.73482 9.99173 2.68756 9.1167 1.81256C8.24173 0.93752 7.19458 0.5 5.97472 0.5C4.75491 0.5 3.70755 0.93752 2.83265 1.81252C1.95761 2.68756 1.52023 3.73478 1.52023 4.95449V6.86369H1.20209C0.937033 6.86369 0.711604 6.95643 0.525981 7.14206C0.340358 7.32754 0.247581 7.55297 0.247581 7.81828V13.5455C0.247581 13.8105 0.340393 14.036 0.525981 14.2217C0.711604 14.4072 0.937033 14.5 1.20209 14.5H10.7474C11.0126 14.5 11.2379 14.4073 11.4236 14.2217C11.609 14.036 11.702 13.8105 11.702 13.5455V7.81817C11.7021 7.55307 11.609 7.32768 11.4233 7.14206ZM8.52013 6.86369H3.42932V4.95449C3.42932 4.25188 3.67795 3.65193 4.17509 3.15486C4.6723 2.65772 5.27214 2.4092 5.97483 2.4092C6.67758 2.4092 7.27729 2.65768 7.77453 3.15486C8.27154 3.6519 8.52013 4.25188 8.52013 4.95449V6.86369Z" fill="white"/>
</svg>
