<svg width="38" height="38" viewBox="0 0 38 38" fill="none" xmlns="http://www.w3.org/2000/svg">
<path d="M19 19.6403C23.5786 19.6403 27.3022 14.7813 27.3022 10.2034C27.3022 5.62516 23.5786 1.90002 19 1.90002C14.4221 1.90002 10.6978 5.62478 10.6978 10.203C10.6981 14.7813 14.4225 19.6403 19 19.6403Z" fill="#04285B"/>
<path d="M25.2332 19.7251C23.6223 20.9521 21.6133 21.6825 19.437 21.6825H18.563C16.3868 21.6825 14.3773 20.9521 12.7669 19.7251C7.50844 20.5752 3.49298 25.1333 3.49298 30.6311C3.49298 33.6513 10.4356 36.1001 19 36.1001C27.5645 36.1001 34.5071 33.6513 34.5071 30.6311C34.5071 25.1333 30.4912 20.5752 25.2332 19.7251Z" fill="#04285B"/>
</svg>
