<svg width="81" height="80" viewBox="0 0 81 80" fill="none" xmlns="http://www.w3.org/2000/svg">
<g clip-path="url(#clip0_329_1337)">
<path d="M50.9648 11.8037C45.7698 6.61 38.8648 3.75 31.5186 3.75C24.1723 3.75 17.2673 6.61 12.0723 11.8037C6.87855 16.9975 4.01855 23.9025 4.01855 31.2488C4.01855 38.5963 6.87855 45.5013 12.0723 50.6938C13.1786 51.8 14.3748 52.775 15.6236 53.6637C15.6598 53.7012 15.7073 53.725 15.7498 53.7575C19.6598 56.5075 24.1898 58.19 28.9898 58.625C28.9998 58.625 29.0086 58.63 29.0173 58.63C29.0248 58.63 29.0323 58.6275 29.0398 58.6275C29.8598 58.7013 30.6848 58.7488 31.5186 58.7488C32.3511 58.7488 33.1761 58.7013 33.9961 58.6275C34.0036 58.6275 34.0098 58.63 34.0173 58.63C34.0273 58.63 34.0348 58.625 34.0436 58.625C38.8448 58.19 43.3761 56.51 47.2873 53.7575C47.3273 53.725 47.3761 53.7012 47.4136 53.6637C48.6623 52.775 49.8586 51.8 50.9648 50.6938C61.6861 39.9725 61.6861 22.5262 50.9648 11.8037ZM22.7686 47.5H25.5186L27.4023 55.885C23.9636 55.3188 20.7048 54.0625 17.8036 52.1513C17.9873 49.5575 20.1311 47.5 22.7686 47.5ZM21.5186 28.7975H41.5186V31.2525C41.5186 36.765 37.0323 41.25 31.5186 41.25C26.0048 41.25 21.5186 36.765 21.5186 31.2525V28.7975ZM41.5448 26.125C41.5398 26.17 41.5186 26.2075 41.5186 26.2525V26.2975H21.5361V17.4975C21.5361 16.8075 22.0961 16.2475 22.7861 16.2475H40.2948C40.9848 16.2475 41.5448 16.8075 41.5448 17.4975V26.125ZM40.2686 47.5C42.9061 47.5 45.0498 49.5575 45.2336 52.1513C42.3336 54.0625 39.0723 55.3187 35.6336 55.8862L37.5186 47.5H40.2686ZM31.5186 43.75C32.8248 43.75 34.0848 43.5475 35.2686 43.1738V45.4775L34.0186 46.1025L32.0773 45.1325C32.0511 45.1187 32.0211 45.1213 31.9936 45.1088C31.9136 45.0763 31.8323 45.0588 31.7473 45.0425C31.6698 45.0275 31.5961 45.0138 31.5186 45.0138C31.4411 45.0138 31.3686 45.0288 31.2911 45.0425C31.2061 45.0588 31.1236 45.075 31.0436 45.11C31.0161 45.1213 30.9861 45.1187 30.9598 45.1325L29.0186 46.1025L27.7686 45.4775V43.1738C28.9523 43.5475 30.2123 43.75 31.5186 43.75ZM30.0298 56.175L28.3161 48.545L28.4598 48.6175C28.4773 48.6263 28.4961 48.6225 28.5148 48.6312C28.6723 48.7012 28.8398 48.7488 29.0136 48.7488C29.0148 48.7488 29.0161 48.75 29.0173 48.75H29.0198C29.0211 48.75 29.0223 48.7488 29.0236 48.7488C29.1986 48.7488 29.3648 48.7012 29.5223 48.6312C29.5411 48.6225 29.5598 48.6263 29.5773 48.6175L31.5186 47.6475L33.4598 48.6175C33.4773 48.6263 33.4961 48.6225 33.5148 48.6312C33.6723 48.7012 33.8398 48.7488 34.0136 48.7488C34.0148 48.7488 34.0161 48.75 34.0173 48.75H34.0198C34.0211 48.75 34.0223 48.7488 34.0236 48.7488C34.1986 48.7488 34.3648 48.7012 34.5223 48.6312C34.5411 48.6225 34.5598 48.6263 34.5773 48.6175L34.7198 48.545L33.0048 56.175C32.5111 56.2037 32.0186 56.2475 31.5186 56.2475C31.0186 56.2475 30.5248 56.2037 30.0298 56.175ZM47.4836 50.48C46.5986 47.3225 43.7036 45 40.2686 45H37.7686V42.0587C41.4973 39.8937 44.0186 35.865 44.0186 31.2512V27.675C44.0236 27.6312 44.0448 27.5938 44.0448 27.5475V17.4975C44.0448 15.43 42.3623 13.7475 40.2948 13.7475H22.7861C20.7186 13.7475 19.0361 15.43 19.0361 17.4975V26.1687C19.0336 26.1975 19.0186 26.2225 19.0186 26.2525V31.3138C19.0186 31.3213 19.0223 31.3275 19.0223 31.335C19.0523 35.9138 21.5611 39.9062 25.2686 42.06V45H22.7686C19.3336 45 16.4386 47.3225 15.5536 50.48C14.9636 49.9875 14.3898 49.475 13.8411 48.9262C9.11855 44.205 6.51855 37.9275 6.51855 31.2488C6.51855 24.57 9.11856 18.2925 13.8398 13.5713C18.5623 8.85 24.8398 6.25 31.5186 6.25C38.1973 6.25 44.4748 8.85 49.1973 13.5713C58.9448 23.3188 58.9448 39.1775 49.1973 48.925C48.6473 49.475 48.0736 49.9875 47.4836 50.48Z" fill="#04285B"/>
<path d="M78.4373 69.3325L63.9623 54.8537C63.4736 54.365 62.6836 54.365 62.1948 54.8537L61.3098 55.7387L56.1023 50.53C65.7248 38.2762 64.9023 20.44 53.6161 9.1525C47.7136 3.25125 39.8661 0 31.5186 0C23.1723 0 15.3248 3.25125 9.42105 9.1525C3.5198 15.0538 0.268555 22.9013 0.268555 31.2488C0.269805 39.5963 3.5198 47.4437 9.42105 53.3462C15.3223 59.2487 23.1711 62.4975 31.5186 62.4975C38.6011 62.4975 45.3198 60.1487 50.8011 55.8337L56.0086 61.0425L55.1248 61.9263C54.6361 62.415 54.6361 63.205 55.1248 63.6938L69.5998 78.1687C70.7798 79.3487 72.3498 80 74.0198 80C75.6898 80 77.2586 79.3487 78.4373 78.1687C79.6173 76.9887 80.2686 75.4188 80.2686 73.7488C80.2686 72.08 79.6186 70.5125 78.4373 69.3325ZM11.1886 51.5788C5.7598 46.1488 2.7698 38.9288 2.76855 31.2488C2.76855 23.5688 5.7598 16.35 11.1886 10.92C16.6198 5.49125 23.8398 2.5 31.5186 2.5C39.1986 2.5 46.4186 5.49125 51.8486 10.92C63.0573 22.1288 63.0573 40.3688 51.8486 51.5775C46.4173 57.0075 39.1973 59.9975 31.5186 59.9975C23.8386 59.9975 16.6186 57.0075 11.1886 51.5788ZM52.7098 54.2075C53.0148 53.925 53.3198 53.6412 53.6161 53.3462C53.9123 53.05 54.1961 52.7462 54.4773 52.44L59.5423 57.5063L57.7761 59.275L52.7098 54.2075ZM76.6686 76.4012C75.2548 77.8212 72.7836 77.8162 71.3673 76.4012L57.7761 62.81L58.6573 61.9275C58.6586 61.9275 58.6598 61.9263 58.6598 61.9263C58.6598 61.9263 58.6611 61.925 58.6611 61.9238L62.1898 58.395C62.1911 58.3937 62.1936 58.3925 62.1948 58.3913C62.1961 58.39 62.1973 58.3875 62.1986 58.3862L63.0786 57.505L76.6698 71.1H76.6711C77.3786 71.8063 77.7686 72.7475 77.7686 73.7488C77.7686 74.7513 77.3786 75.6937 76.6686 76.4012Z" fill="#04285B"/>
<path d="M34.024 20.0223H32.7727V18.7485C32.7727 18.0573 32.214 17.4985 31.5227 17.4985C30.8315 17.4985 30.2727 18.0573 30.2727 18.7485V20.0223H29.0215C28.3302 20.0223 27.7715 20.581 27.7715 21.2723C27.7715 21.9635 28.3302 22.5223 29.0215 22.5223H30.2727V23.7635C30.2727 24.4548 30.8315 25.0135 31.5227 25.0135C32.214 25.0135 32.7727 24.4548 32.7727 23.7635V22.5223H34.024C34.7152 22.5223 35.274 21.9635 35.274 21.2723C35.274 20.581 34.7152 20.0223 34.024 20.0223Z" fill="#04285B"/>
</g>
<defs>
<clipPath id="clip0_329_1337">
<rect width="80" height="80" fill="white" transform="translate(0.268555)"/>
</clipPath>
</defs>
</svg>
