<svg width="81" height="80" viewBox="0 0 81 80" fill="none" xmlns="http://www.w3.org/2000/svg">
<path d="M19.0684 38.9834H43.8019C44.683 38.9834 45.3976 38.2688 45.3976 37.3877C45.3976 36.5066 44.683 35.792 43.8019 35.792H19.0684C18.1867 35.792 17.4727 36.5066 17.4727 37.3877C17.4727 38.2688 18.1867 38.9834 19.0684 38.9834Z" fill="#04285B"/>
<path d="M33.8761 46.1641H19.0684C18.1867 46.1641 17.4727 46.8786 17.4727 47.7598C17.4727 48.6409 18.1867 49.3555 19.0684 49.3555H33.8761C34.7572 49.3555 35.4718 48.6409 35.4718 47.7598C35.4718 46.8786 34.7572 46.1641 33.8761 46.1641Z" fill="#04285B"/>
<path d="M61.5776 42.6207V15.0474C61.5766 10.6412 58.0047 7.07031 53.5991 7.06881H47.0566V4.021C47.0566 3.13937 46.3426 2.42529 45.4609 2.42529C44.5798 2.42529 43.8652 3.13937 43.8652 4.021V7.06881H22.1636V4.021C22.1636 3.13937 21.4495 2.42529 20.5678 2.42529C19.6867 2.42529 18.9721 3.13937 18.9721 4.021V7.06881H12.4297C8.02407 7.07031 4.45317 10.6412 4.45117 15.0474V58.2752C4.45317 62.6808 8.02407 66.2517 12.4297 66.2537H41.9668C45.0371 74.1176 53.2709 78.6823 61.5671 77.1205C69.8633 75.5592 75.8742 68.3132 75.8757 59.8709C75.8911 51.3019 69.7157 44.1531 61.5776 42.6207ZM12.4462 10.2602H18.9886V13.308C18.9886 14.1892 19.7027 14.9038 20.5843 14.9038C21.4654 14.9038 22.18 14.1892 22.18 13.308V10.2602H43.8817V13.308C43.8817 14.1892 44.5958 14.9038 45.4774 14.9038C46.3585 14.9038 47.0731 14.1892 47.0731 13.308V10.2602H53.6155C56.2559 10.2677 58.3947 12.4065 58.4026 15.0474V18.909H7.65905V15.0474C7.66104 12.404 9.80328 10.2622 12.4462 10.2602ZM12.4462 63.0623C9.80528 63.0548 7.66653 60.9156 7.65905 58.2752V22.0844H58.3862V42.3181H58.3383C53.1268 42.326 48.1876 44.6453 44.8536 48.6515C41.519 52.6573 40.1348 57.9361 41.0727 63.0623H12.4462ZM58.3383 74.2323C50.4071 74.2323 43.9769 67.8026 43.9769 59.8709C43.9769 51.9392 50.4071 45.5095 58.3383 45.5095C66.27 45.5095 72.6997 51.9392 72.6997 59.8709C72.6877 67.7976 66.265 74.2203 58.3383 74.2323Z" fill="#04285B"/>
<path d="M65.726 54.1424L56.248 63.1901L51.3486 58.2753C50.7278 57.654 49.7205 57.654 49.0992 58.2753C48.4774 58.8966 48.4774 59.9039 49.0992 60.5253L55.1145 66.5411C55.4137 66.8423 55.8226 67.0093 56.248 67.0038C56.6599 67.0073 57.0558 66.8468 57.3485 66.5566L67.944 56.4238C68.2492 56.1321 68.4257 55.7316 68.4352 55.3093C68.4437 54.8869 68.2846 54.4785 67.9919 54.1743C67.3706 53.551 66.3648 53.5365 65.726 54.1424Z" fill="#04285B"/>
</svg>
