<svg width="81" height="80" viewBox="0 0 81 80" fill="none" xmlns="http://www.w3.org/2000/svg">
<path d="M40.3122 36.29C38.8394 36.29 37.6455 37.4839 37.6455 38.9568C37.6454 40.0216 38.2711 40.938 39.1735 41.3655V44.6072C39.1735 45.236 39.6832 45.7458 40.3121 45.7458C40.941 45.7458 41.4507 45.2361 41.4507 44.6072V41.3655C42.3532 40.938 42.9789 40.0216 42.9789 38.9568C42.9789 37.4839 41.785 36.29 40.3122 36.29Z" fill="#04285B"/>
<path d="M68.728 17.3672C63.8266 15.4277 59.9363 11.8555 57.7736 7.30891C57.1855 6.0725 55.9142 5.27344 54.5347 5.27344H26.0031C24.6238 5.27344 23.3525 6.07234 22.7644 7.30891C20.6019 11.8555 16.7114 15.4277 11.81 17.3672C10.4352 17.9111 9.54688 19.2217 9.54688 20.7059V27.6453C9.54688 36.742 12.1995 45.7281 17.2181 53.6325C22.2855 61.6142 29.6283 68.2847 38.4522 72.9225L38.5959 72.9981C39.1198 73.2734 39.6944 73.4111 40.2691 73.4111C40.8434 73.4111 41.4181 73.2734 41.9417 72.9983L42.0859 72.9225C50.91 68.2845 58.2527 61.6142 63.3202 53.6325C68.3386 45.728 70.9912 36.7419 70.9912 27.6453V20.7059C70.9912 19.2216 70.1027 17.9111 68.728 17.3672ZM68.7142 27.6455C68.7142 36.3091 66.1842 44.8731 61.3978 52.4122C56.5433 60.0584 49.4989 66.4539 41.0269 70.907L40.8827 70.9827C40.4984 71.1848 40.0397 71.1847 39.6553 70.9827L39.5116 70.9072C31.0392 66.4541 23.9948 60.0586 19.1402 52.4122C14.3537 44.8733 11.8237 36.3091 11.8237 27.6453V20.7059C11.8237 20.162 12.1472 19.6825 12.6477 19.4845C18.0867 17.3323 22.4097 13.3556 24.8205 8.28703C25.0331 7.83969 25.4973 7.55063 26.003 7.55063H54.5348C55.0405 7.55063 55.5045 7.83969 55.7173 8.28703C58.1283 13.3556 62.4514 17.3323 67.8903 19.4847C68.3908 19.6827 68.7142 20.1622 68.7142 20.7061V27.6455Z" fill="#04285B"/>
<path d="M74.4359 38.4501C73.8226 38.3113 73.2129 38.6962 73.0745 39.3096C69.607 54.6498 59.0464 67.9534 44.1001 75.8091L40.6268 77.6348C40.4026 77.7526 40.1348 77.7526 39.9106 77.6348L36.4373 75.8091C21.4676 67.941 10.9017 54.6145 7.44871 39.2466C7.31105 38.6332 6.70168 38.2474 6.0884 38.3854C5.47496 38.5232 5.08933 39.1323 5.22715 39.7457C8.82652 55.7662 19.8161 69.6454 35.3779 77.8246L38.8512 79.6502C39.2951 79.8834 39.7818 80.0001 40.2687 80.0001C40.7554 80.0001 41.2425 79.8834 41.6862 79.6501L45.1595 77.8245C60.6968 69.6581 71.6809 55.8029 75.2956 39.8115C75.434 39.1982 75.0492 38.5887 74.4359 38.4501Z" fill="#04285B"/>
<path d="M73.8814 13.0277C67.8019 12.3862 63.0216 8.11891 62.2564 2.65047C62.045 1.13937 60.7464 0 59.2358 0H21.3008C19.7903 0 18.4917 1.13937 18.2803 2.65047C17.515 8.11906 12.7347 12.3862 6.65531 13.0277C5.11484 13.1902 3.95312 14.4916 3.95312 16.0547V28.2803C3.95312 30.0569 4.04516 31.853 4.22672 33.6189C4.28703 34.2048 4.78141 34.6411 5.35797 34.6411C5.39688 34.6411 5.43625 34.6391 5.47578 34.635C6.10125 34.5708 6.55625 34.0116 6.49188 33.3861C6.31828 31.6972 6.23016 29.9794 6.23016 28.2803V16.0547C6.23016 15.6664 6.52188 15.3313 6.89422 15.292C14.0155 14.5408 19.6248 9.47203 20.5355 2.96594C20.5914 2.56672 20.9131 2.27703 21.3008 2.27703H59.2356C59.6233 2.27703 59.9453 2.56672 60.0011 2.96594C60.9114 9.47203 66.5209 14.5406 73.6422 15.292C74.0145 15.3313 74.3063 15.6664 74.3063 16.0547V28.2803C74.3063 29.9614 74.22 31.6614 74.05 33.3334C73.9864 33.9589 74.442 34.5177 75.0675 34.5813C75.6927 34.6453 76.2517 34.1892 76.3155 33.5637C76.4933 31.8156 76.5833 30.0381 76.5833 28.2803V16.0547C76.5834 14.4916 75.4219 13.1902 73.8814 13.0277Z" fill="#04285B"/>
<path d="M53.3089 28.4163H51.4368V22.9816C51.4368 16.8474 46.4464 11.8569 40.312 11.8569C34.1778 11.8569 29.1871 16.8474 29.1871 22.9816V28.4163H27.3153C25.3187 28.4163 23.6943 30.0407 23.6943 32.0372V48.3387C23.6943 50.3352 25.3187 51.9596 27.3153 51.9596H53.3089C55.3054 51.9596 56.9298 50.3352 56.9298 48.3387V32.0372C56.9298 30.0407 55.3054 28.4163 53.3089 28.4163ZM31.4643 22.9818C31.4643 18.1032 35.4334 14.1341 40.3121 14.1341C45.1909 14.1341 49.16 18.1032 49.16 22.9818V28.4165H31.4643V22.9818ZM54.6528 48.3387C54.6528 49.0796 54.0498 49.6826 53.3089 49.6826H27.3153C26.5742 49.6826 25.9714 49.0796 25.9714 48.3387V32.0372C25.9714 31.2963 26.5743 30.6933 27.3153 30.6933H53.3089C54.0498 30.6933 54.6528 31.2962 54.6528 32.0372V48.3387Z" fill="#04285B"/>
</svg>
