<svg width="81" height="80" viewBox="0 0 81 80" fill="none" xmlns="http://www.w3.org/2000/svg">
<path d="M40.2686 17.5H52.7686V20H40.2686V17.5Z" fill="#04285B"/>
<path d="M40.2686 22.5H52.7686V25H40.2686V22.5Z" fill="#04285B"/>
<path d="M40.2686 27.5H52.7686V30H40.2686V27.5Z" fill="#04285B"/>
<path d="M40.2686 32.5H52.7686V35H40.2686V32.5Z" fill="#04285B"/>
<path d="M26.3586 19.7725C27.2741 20.0758 28.263 20.0758 29.1786 19.7725C29.4003 20.5549 29.8703 21.244 30.5179 21.736C31.1654 22.228 31.9553 22.4961 32.7686 22.5H34.0186C34.3501 22.5 34.668 22.6317 34.9024 22.8661C35.1369 23.1005 35.2686 23.4185 35.2686 23.75V27.5H37.7686V23.75C37.7686 22.7554 37.3735 21.8016 36.6702 21.0983C35.9669 20.3951 35.0131 20 34.0186 20H32.7686C32.437 20 32.1191 19.8683 31.8847 19.6339C31.6502 19.3995 31.5186 19.0815 31.5186 18.75V18.2725C32.3196 17.3701 32.764 16.2066 32.7686 15V12.5C32.7686 11.1739 32.2418 9.90215 31.3041 8.96447C30.3664 8.02678 29.0946 7.5 27.7686 7.5C26.4425 7.5 25.1707 8.02678 24.233 8.96447C23.2953 9.90215 22.7686 11.1739 22.7686 12.5V15C22.7731 16.2066 23.2175 17.3701 24.0186 18.2725V18.75C24.0186 19.0815 23.8869 19.3995 23.6524 19.6339C23.418 19.8683 23.1001 20 22.7686 20H21.5186C20.524 20 19.5702 20.3951 18.8669 21.0983C18.1636 21.8016 17.7686 22.7554 17.7686 23.75V27.5H20.2686V23.75C20.2686 23.4185 20.4002 23.1005 20.6347 22.8661C20.8691 22.6317 21.187 22.5 21.5186 22.5H22.7686C23.5818 22.4961 24.3717 22.228 25.0192 21.736C25.6668 21.244 26.1368 20.5549 26.3586 19.7725ZM25.2686 12.5C25.2686 11.837 25.5319 11.2011 26.0008 10.7322C26.4696 10.2634 27.1055 10 27.7686 10C28.4316 10 29.0675 10.2634 29.5363 10.7322C30.0052 11.2011 30.2686 11.837 30.2686 12.5V15C30.2686 15.663 30.0052 16.2989 29.5363 16.7678C29.0675 17.2366 28.4316 17.5 27.7686 17.5C27.1055 17.5 26.4696 17.2366 26.0008 16.7678C25.5319 16.2989 25.2686 15.663 25.2686 15V12.5Z" fill="#04285B"/>
<path d="M41.5186 15H51.5186C51.8501 15 52.168 14.8683 52.4024 14.6339C52.6369 14.3995 52.7686 14.0815 52.7686 13.75V8.75C52.7686 8.41848 52.6369 8.10054 52.4024 7.86612C52.168 7.6317 51.8501 7.5 51.5186 7.5H41.5186C41.187 7.5 40.8691 7.6317 40.6347 7.86612C40.4002 8.10054 40.2686 8.41848 40.2686 8.75V13.75C40.2686 14.0815 40.4002 14.3995 40.6347 14.6339C40.8691 14.8683 41.187 15 41.5186 15ZM42.7686 10H50.2686V12.5H42.7686V10Z" fill="#04285B"/>
<path d="M77.7686 35C77.7666 33.0115 76.9758 31.105 75.5697 29.6989C74.1636 28.2928 72.2571 27.502 70.2686 27.5H62.7686V8.75C62.7686 8.41848 62.6369 8.10054 62.4024 7.86612C62.168 7.6317 61.8501 7.5 61.5186 7.5H57.7686V3.75C57.7686 3.41848 57.6369 3.10054 57.4024 2.86612C57.168 2.6317 56.8501 2.5 56.5186 2.5H14.0186C13.687 2.5 13.3691 2.6317 13.1347 2.86612C12.9003 3.10054 12.7686 3.41848 12.7686 3.75V31.25H9.01855C7.36156 31.252 5.773 31.9111 4.60133 33.0828C3.42966 34.2544 2.77054 35.843 2.76855 37.5V71.25C2.77054 72.907 3.42966 74.4956 4.60133 75.6672C5.773 76.8389 7.36156 77.498 9.01855 77.5H61.5186C63.1263 77.4944 64.67 76.8694 65.8289 75.755C66.9877 74.6406 67.6726 73.1225 67.7411 71.5163L77.7236 35.3325C77.7534 35.2242 77.7686 35.1124 77.7686 35ZM60.2686 10V37.5H57.7686V10H60.2686ZM15.2686 5H55.2686V37.5H30.7861L24.9023 31.6162C24.6679 31.3818 24.35 31.2501 24.0186 31.25H15.2686V5ZM65.2686 71.25C65.2686 72.2446 64.8735 73.1984 64.1702 73.9016C63.4669 74.6049 62.5131 75 61.5186 75H9.01855C8.02399 75 7.07017 74.6049 6.3669 73.9016C5.66364 73.1984 5.26855 72.2446 5.26855 71.25V37.5C5.26855 36.5054 5.66364 35.5516 6.3669 34.8483C7.07017 34.1451 8.02399 33.75 9.01855 33.75H23.5011L29.3848 39.6338C29.6192 39.8682 29.9371 39.9999 30.2686 40H61.5186C62.5131 40 63.4669 40.3951 64.1702 41.0984C64.8735 41.8016 65.2686 42.7554 65.2686 43.75V71.25ZM67.7686 62.0188V43.75C67.7667 42.3097 67.2684 40.9141 66.3577 39.7984C65.4469 38.6827 64.1793 37.9151 62.7686 37.625V30H70.2686C71.5674 29.9993 72.8155 30.5041 73.7487 31.4075C74.6819 32.3108 75.227 33.5418 75.2686 34.84L67.7686 62.0188Z" fill="#04285B"/>
<path d="M47.7686 51.25H41.5186V45C41.5186 44.6685 41.3869 44.3505 41.1524 44.1161C40.918 43.8817 40.6001 43.75 40.2686 43.75H30.2686C29.937 43.75 29.6191 43.8817 29.3847 44.1161C29.1502 44.3505 29.0186 44.6685 29.0186 45V51.25H22.7686C22.437 51.25 22.1191 51.3817 21.8847 51.6161C21.6502 51.8505 21.5186 52.1685 21.5186 52.5V62.5C21.5186 62.8315 21.6502 63.1495 21.8847 63.3839C22.1191 63.6183 22.437 63.75 22.7686 63.75H29.0186V70C29.0186 70.3315 29.1502 70.6495 29.3847 70.8839C29.6191 71.1183 29.937 71.25 30.2686 71.25H40.2686C40.6001 71.25 40.918 71.1183 41.1524 70.8839C41.3869 70.6495 41.5186 70.3315 41.5186 70V63.75H47.7686C48.1001 63.75 48.418 63.6183 48.6524 63.3839C48.8869 63.1495 49.0186 62.8315 49.0186 62.5V52.5C49.0186 52.1685 48.8869 51.8505 48.6524 51.6161C48.418 51.3817 48.1001 51.25 47.7686 51.25ZM46.5186 61.25H40.2686C39.937 61.25 39.6191 61.3817 39.3847 61.6161C39.1502 61.8505 39.0186 62.1685 39.0186 62.5V68.75H31.5186V62.5C31.5186 62.1685 31.3869 61.8505 31.1524 61.6161C30.918 61.3817 30.6001 61.25 30.2686 61.25H24.0186V53.75H30.2686C30.6001 53.75 30.918 53.6183 31.1524 53.3839C31.3869 53.1495 31.5186 52.8315 31.5186 52.5V46.25H39.0186V52.5C39.0186 52.8315 39.1502 53.1495 39.3847 53.3839C39.6191 53.6183 39.937 53.75 40.2686 53.75H46.5186V61.25Z" fill="#04285B"/>
</svg>
