<svg width="81" height="80" viewBox="0 0 81 80" fill="none" xmlns="http://www.w3.org/2000/svg">
<g clip-path="url(#clip0_329_1341)">
<path d="M12.2686 0C7.85793 0 4.26855 3.58797 4.26855 8C4.26855 12.412 7.85793 16 12.2686 16C16.6792 16 20.2686 12.412 20.2686 8C20.2686 3.58797 16.6792 0 12.2686 0ZM12.2686 13.3333C9.32715 13.3333 6.93527 10.9413 6.93527 8C6.93527 5.05875 9.32715 2.66672 12.2686 2.66672C15.21 2.66672 17.6018 5.05875 17.6018 8C17.6018 10.9413 15.21 13.3333 12.2686 13.3333Z" fill="#04285B"/>
<path d="M17.6045 10.6667H17.5712C17.1539 10.6667 16.7592 10.8626 16.5071 11.196C15.4818 12.5546 13.9365 13.3332 12.2686 13.3332C10.6006 13.3332 9.05527 12.5546 8.02996 11.1959C7.77793 10.8626 7.34996 10.6665 6.93262 10.6665C3.25793 10.6667 0.268555 13.6559 0.268555 17.3306V22.6665C0.268555 23.4024 0.865898 23.9998 1.60184 23.9998H22.9351C23.6711 23.9998 24.2684 23.4024 24.2684 22.6665V17.3306C24.2686 13.6559 21.2792 10.6667 17.6045 10.6667ZM21.6018 21.3332H2.93527V17.3306C2.93527 15.3238 4.42059 13.6585 6.37527 13.3759C7.89262 15.052 10.0032 15.9999 12.2686 15.9999C14.5353 15.9999 16.6471 15.0506 18.1645 13.372C20.1045 13.6453 21.6018 15.3173 21.6018 17.3306V21.3332Z" fill="#04285B"/>
<path d="M68.2686 0C63.8579 0 60.2686 3.58797 60.2686 8C60.2686 12.412 63.8579 16 68.2686 16C72.6792 16 76.2686 12.412 76.2686 8C76.2686 3.58797 72.6792 0 68.2686 0ZM68.2686 13.3333C65.3271 13.3333 62.9353 10.9413 62.9353 8C62.9353 5.05875 65.3273 2.66672 68.2686 2.66672C71.21 2.66672 73.6018 5.05875 73.6018 8C73.6018 10.9413 71.21 13.3333 68.2686 13.3333Z" fill="#04285B"/>
<path d="M73.6047 10.6665H73.5714C73.154 10.6665 72.7593 10.8624 72.5073 11.1959C71.482 12.5545 69.9367 13.3332 68.2686 13.3332C66.6006 13.3332 65.0553 12.5546 64.03 11.1959C63.7779 10.8626 63.35 10.6665 62.9326 10.6665C59.2579 10.6665 56.2686 13.6559 56.2686 17.3306V22.6665C56.2686 23.4024 56.8659 23.9998 57.6018 23.9998H78.9351C79.6711 23.9998 80.2684 23.4024 80.2684 22.6665V17.3306C80.2687 13.6557 77.2793 10.6665 73.6047 10.6665ZM77.602 21.3331H58.9354V17.3304C58.9354 15.3237 60.4207 13.6584 62.3754 13.3757C63.8928 15.0517 66.0034 15.9998 68.2687 15.9998C70.5354 15.9998 72.6473 15.0504 74.1646 13.3718C76.1046 13.6451 77.602 15.3171 77.602 17.3304V21.3331Z" fill="#04285B"/>
<path d="M12.2686 56C7.85793 56 4.26855 59.588 4.26855 64C4.26855 68.412 7.85793 72 12.2686 72C16.6792 72 20.2686 68.412 20.2686 64C20.2686 59.588 16.6792 56 12.2686 56ZM12.2686 69.3333C9.32715 69.3333 6.93527 66.9413 6.93527 64C6.93527 61.0586 9.32731 58.6667 12.2686 58.6667C15.2098 58.6667 17.6018 61.0588 17.6018 64C17.6018 66.9414 15.21 69.3333 12.2686 69.3333Z" fill="#04285B"/>
<path d="M17.6046 66.6665H17.5714C17.154 66.6665 16.7593 66.8624 16.5073 67.1959C15.482 68.5545 13.9367 69.3332 12.2686 69.3332C10.6006 69.3332 9.05527 68.5546 8.02996 67.1959C7.77793 66.8626 7.34996 66.6665 6.93262 66.6665C3.25793 66.6665 0.268555 69.6559 0.268555 73.3306V78.6665C0.268711 79.4024 0.866055 79.9998 1.60199 79.9998H22.9353C23.6712 79.9998 24.2686 79.4024 24.2686 78.6665V73.3306C24.2687 69.6557 21.2793 66.6665 17.6046 66.6665ZM21.602 77.3331H2.93543V73.3304C2.93543 71.3237 4.42074 69.6584 6.37543 69.3757C7.89277 71.0518 10.0034 71.9998 12.2687 71.9998C14.5354 71.9998 16.6473 71.0504 18.1646 69.3718C20.1046 69.6451 21.602 71.3171 21.602 73.3304V77.3331Z" fill="#04285B"/>
<path d="M68.2686 56C63.8579 56 60.2686 59.588 60.2686 64C60.2686 68.412 63.8579 72 68.2686 72C72.6792 72 76.2686 68.412 76.2686 64C76.2686 59.588 72.6792 56 68.2686 56ZM68.2686 69.3333C65.3271 69.3333 62.9353 66.9413 62.9353 64C62.9353 61.0586 65.3273 58.6667 68.2686 58.6667C71.21 58.6667 73.6018 61.0588 73.6018 64C73.6018 66.9414 71.21 69.3333 68.2686 69.3333Z" fill="#04285B"/>
<path d="M73.6047 66.6665H73.5714C73.154 66.6665 72.7593 66.8624 72.5073 67.1959C71.482 68.5545 69.9367 69.3332 68.2686 69.3332C66.6006 69.3332 65.0553 68.5546 64.03 67.1959C63.7779 66.8626 63.35 66.6665 62.9326 66.6665C59.2579 66.6665 56.2686 69.6559 56.2686 73.3306V78.6665C56.2686 79.4024 56.8659 79.9998 57.6018 79.9998H78.9351C79.6711 79.9998 80.2684 79.4024 80.2684 78.6665V73.3306C80.2687 69.6557 77.2793 66.6665 73.6047 66.6665ZM77.602 77.3331H58.9354V73.3304C58.9354 71.3237 60.4207 69.6584 62.3754 69.3757C63.8928 71.0517 66.0034 71.9998 68.2687 71.9998C70.5354 71.9998 72.6473 71.0504 74.1646 69.3718C76.1046 69.6451 77.602 71.3171 77.602 73.3304V77.3331Z" fill="#04285B"/>
<path d="M62.3634 6.65868C61.2154 5.89727 60.0181 5.18805 58.8048 4.55196C58.1528 4.21055 57.3475 4.46133 57.0048 5.11337C56.6634 5.7654 56.9154 6.57196 57.5675 6.91337C58.7007 7.50805 59.8181 8.1693 60.8889 8.88008C61.1156 9.03071 61.3715 9.10274 61.6248 9.10274C62.0554 9.10274 62.4795 8.89337 62.7368 8.5068C63.1434 7.89337 62.9767 7.0654 62.3634 6.65868Z" fill="#04285B"/>
<path d="M51.6763 1.65301C49.2216 0.923634 46.6804 0.428947 44.123 0.183634C43.3924 0.118322 42.7377 0.651603 42.6683 1.38363C42.5977 2.11567 43.1351 2.7677 43.8683 2.83832C46.2551 3.0677 48.6269 3.52895 50.9163 4.20895C51.043 4.24629 51.171 4.26488 51.2963 4.26488C51.8696 4.26488 52.4004 3.88895 52.5749 3.3116C52.7843 2.60504 52.3816 1.86238 51.6763 1.65301Z" fill="#04285B"/>
<path d="M36.4296 0.182567C33.8722 0.426629 31.331 0.91991 28.8749 1.64929C28.1696 1.85866 27.7669 2.60132 27.9763 3.30663C28.1483 3.88663 28.6789 4.26132 29.2536 4.26132C29.3789 4.26132 29.5069 4.24272 29.635 4.20538C31.9257 3.52538 34.2964 3.06397 36.683 2.83741C37.415 2.76804 37.9524 2.11741 37.883 1.38413C37.8136 0.650848 37.1628 0.114598 36.4296 0.182567Z" fill="#04285B"/>
<path d="M23.5331 5.1133C23.1917 4.46127 22.3851 4.21064 21.7331 4.55189C20.5198 5.18783 19.3225 5.8972 18.1743 6.65861C17.561 7.06533 17.3931 7.8933 17.801 8.50658C18.057 8.8933 18.481 9.10252 18.9131 9.10252C19.1664 9.10252 19.4225 9.03048 19.649 8.87986C20.7196 8.16783 21.8384 7.50658 22.9704 6.91314C23.6237 6.57205 23.8743 5.76533 23.5331 5.1133Z" fill="#04285B"/>
<path d="M75.8882 55.1145C75.2214 54.8012 74.4282 55.0918 74.1161 55.7585C73.5747 56.9185 72.9655 58.0652 72.3055 59.1665C71.9282 59.7985 72.1322 60.6171 72.7641 60.9959C72.9788 61.1252 73.2147 61.1865 73.4482 61.1865C73.9014 61.1865 74.3441 60.9545 74.5908 60.5385C75.2988 59.3585 75.9522 58.1306 76.5322 56.8865C76.8441 56.2198 76.5549 55.4265 75.8882 55.1145Z" fill="#04285B"/>
<path d="M80.0873 36.1854C80.0179 35.4521 79.3699 34.9214 78.634 34.984C77.9007 35.0534 77.3634 35.704 77.4326 36.4373C77.5459 37.6146 77.602 38.8132 77.602 40C77.602 42.12 77.422 44.2467 77.0687 46.3214C76.946 47.0467 77.434 47.7361 78.1593 47.86C78.234 47.8732 78.3099 47.8786 78.3846 47.8786C79.022 47.8786 79.586 47.42 79.6966 46.7706C80.0765 44.5481 80.2685 42.2707 80.2685 40.0001C80.2685 38.7295 80.2071 37.4454 80.0873 36.1854Z" fill="#04285B"/>
<path d="M77.6873 25.8546C77.202 24.5732 76.642 23.2987 76.0233 22.0679C75.6913 21.4106 74.89 21.1439 74.2327 21.4759C73.5741 21.8065 73.3086 22.6079 73.6394 23.2665C74.2167 24.4145 74.7394 25.6039 75.1927 26.7998C75.3941 27.3318 75.9006 27.6612 76.4394 27.6612C76.5967 27.6612 76.7553 27.6332 76.9127 27.5745C77.602 27.3132 77.9488 26.544 77.6873 25.8546Z" fill="#04285B"/>
<path d="M6.30548 21.4759C5.64688 21.1439 4.84548 21.4106 4.51485 22.0679C3.89626 23.2985 3.33626 24.5732 2.85079 25.8546C2.58938 26.544 2.9361 27.3134 3.62548 27.5746C3.78141 27.6332 3.94016 27.6614 4.09751 27.6614C4.6361 27.6614 5.14282 27.332 5.34548 26.8C5.79876 25.604 6.32141 24.4146 6.89876 23.2667C7.22954 22.6079 6.96282 21.8067 6.30548 21.4759Z" fill="#04285B"/>
<path d="M3.46715 46.3118C3.11387 44.2412 2.93512 42.1171 2.93512 39.9998C2.93512 38.8078 2.99246 37.6065 3.10309 36.4304C3.17371 35.6971 2.63637 35.0464 1.90309 34.9757C1.17637 34.9131 0.519023 35.4425 0.449805 36.1757C0.329961 37.4371 0.268555 38.7225 0.268555 39.9998C0.268555 42.2678 0.460586 44.5412 0.83793 46.7598C0.949961 47.4104 1.51262 47.8692 2.15121 47.8692C2.2259 47.8692 2.30184 47.8639 2.37652 47.8504C3.10324 47.7265 3.59121 47.0371 3.46715 46.3118Z" fill="#04285B"/>
<path d="M8.22871 59.1665C7.56871 58.0651 6.95933 56.9185 6.41808 55.7585C6.10605 55.0918 5.31277 54.8012 4.64605 55.1145C3.97933 55.4265 3.69137 56.2198 4.00199 56.8865C4.5834 58.1306 5.23527 59.3585 5.9434 60.5385C6.19402 60.9559 6.63543 61.1865 7.08871 61.1865C7.32199 61.1865 7.55808 61.1251 7.77012 60.9959C8.40199 60.6171 8.6073 59.7984 8.22871 59.1665Z" fill="#04285B"/>
<path d="M58.9312 34.6665H34.9379C33.4659 34.6665 32.2686 35.8638 32.2686 37.3359V53.3306C32.2686 54.8026 33.4659 55.9999 34.9392 55.9999H47.7165L55.3259 63.6093C55.5806 63.864 55.9218 63.9999 56.2686 63.9999C56.4406 63.9999 56.6139 63.9667 56.7792 63.8985C57.2765 63.6918 57.6018 63.2053 57.6018 62.6665V55.9998H58.9325C60.4045 55.9998 61.6018 54.8024 61.6018 53.3292V37.3357C61.6018 35.8638 60.4045 34.6665 58.9312 34.6665ZM58.9326 53.3331H56.2686C55.5326 53.3331 54.9353 53.9304 54.9353 54.6663V59.4478L49.2112 53.7237C48.9618 53.4731 48.6218 53.3331 48.2686 53.3331L34.9353 53.329V37.3357L34.9379 37.3331L58.9353 37.3357L58.9326 53.3331Z" fill="#04285B"/>
<path d="M44.2642 26.6665H20.2709C18.7989 26.6665 17.6016 27.8638 17.6016 29.3359V45.3306C17.6016 46.8026 18.7989 47.9999 20.2709 47.9999H21.6016V54.6667C21.6016 55.2053 21.9269 55.692 22.4256 55.8987C22.5897 55.9667 22.763 56.0001 22.935 56.0001C23.2817 56.0001 23.623 55.8642 23.8777 55.6095L31.487 48.0001H33.6017C34.3377 48.0001 34.935 47.4028 34.935 46.6668V37.3357L45.6017 37.3331C46.3377 37.3331 46.935 36.7357 46.935 35.9998V29.3357C46.935 27.8638 45.7377 26.6665 44.2642 26.6665ZM44.2683 34.6665H34.9377C33.4656 34.6665 32.2683 35.8638 32.2683 37.3359V45.3332H30.935C30.5817 45.3332 30.2417 45.4732 29.9923 45.7238L24.2683 51.4478V46.6663C24.2683 45.9304 23.6709 45.3331 22.935 45.3331L20.2683 45.3304L20.2709 29.3331L44.2683 29.3357V34.6665Z" fill="#04285B"/>
<path d="M46.9348 41.3335H38.9348C38.1989 41.3335 37.6016 41.9308 37.6016 42.6668C37.6016 43.4027 38.1989 44.0001 38.9348 44.0001H46.9348C47.6708 44.0001 48.2681 43.4027 48.2681 42.6668C48.2681 41.9308 47.6708 41.3335 46.9348 41.3335Z" fill="#04285B"/>
<path d="M54.9355 41.3335H52.2688C51.5329 41.3335 50.9355 41.9308 50.9355 42.6668C50.9355 43.4027 51.5329 44.0001 52.2688 44.0001H54.9355C55.6715 44.0001 56.2688 43.4027 56.2688 42.6668C56.2688 41.9308 55.6715 41.3335 54.9355 41.3335Z" fill="#04285B"/>
<path d="M54.9348 46.6665H46.9348C46.1989 46.6665 45.6016 47.2639 45.6016 47.9998C45.6016 48.7357 46.1989 49.3331 46.9348 49.3331H54.9348C55.6708 49.3331 56.2681 48.7357 56.2681 47.9998C56.2681 47.2639 55.6708 46.6665 54.9348 46.6665Z" fill="#04285B"/>
<path d="M41.6016 46.6665H38.9348C38.1989 46.6665 37.6016 47.2639 37.6016 47.9998C37.6016 48.7357 38.1989 49.3331 38.9348 49.3331H41.6016C42.3375 49.3331 42.9348 48.7357 42.9348 47.9998C42.9348 47.2639 42.3377 46.6665 41.6016 46.6665Z" fill="#04285B"/>
<path d="M27.0667 74.924C25.872 74.4707 24.6841 73.9493 23.5334 73.3707C22.8761 73.0413 22.0734 73.3054 21.7428 73.9628C21.4122 74.6213 21.6775 75.4228 22.3361 75.7534C23.5681 76.3734 24.8428 76.9334 26.1228 77.4174C26.2788 77.476 26.4375 77.5042 26.5949 77.5042C27.1336 77.5042 27.6402 77.1748 27.8416 76.6428C28.1028 75.9532 27.7561 75.184 27.0667 74.924Z" fill="#04285B"/>
<path d="M46.2256 78.2333C46.1377 77.5027 45.4777 76.98 44.743 77.068C41.7909 77.4213 38.7363 77.4213 35.7724 77.0653C35.0391 76.9774 34.3777 77.4986 34.2897 78.2294C34.203 78.96 34.7244 79.6241 35.455 79.7121C37.0442 79.9027 38.663 80 40.2683 80C41.8697 80 43.483 79.9041 45.0603 79.716C45.7924 79.628 46.3136 78.9641 46.2256 78.2333Z" fill="#04285B"/>
<path d="M58.7929 73.9625C58.4609 73.3051 57.6596 73.0384 57.0023 73.3704C55.8529 73.949 54.6637 74.4718 53.469 74.9237C52.781 75.1837 52.4331 75.9531 52.6943 76.6423C52.897 77.1743 53.4037 77.5037 53.9423 77.5037C54.0996 77.5037 54.2582 77.4757 54.4129 77.417C55.6929 76.9317 56.9676 76.3717 58.1996 75.7529C58.8582 75.4225 59.1235 74.6212 58.7929 73.9625Z" fill="#04285B"/>
</g>
<defs>
<clipPath id="clip0_329_1341">
<rect width="80" height="80" fill="white" transform="translate(0.268555)"/>
</clipPath>
</defs>
</svg>
