<svg width="81" height="80" viewBox="0 0 81 80" fill="none" xmlns="http://www.w3.org/2000/svg">
<g clip-path="url(#clip0_329_1427)">
<path d="M20.5347 39.6809L15.1203 45.0953L13.4223 43.3967C12.8119 42.787 11.8232 42.787 11.2122 43.3967C10.6024 44.0071 10.6024 44.9965 11.2122 45.6068L14.0155 48.4095C14.3085 48.7025 14.7058 48.8673 15.1203 48.8673C15.5347 48.8673 15.932 48.7025 16.225 48.4095L22.7442 41.8904C23.3545 41.2806 23.3545 40.2913 22.7442 39.6809C22.1338 39.0706 21.1451 39.0706 20.5347 39.6809Z" fill="#04285B"/>
<path d="M29.5801 48.8452H36.9421C37.8052 48.8452 38.5046 48.1458 38.5046 47.2827C38.5046 46.4203 37.8052 45.7202 36.9421 45.7202H29.5801C28.717 45.7202 28.0176 46.4203 28.0176 47.2827C28.0176 48.1458 28.717 48.8452 29.5801 48.8452Z" fill="#04285B"/>
<path d="M20.5347 56.7219L15.1203 62.1364L13.4223 60.4377C12.8119 59.8274 11.8232 59.8274 11.2122 60.4377C10.6024 61.0481 10.6024 62.0375 11.2122 62.6472L14.0155 65.4506C14.3085 65.7435 14.7058 65.9083 15.1203 65.9083C15.5347 65.9083 15.932 65.7435 16.225 65.4506L22.7442 58.9314C23.3545 58.3217 23.3545 57.3323 22.7442 56.7219C22.1338 56.1116 21.1451 56.1116 20.5347 56.7219Z" fill="#04285B"/>
<path d="M41.8512 64.3237C41.8512 63.4607 41.1511 62.7612 40.2887 62.7612H29.5801C28.717 62.7612 28.0176 63.4607 28.0176 64.3237C28.0176 65.1868 28.717 65.8862 29.5801 65.8862H40.2887C41.1511 65.8862 41.8512 65.1868 41.8512 64.3237Z" fill="#04285B"/>
<path d="M29.5801 59.0332H43.6346C44.4977 59.0332 45.1971 58.3337 45.1971 57.4707C45.1971 56.6077 44.4977 55.9082 43.6346 55.9082H29.5801C28.717 55.9082 28.0176 56.6077 28.0176 57.4707C28.0176 58.3337 28.717 59.0332 29.5801 59.0332Z" fill="#04285B"/>
<path d="M20.5347 22.6497L15.1203 28.0641L13.4223 26.3655C12.8119 25.7557 11.8232 25.7557 11.2122 26.3655C10.6024 26.9758 10.6024 27.9652 11.2122 28.5756L14.0155 31.3783C14.3085 31.6713 14.7058 31.8361 15.1203 31.8361C15.5347 31.8361 15.932 31.6713 16.225 31.3783L22.7442 24.8591C23.3545 24.2494 23.3545 23.26 22.7442 22.6497C22.1338 22.0393 21.1451 22.0393 20.5347 22.6497Z" fill="#04285B"/>
<path d="M29.5801 31.814H36.6077C37.4701 31.814 38.1702 31.1145 38.1702 30.2515C38.1702 29.389 37.4701 28.689 36.6077 28.689H29.5801C28.717 28.689 28.0176 29.389 28.0176 30.2515C28.0176 31.1145 28.717 31.814 29.5801 31.814Z" fill="#04285B"/>
<path d="M24.9891 76.875C24.5765 76.875 24.1749 77.0422 23.8826 77.3328C23.592 77.6233 23.4248 78.0267 23.4248 78.4375C23.4248 78.8483 23.592 79.2517 23.8826 79.5422C24.1749 79.8328 24.5765 80 24.9891 80C25.3999 80 25.8015 79.8328 26.092 79.5422C26.3844 79.2517 26.5498 78.8483 26.5498 78.4375C26.5498 78.0267 26.3844 77.6233 26.092 77.3328C25.8015 77.0422 25.3999 76.875 24.9891 76.875Z" fill="#04285B"/>
<path d="M60.7404 24.4313L49.4904 27.9439C48.8379 28.1477 48.3936 28.7514 48.3936 29.435V39.4527C48.3936 47.0259 53.4924 53.7154 60.7922 55.7198C60.9277 55.757 61.0669 55.7753 61.2061 55.7753C61.3452 55.7753 61.4844 55.757 61.6199 55.7198C68.9197 53.7154 74.0186 47.0259 74.0186 39.4533V29.4356C74.0186 28.752 73.5742 28.1477 72.9218 27.9439L61.6718 24.4313C61.3684 24.3367 61.0437 24.3367 60.7404 24.4313ZM70.8936 30.5843V39.4527C70.8936 45.4787 66.9312 50.818 61.2061 52.5856C55.481 50.818 51.5186 45.4787 51.5186 39.4527V30.5843L61.2061 27.56L70.8936 30.5843Z" fill="#04285B"/>
<path d="M79.1718 23.3472L61.709 17.8955C61.5491 17.8412 61.38 17.8119 61.2073 17.8119C61.2067 17.8119 61.2054 17.8119 61.2048 17.8119C61.0327 17.8119 60.863 17.8412 60.7037 17.8949L59.0186 18.421V8.42773C59.0186 5.8429 56.9159 3.74023 54.3311 3.74023H42.951V1.5625C42.951 0.699463 42.251 0 41.3885 0H17.8986C17.0361 0 16.3361 0.699463 16.3361 1.5625V3.74023H4.95605C2.37122 3.74023 0.268555 5.8429 0.268555 8.42773V75.3125C0.268555 77.8973 2.37122 80 4.95605 80H17.9565C18.8196 80 19.519 79.3005 19.519 78.4375C19.519 77.5745 18.8196 76.875 17.9565 76.875H4.95605C4.09424 76.875 3.39355 76.1743 3.39355 75.3125V8.42773C3.39355 7.56653 4.09424 6.86523 4.95605 6.86523H16.3361V8.50281C16.3361 10.3619 17.8491 11.875 19.7089 11.875H39.5782C41.438 11.875 42.951 10.3619 42.951 8.50281V6.86523H54.3311C55.1929 6.86523 55.8936 7.56653 55.8936 8.42773V19.397L48.0811 21.8359H29.5801C28.717 21.8359 28.0176 22.5354 28.0176 23.3984C28.0176 24.2615 28.717 24.9609 29.5801 24.9609H42.1436V38.8672H29.5801C28.717 38.8672 28.0176 39.5667 28.0176 40.4297C28.0176 41.2927 28.717 41.9922 29.5801 41.9922H42.2833C43.1903 50.2124 48.4485 57.2833 55.8936 60.5878V67.0312H50.7373C48.1525 67.0312 46.0498 69.1339 46.0498 71.7188V76.875H32.0203C31.1572 76.875 30.4578 77.5745 30.4578 78.4375C30.4578 79.3005 31.1572 80 32.0203 80H47.6123C48.0267 80 48.4241 79.8352 48.717 79.5422L58.5608 69.6985C58.8538 69.4055 59.0186 69.0082 59.0186 68.5938V61.7126C59.6387 61.8866 60.2698 62.0367 60.9119 62.1594C61.0089 62.1783 61.1078 62.1875 61.2061 62.1875C61.3043 62.1875 61.4032 62.1783 61.5002 62.1594C72.3755 60.0757 80.2686 50.5261 80.2686 39.4531V24.8389C80.2686 24.1553 79.8242 23.551 79.1718 23.3472ZM39.826 8.50281C39.826 8.63892 39.715 8.75 39.5782 8.75H19.7089C19.5721 8.75 19.4611 8.63892 19.4611 8.50281V3.125H39.826V8.50281ZM50.7373 70.1562H53.6841L49.1748 74.6655V71.7188C49.1748 70.8569 49.8755 70.1562 50.7373 70.1562ZM77.1436 39.4531C77.1436 48.9294 70.4596 57.1155 61.2061 59.032C51.9525 57.1155 45.2686 48.9294 45.2686 39.4531V25.9882L57.7313 22.0972C57.8625 22.074 57.9871 22.0343 58.1049 21.9806L61.2061 21.012L77.1436 25.9875V39.4531Z" fill="#04285B"/>
<path d="M59.8059 44.7625C59.4061 44.7625 59.0063 44.6099 58.7012 44.3047L55.1013 40.7048C54.491 40.0945 54.491 39.1051 55.1013 38.4948C55.7117 37.885 56.7004 37.885 57.3108 38.4948L59.8059 40.9899L65.1013 35.6951C65.7117 35.0847 66.7004 35.0847 67.3114 35.6951C67.9211 36.3048 67.9211 37.2942 67.3114 37.9045L60.9113 44.3047C60.6055 44.6099 60.2063 44.7625 59.8059 44.7625Z" fill="#04285B"/>
</g>
<defs>
<clipPath id="clip0_329_1427">
<rect width="80" height="80" fill="white" transform="translate(0.268555)"/>
</clipPath>
</defs>
</svg>
