<svg width="81" height="74" viewBox="0 0 81 74" fill="none" xmlns="http://www.w3.org/2000/svg">
<path d="M77.3514 42.0714L67.0926 24.3027C66.6333 23.507 65.8888 22.9369 64.9965 22.6978C64.1041 22.4591 63.1745 22.5802 62.3786 23.0395L56.5333 26.4144C55.7375 26.8737 55.1677 27.6182 54.9286 28.5106C54.7445 29.1975 54.7761 29.9057 55.009 30.5586C49.9051 32.0034 45.4606 31.3372 42.5018 30.6857C37.9269 29.6788 35.7282 30.6867 32.6475 33.4781L24.5924 30.6006C24.8392 29.9361 24.8774 29.2122 24.6895 28.5106C24.4504 27.6184 23.8806 26.8739 23.0848 26.4144L17.2395 23.0395C16.4436 22.58 15.514 22.4589 14.6216 22.6978C13.7293 22.9369 12.9848 23.5068 12.5253 24.3027L2.26634 42.0714C1.31495 43.7194 1.88152 45.834 3.52952 46.7854L9.37486 50.1602C9.90393 50.4657 10.4921 50.6217 11.0893 50.6217C11.3902 50.6217 11.6935 50.5822 11.9926 50.5019C12.885 50.2628 13.6294 49.6929 14.0889 48.897L14.2719 48.5798L19.3285 54.8944L19.002 55.3587C17.5513 57.4211 18.3822 59.6188 19.9527 60.7237C20.6729 61.2306 21.5573 61.516 22.4427 61.4718C22.2326 62.2796 22.3016 63.1154 22.66 63.8885C23.2626 65.1882 24.5739 66.1105 26.0008 66.2386C26.5543 66.2885 27.0911 66.2131 27.5886 66.0243C27.7497 67.087 28.3895 68.0234 29.2522 68.6301C30.5078 69.5131 32.2605 69.7152 33.6544 68.7081C33.701 68.8551 33.7575 69.0005 33.8239 69.1438C34.4265 70.4433 35.7379 71.3658 37.1649 71.4937C37.2759 71.5038 37.3861 71.5086 37.4957 71.5086C38.7 71.5086 39.8021 70.9119 40.5575 69.8381L41.4984 68.5006L45.3827 70.7624C46.0643 71.1591 46.7398 71.3323 47.3761 71.3323C48.7739 71.3323 49.9822 70.4959 50.6463 69.3556C51.0868 68.5997 51.293 67.7012 51.1808 66.8273C52.8412 67.1258 54.3222 66.2172 55.0849 64.9078C55.5046 64.1872 55.7116 63.3374 55.6331 62.5027C56.5734 62.758 57.5366 62.6445 58.3845 62.1592C59.6279 61.4474 60.4345 60.0619 60.4398 58.6294C60.443 57.7619 60.1465 56.9604 59.5999 56.3076C60.4149 55.9735 61.0936 55.3507 61.5333 54.5948C62.3044 53.2692 62.3543 51.5072 61.2318 50.2046L65.1333 48.2123L65.5287 48.897C65.9882 49.6928 66.7326 50.2628 67.625 50.5019C67.9241 50.582 68.2273 50.6217 68.5283 50.6217C69.1255 50.6217 69.7137 50.4657 70.2427 50.1602L76.0882 46.7854C77.7361 45.834 78.3028 43.7194 77.3514 42.0714ZM12.658 48.0709C12.4192 48.4846 12.0311 48.781 11.5651 48.9059C11.0989 49.0307 10.6146 48.9679 10.2012 48.7293L4.35584 45.3545C3.49697 44.8586 3.20171 43.7564 3.69756 42.8975L13.9564 25.1289C14.1951 24.7153 14.5832 24.4187 15.0493 24.2938C15.2062 24.2518 15.3649 24.231 15.5224 24.231C15.8332 24.231 16.1389 24.312 16.4135 24.4704L22.2588 27.8452C22.6724 28.084 22.9688 28.4721 23.0937 28.9381C23.2185 29.404 23.1559 29.8885 22.9171 30.302L12.658 48.0709ZM20.9034 59.3726C20.0028 58.7389 19.4835 57.546 20.3532 56.3096L23.389 51.9938C24.2584 50.7577 25.5565 50.8428 26.4568 51.4756C27.3577 52.1086 27.8778 53.3009 27.0098 54.5368L25.6492 56.4713L23.9721 58.8558C23.1022 60.0922 21.8041 60.0059 20.9034 59.3726ZM26.1485 64.5929C25.3119 64.518 24.5124 63.9556 24.159 63.1935C23.9382 62.7173 23.8049 61.9654 24.4232 61.0864L25.3235 59.8063L27.0006 57.4219L29.5698 53.7695C30.4397 52.5327 31.7381 52.6182 32.6387 53.252C33.5396 53.8856 34.059 55.0786 33.1891 56.3152L32.5439 57.2324L28.3003 63.2654L28.0424 63.6321C27.4242 64.5112 26.6716 64.6409 26.1485 64.5929ZM33.2716 66.7612C32.4016 67.9976 31.1036 67.9122 30.2027 67.2787C29.3021 66.6452 28.7826 65.4527 29.6519 64.2161L33.8955 58.1831C34.7656 56.9478 36.0634 57.0339 36.9636 57.6676C37.8641 58.3012 38.3833 59.4942 37.5137 60.7305L35.7596 63.2243C35.7589 63.2251 35.7584 63.2261 35.7578 63.2269L34.3318 65.2541L33.2716 66.7612ZM39.2063 68.8872C38.588 69.766 37.8352 69.8956 37.3124 69.8478C36.4759 69.773 35.6763 69.2105 35.3229 68.4485C35.1021 67.9723 34.9686 67.2203 35.5871 66.3413L35.6814 66.2072L35.6834 66.2044L37.1094 64.1771C37.9795 62.9406 39.2775 63.0265 40.178 63.66C41.0788 64.2936 41.5983 65.4864 40.7286 66.7228L39.2063 68.8872ZM60.1054 53.764C59.552 54.7154 58.4093 55.3359 57.1028 54.577L51.7595 51.4658C51.3651 51.2365 50.8595 51.3698 50.6299 51.7642C50.4003 52.1585 50.5338 52.6643 50.9282 52.8939L56.2716 56.005C56.2717 56.0052 56.2721 56.0052 56.2722 56.0054C56.2724 56.0055 56.2722 56.0054 56.2724 56.0055L57.6687 56.8186C58.5975 57.3593 58.79 58.0985 58.788 58.6233C58.7849 59.4633 58.293 60.308 57.5642 60.7253C57.1086 60.9859 56.3707 61.1833 55.4423 60.6425L53.7161 59.6375C53.7148 59.6368 53.7135 59.636 53.7123 59.6351H53.7121L53.712 59.635L48.3161 56.4931C47.9218 56.2636 47.4159 56.3971 47.1866 56.7915C46.9569 57.1858 47.0904 57.6915 47.4848 57.9212L52.8802 61.0627C52.8802 61.0627 52.8804 61.0627 52.8804 61.0629C52.8804 61.0629 52.8805 61.0629 52.8805 61.0631L52.8815 61.0636C54.1865 61.8248 54.2116 63.1251 53.6576 64.0762C53.1034 65.0274 51.9597 65.6469 50.6529 64.8863L49.2777 64.0856C49.2764 64.0848 49.2751 64.084 49.2737 64.0833L49.2734 64.083C49.2731 64.0828 49.2728 64.0828 49.2726 64.0826L44.8725 61.5206C44.4781 61.2906 43.9725 61.4246 43.7428 61.8188C43.5132 62.2131 43.6467 62.7188 44.0411 62.9483L48.442 65.5109C48.442 65.511 48.4421 65.511 48.4423 65.5112L48.4449 65.5127C49.748 66.2741 49.7729 67.5736 49.2192 68.5242C48.665 69.4757 47.5212 70.095 46.2147 69.3346L42.4136 67.1212C43.3764 65.2293 42.56 63.3158 41.1289 62.3092C40.4926 61.8614 39.7287 61.5888 38.9484 61.5597C40.2834 59.5334 39.4545 57.3999 37.9152 56.3167C37.1474 55.7762 36.1932 55.4902 35.2492 55.5806C35.4861 54.0905 34.7343 52.7059 33.5901 51.9009C32.2466 50.9556 30.3336 50.7902 28.9004 52.0526C28.6203 51.273 28.082 50.5977 27.4077 50.1238C25.8374 49.0204 23.4885 48.9814 22.0382 51.043L20.3189 53.4874L15.1592 47.0441L23.8027 32.073L31.2974 34.7504C30.8678 35.1666 30.4179 35.6096 29.9387 36.0816C29.3414 36.6702 28.7236 37.2787 28.0348 37.9459C27.8837 38.0921 27.7942 38.2902 27.7843 38.5001L27.4343 45.8677C27.3596 47.4397 28.0255 48.1984 28.5972 48.5581C29.6547 49.223 31.2257 49.0565 33.0207 48.0872C34.5412 47.2665 35.4267 45.3748 36.2829 43.5454C36.4836 43.1163 36.6753 42.7068 36.868 42.3285C37.0287 42.2531 37.1892 42.177 37.3496 42.1008C39.4212 41.1173 41.2104 40.2682 42.9801 41.2897L59.327 50.7519C60.6325 51.5121 60.6587 52.8125 60.1054 53.764ZM59.7668 49.0974L43.8066 39.8589C41.2849 38.4031 38.8175 39.5744 36.6406 40.6078C36.4002 40.7219 36.1594 40.8363 35.9182 40.9476C35.7541 41.0233 35.6193 41.1507 35.5345 41.3102C35.2793 41.7908 35.0397 42.3029 34.7859 42.8446C34.0779 44.3572 33.2755 46.0716 32.2354 46.6332C30.807 47.4042 29.8568 47.3982 29.4766 47.1595C29.1154 46.9323 29.0638 46.3741 29.0841 45.9458L29.4186 38.9046C30.0192 38.3211 30.5664 37.7818 31.0978 37.2582C35.8082 32.6176 37.2295 31.2168 42.1464 32.2992C45.349 33.0044 50.199 33.7246 55.8015 32.0487L64.3062 46.7794L59.7668 49.0974ZM75.2623 45.3545L69.4167 48.7293C69.0032 48.9684 68.5187 49.0307 68.0528 48.9059C67.5868 48.781 67.1987 48.4844 66.9598 48.0709L56.701 30.302C56.4622 29.8885 56.3994 29.404 56.5244 28.9381C56.6491 28.4721 56.9457 28.084 57.3593 27.8452L63.2046 24.4704C63.4792 24.312 63.7847 24.231 64.0957 24.231C64.2532 24.231 64.4119 24.2518 64.5687 24.2938C65.0347 24.4187 65.4228 24.7153 65.6616 25.1289L75.9204 42.8975C76.4164 43.7564 76.1211 44.8586 75.2623 45.3545ZM47.6426 12.1544L52.2604 4.15624C52.4886 3.76134 52.9937 3.62552 53.389 3.85387C53.7842 4.08205 53.9195 4.58716 53.6913 4.98239L49.0735 12.9805C48.9205 13.2455 48.6427 13.3937 48.3572 13.3937C48.2171 13.3937 48.075 13.3579 47.945 13.2829C47.5499 13.0547 47.4146 12.5496 47.6426 12.1544ZM38.9827 10.2767V1.04099C38.9827 0.584628 39.3527 0.214844 39.8089 0.214844C40.2651 0.214844 40.635 0.584628 40.635 1.04099V10.2767C40.635 10.733 40.2651 11.1028 39.8089 11.1028C39.3527 11.1028 38.9827 10.733 38.9827 10.2767ZM54.2035 18.1104L62.2017 13.4927C62.5971 13.2649 63.1022 13.3999 63.3302 13.7951C63.5584 14.1903 63.423 14.6954 63.0278 14.9236L55.0297 19.5413C54.8995 19.6163 54.7576 19.6522 54.6173 19.6522C54.3318 19.6522 54.0542 19.5041 53.9012 19.2389C53.673 18.8437 53.8083 18.3386 54.2035 18.1104ZM16.2876 13.7951C16.5158 13.4 17.0209 13.2642 17.4161 13.4927L25.4142 18.1104C25.8093 18.3386 25.9448 18.8437 25.7166 19.2389C25.5636 19.5039 25.2858 19.6522 25.0003 19.6522C24.8602 19.6522 24.7181 19.6163 24.5881 19.5413L16.59 14.9236C16.1947 14.6954 16.0594 14.1902 16.2876 13.7951ZM25.9264 4.98239C25.6982 4.58716 25.8336 4.08205 26.2288 3.85387C26.6242 3.62601 27.1293 3.76101 27.3573 4.15624L31.975 12.1544C32.2032 12.5496 32.0679 13.0547 31.6726 13.2829C31.5424 13.3579 31.4005 13.3937 31.2604 13.3937C30.9747 13.3937 30.6971 13.2457 30.5441 12.9805L25.9264 4.98239Z" fill="#04285B"/>
</svg>
