<svg width="81" height="80" viewBox="0 0 81 80" fill="none" xmlns="http://www.w3.org/2000/svg">
<g clip-path="url(#clip0_329_1467)">
<path d="M50.6809 27.2948V28.9646C50.6809 29.6119 51.2054 30.1364 51.8527 30.1364C52.5001 30.1364 53.0245 29.6119 53.0245 28.9646V27.3114C56.0462 26.8731 57.6643 24.7066 57.6643 22.6537C57.6643 20.12 56.2579 18.5179 53.3648 17.7556C50.8978 17.1058 49.1749 15.9491 49.1749 14.9433C49.1749 13.8397 50.3766 12.6098 52.1012 12.6098C53.9184 12.6098 55.3666 14.0574 55.3922 14.0833C55.8416 14.5461 56.5806 14.5588 57.0456 14.111C57.5116 13.6621 57.5257 12.9203 57.0768 12.4542C57.0004 12.3748 55.3732 10.7134 53.0244 10.3411V8.69475C53.0244 8.04745 52.4999 7.52295 51.8526 7.52295C51.2053 7.52295 50.6808 8.04745 50.6808 8.69475V10.4479C48.4881 11.014 46.8312 12.8429 46.8312 14.9434C46.8312 17.1442 49.0504 19.0427 52.7675 20.0222C55.1233 20.6428 55.3205 21.6625 55.3205 22.6539C55.3205 23.6168 54.4059 25.0494 51.8865 25.0494C49.3906 25.0494 48.2522 23.3229 48.2109 23.2588C47.8714 22.7076 47.1498 22.5359 46.5989 22.875C46.0478 23.2142 45.8758 23.936 46.215 24.487C46.2798 24.5925 47.6775 26.803 50.6809 27.2948Z" fill="#04285B"/>
<path d="M51.8533 37.6565C53.5085 37.6565 55.1142 37.4409 56.6446 37.038C58.2026 37.4467 59.812 37.6565 61.4355 37.6565C71.8168 37.6565 80.2625 29.2108 80.2625 18.8296C80.2625 15.0132 79.1257 11.3374 76.9749 8.19914C76.6091 7.66558 75.8801 7.52918 75.3458 7.89509C74.812 8.26101 74.6758 8.99034 75.0417 9.52421C76.9239 12.2706 77.9189 15.4884 77.9189 18.8297C77.9189 27.9187 70.5245 35.3131 61.4355 35.3131C61.2785 35.3131 61.1215 35.3109 60.9648 35.3065C66.7247 32.1072 70.6803 25.9177 70.6803 18.8297C70.6803 11.9064 66.8746 5.63523 60.9646 2.35294C61.1213 2.34872 61.2784 2.34638 61.4355 2.34638C65.1319 2.34638 68.6252 3.5424 71.5377 5.80522C72.0488 6.20207 72.7848 6.10973 73.182 5.59883C73.579 5.08777 73.4865 4.35156 72.9756 3.95456C69.6478 1.36941 65.6573 0.00292969 61.4355 0.00292969C59.8125 0.00292969 58.2031 0.21276 56.6447 0.621641C55.1142 0.218541 53.5085 0.00292969 51.8533 0.00292969C41.4721 0.00292969 33.0264 8.44865 33.0264 18.8299C33.0264 29.2111 41.4719 37.6565 51.8533 37.6565ZM51.8533 2.34622C61.0124 2.34622 68.3367 9.82857 68.3367 18.8296C68.3367 27.8082 61.0438 35.3129 51.8533 35.3129C42.7644 35.3129 35.37 27.9185 35.37 18.8296C35.37 9.7406 42.7644 2.34622 51.8533 2.34622Z" fill="#04285B"/>
<path d="M79.81 48.0102C78.6088 45.5018 76.0083 44.6673 73.0224 45.8305L59.7561 49.7553C59.6208 48.3943 58.8827 46.8662 56.7914 46.0314C55.3685 45.4633 54.153 44.9735 53.1057 44.5514C47.7523 42.3937 46.6191 41.937 44.6033 41.9011C44.5865 41.9003 44.5694 41.8995 44.553 41.9001C37.7535 41.9229 36.3603 41.9778 32.7898 43.5761C30.9911 44.3809 29.2547 45.3688 27.6284 46.512C27.1979 46.8147 26.7456 47.08 26.2769 47.3079C25.4913 45.8436 23.7129 45.252 22.21 45.9414L17.804 47.9623L17.285 46.8306C16.6041 45.3455 14.8511 44.6943 13.3655 45.3757L1.99218 50.5921C0.510709 51.2717 -0.141907 53.0301 0.537426 54.5117L11.4355 78.2729C12.1167 79.7576 13.8694 80.409 15.3551 79.7276L26.7284 74.5112C28.2099 73.8316 28.8625 72.0732 28.1832 70.5918V70.5916L27.664 69.4598L32.0698 67.439C33.6419 66.718 34.3342 64.8523 33.6133 63.2802L33.3058 62.6098L36.1282 61.5383C39.0722 60.5843 42.0464 60.5508 44.2917 61.4469L49.8406 63.662C49.8578 63.6689 49.8754 63.6755 49.8931 63.6816C52.3275 64.5204 55.1837 64.482 57.669 63.2193L65.1168 59.9249C65.7087 59.6631 65.9761 58.9711 65.7144 58.3791C65.4523 57.7871 64.7604 57.5202 64.1686 57.7815L56.7063 61.0825C56.7014 61.0846 56.6942 61.0877 56.6895 61.0899C56.6697 61.0988 56.6502 61.108 56.6309 61.118C54.1188 62.4056 51.6525 61.8048 50.6824 61.4745L45.1606 59.2703C42.3665 58.1555 38.8916 58.1729 35.3757 59.3187C35.3581 59.3245 35.3402 59.3308 35.3229 59.3373L32.3267 60.4747L27.2636 49.4354C27.8587 49.1489 28.4316 48.8127 28.9764 48.4296C30.4802 47.3723 32.0855 46.4594 33.7475 45.7155C36.8542 44.325 37.8349 44.2669 44.5347 44.2442H44.5389C46.1369 44.2695 47.0672 44.6445 52.23 46.7253C53.2794 47.1482 54.4972 47.6391 55.923 48.2083C56.7814 48.5508 57.2611 49.0756 57.39 49.8121C57.4985 50.4343 57.3259 50.991 57.3259 50.991L57.3262 50.9908C56.9756 52.0156 56.2871 52.3631 55.3835 52.1425C52.8323 51.5173 46.7544 50.0538 46.6933 50.039C46.0636 49.8874 45.4313 50.2749 45.2796 50.9039C45.1281 51.5331 45.5154 52.166 46.1446 52.3176C46.2057 52.3323 52.279 53.7947 54.8259 54.4186C55.1995 54.5101 55.5521 54.5518 55.884 54.5518C57.6045 54.5518 58.7596 53.4314 59.3075 52.3323C74.2783 47.9032 73.7296 48.0701 73.8689 48.0163C75.1504 47.516 76.8514 47.2826 77.6882 49.0058C78.5736 51.0517 76.5274 52.274 76.0319 52.534C75.5651 52.7404 72.6234 54.0416 69.1694 55.5694C68.5775 55.8313 68.3101 56.5233 68.5718 57.1153C68.8339 57.7071 69.5258 57.9741 70.1176 57.7129C70.1631 57.6927 77.0292 54.6565 77.0736 54.6339C78.7861 53.7558 81.293 51.38 79.8259 48.0449C79.8207 48.033 79.8153 48.0216 79.81 48.0102ZM25.7512 72.3809L14.3778 77.5973C14.0702 77.7387 13.7068 77.6037 13.5657 77.2957L2.66761 53.5347C2.52683 53.2275 2.66214 52.8632 2.96915 52.7224L14.3425 47.506C14.6498 47.3648 15.0134 47.4995 15.1545 47.8076C15.4281 48.4041 25.7407 70.8885 26.0527 71.5687C26.1935 71.8756 26.0582 72.24 25.7512 72.3809ZM31.4828 64.2573C31.6655 64.6553 31.4917 65.1256 31.0925 65.3087L26.6869 67.3293C26.4927 66.9059 19.0047 50.5802 18.7811 50.0924L23.1871 48.0716C23.5833 47.8901 24.0545 48.061 24.2384 48.4619L31.4828 64.2573Z" fill="#04285B"/>
</g>
<defs>
<clipPath id="clip0_329_1467">
<rect width="80" height="80" fill="white" transform="translate(0.268555)"/>
</clipPath>
</defs>
</svg>
