<svg width="203" height="59" viewBox="0 0 203 59" fill="none" xmlns="http://www.w3.org/2000/svg">
<path d="M201.872 52.1958C201.872 55.34 199.288 57.8869 196.092 57.8869H6.91602C3.7211 57.8869 1.12778 55.34 1.12778 52.1958V6.81174C1.12778 3.66904 3.7211 1.11328 6.91602 1.11328H196.09C199.288 1.11328 201.871 3.66904 201.871 6.81174L201.872 52.1958Z" fill="black"/>
<path d="M195.481 1.18185C198.963 1.18185 201.795 3.96038 201.795 7.375V51.625C201.795 55.0396 198.963 57.8182 195.481 57.8182H7.51852C4.03744 57.8182 1.20484 55.0396 1.20484 51.625V7.375C1.20484 3.96038 4.03744 1.18185 7.51852 1.18185H195.481ZM195.481 3.8147e-06H7.51852C3.38521 3.8147e-06 0 3.3206 0 7.375V51.625C0 55.6794 3.38521 59 7.51852 59H195.481C199.615 59 203 55.6794 203 51.625V7.375C203 3.3206 199.615 3.8147e-06 195.481 3.8147e-06Z" fill="#A6A6A6"/>
<path d="M45.3036 29.1812C45.26 24.4273 49.2719 22.1145 49.4553 22.0068C47.1832 18.7574 43.6615 18.3134 42.424 18.278C39.4662 17.9727 36.5971 20.0141 35.0904 20.0141C33.5536 20.0141 31.2334 18.3075 28.7328 18.3577C25.5148 18.4064 22.5044 20.2339 20.8534 23.0718C17.446 28.8582 19.9872 37.3616 23.2518 42.0388C24.8848 44.3295 26.793 46.8871 29.2906 46.7972C31.7342 46.6983 32.6469 45.2691 35.5957 45.2691C38.5174 45.2691 39.3745 46.7972 41.9218 46.7396C44.5442 46.6983 46.1953 44.4386 47.7712 42.1273C49.6583 39.5018 50.4162 36.9161 50.4463 36.7834C50.3846 36.7627 45.3532 34.8792 45.3036 29.1812Z" fill="white"/>
<path d="M40.4917 15.2012C41.806 13.589 42.7052 11.3957 42.4556 9.16992C40.5534 9.25252 38.1745 10.4605 36.8047 12.0373C35.5927 13.4268 34.51 15.7042 34.7897 17.8459C36.9265 18.0022 39.1204 16.7883 40.4917 15.2012Z" fill="white"/>
<path d="M73.7567 14.7631C73.7567 16.4992 73.2259 17.806 72.1658 18.6836C71.1839 19.4934 69.7884 19.899 67.981 19.899C67.0848 19.899 66.3179 19.8607 65.6758 19.784V10.2983C66.5133 10.1655 67.4156 10.0977 68.39 10.0977C70.1117 10.0977 71.4094 10.4649 72.2846 11.1995C73.265 12.0299 73.7567 13.2173 73.7567 14.7631ZM72.0951 14.8059C72.0951 13.6804 71.7914 12.8176 71.1839 12.2158C70.5764 11.6154 69.6892 11.3145 68.5208 11.3145C68.0246 11.3145 67.602 11.347 67.2517 11.4148V18.6261C67.4456 18.6556 67.8005 18.6689 68.3163 18.6689C69.5223 18.6689 70.4531 18.34 71.1087 17.6821C71.7643 17.0243 72.0951 16.0655 72.0951 14.8059Z" fill="white"/>
<path d="M82.5669 16.2794C82.5669 17.3488 82.2556 18.2249 81.6331 18.9123C80.9805 19.6188 80.1158 19.9713 79.0362 19.9713C77.9956 19.9713 77.1671 19.6335 76.5491 18.955C75.9325 18.278 75.6243 17.424 75.6243 16.3944C75.6243 15.3177 75.9416 14.4342 76.5791 13.7483C77.2167 13.0624 78.0738 12.7188 79.1535 12.7188C80.194 12.7188 81.0301 13.0565 81.6632 13.7335C82.2646 14.3914 82.5669 15.241 82.5669 16.2794ZM80.9324 16.3295C80.9324 15.6879 80.791 15.1377 80.5098 14.679C80.179 14.1244 79.7083 13.8471 79.0963 13.8471C78.4633 13.8471 77.9821 14.1244 77.6513 14.679C77.3686 15.1377 77.2287 15.6968 77.2287 16.3576C77.2287 16.9992 77.3701 17.5494 77.6513 18.0081C77.9926 18.5627 78.4678 18.84 79.0813 18.84C79.6828 18.84 80.1549 18.5583 80.4948 17.9933C80.7865 17.5258 80.9324 16.9712 80.9324 16.3295Z" fill="white"/>
<path d="M94.38 12.8604L92.162 19.8135H90.7185L89.7997 16.7942C89.5666 16.0405 89.3772 15.2912 89.2298 14.5478H89.2012C89.0644 15.3118 88.8749 16.0596 88.6313 16.7942L87.6554 19.8135H86.1953L84.1097 12.8604H85.7292L86.5306 16.1658C86.7246 16.9476 86.884 17.6925 87.0118 18.3975H87.0404C87.1577 17.8164 87.3517 17.0759 87.6253 16.1806L88.6313 12.8618H89.9155L90.8794 16.1098C91.1124 16.9019 91.3019 17.6644 91.4478 18.399H91.4914C91.5981 17.6836 91.759 16.921 91.9725 16.1098L92.8327 12.8618H94.38V12.8604Z" fill="white"/>
<path d="M102.55 19.8135H100.974V15.831C100.974 14.6038 100.499 13.9902 99.5452 13.9902C99.0775 13.9902 98.7001 14.1584 98.4069 14.4962C98.1167 14.8339 97.9693 15.2322 97.9693 15.688V19.8121H96.3934V14.8472C96.3934 14.2366 96.3739 13.5743 96.3363 12.8574H97.7212L97.7949 13.9445H97.8385C98.022 13.6067 98.2956 13.328 98.655 13.1052C99.0821 12.8456 99.5602 12.7144 100.084 12.7144C100.745 12.7144 101.296 12.9238 101.733 13.3442C102.277 13.859 102.55 14.6274 102.55 15.6481V19.8135V19.8135Z" fill="white"/>
<path d="M106.895 19.8135H105.321V9.66992H106.895V19.8135Z" fill="white"/>
<path d="M116.173 16.2794C116.173 17.3488 115.862 18.2249 115.239 18.9123C114.587 19.6188 113.721 19.9713 112.642 19.9713C111.6 19.9713 110.772 19.6335 110.155 18.955C109.539 18.278 109.231 17.424 109.231 16.3944C109.231 15.3177 109.548 14.4342 110.185 13.7483C110.823 13.0624 111.68 12.7188 112.758 12.7188C113.8 12.7188 114.635 13.0565 115.269 13.7335C115.871 14.3914 116.173 15.241 116.173 16.2794ZM114.537 16.3295C114.537 15.6879 114.396 15.1377 114.115 14.679C113.785 14.1244 113.313 13.8471 112.703 13.8471C112.068 13.8471 111.587 14.1244 111.258 14.679C110.975 15.1377 110.835 15.6968 110.835 16.3576C110.835 16.9992 110.976 17.5494 111.258 18.0081C111.599 18.5627 112.074 18.84 112.688 18.84C113.289 18.84 113.76 18.5583 114.1 17.9933C114.393 17.5258 114.537 16.9712 114.537 16.3295Z" fill="white"/>
<path d="M123.8 19.8135H122.385L122.268 19.0126H122.224C121.74 19.6512 121.05 19.9713 120.153 19.9713C119.484 19.9713 118.943 19.7604 118.535 19.3415C118.166 18.9609 117.981 18.4875 117.981 17.9255C117.981 17.0759 118.342 16.4284 119.068 15.98C119.793 15.5316 120.812 15.3118 122.125 15.3221V15.1923C122.125 14.2763 121.635 13.8191 120.653 13.8191C119.953 13.8191 119.337 13.9917 118.805 14.3339L118.484 13.3191C119.143 12.9193 119.956 12.7188 120.916 12.7188C122.768 12.7188 123.698 13.6775 123.698 15.595V18.1556C123.698 18.8503 123.732 19.4034 123.8 19.8135ZM122.164 17.424V16.3517C120.426 16.3222 119.557 16.7897 119.557 17.7529C119.557 18.1158 119.656 18.3872 119.859 18.5686C120.062 18.75 120.32 18.84 120.629 18.84C120.974 18.84 121.298 18.7323 121.593 18.5184C121.889 18.3031 122.071 18.0302 122.138 17.6954C122.155 17.6202 122.164 17.5287 122.164 17.424Z" fill="white"/>
<path d="M132.755 19.8135H131.356L131.282 18.6969H131.239C130.792 19.5465 130.031 19.9713 128.962 19.9713C128.108 19.9713 127.397 19.6424 126.833 18.9845C126.269 18.3267 125.988 17.4727 125.988 16.4239C125.988 15.2985 126.293 14.387 126.907 13.6908C127.501 13.0418 128.228 12.7173 129.094 12.7173C130.046 12.7173 130.712 13.0314 131.091 13.6613H131.121V9.66992H132.699V17.9402C132.699 18.6173 132.717 19.2412 132.755 19.8135ZM131.121 16.8812V15.7218C131.121 15.5212 131.106 15.359 131.078 15.2351C130.989 14.8634 130.798 14.5507 130.508 14.2985C130.215 14.0462 129.861 13.9194 129.454 13.9194C128.866 13.9194 128.406 14.148 128.067 14.6067C127.732 15.0655 127.562 15.651 127.562 16.3664C127.562 17.0538 127.723 17.6113 128.046 18.0405C128.388 18.4978 128.848 18.7264 129.424 18.7264C129.941 18.7264 130.355 18.5361 130.669 18.1541C130.973 17.8016 131.121 17.3768 131.121 16.8812Z" fill="white"/>
<path d="M146.232 16.2794C146.232 17.3488 145.921 18.2249 145.298 18.9123C144.646 19.6188 143.783 19.9713 142.702 19.9713C141.662 19.9713 140.834 19.6335 140.214 18.955C139.598 18.278 139.29 17.424 139.29 16.3944C139.29 15.3177 139.607 14.4342 140.244 13.7483C140.882 13.0624 141.739 12.7188 142.82 12.7188C143.859 12.7188 144.697 13.0565 145.328 13.7335C145.93 14.3914 146.232 15.241 146.232 16.2794ZM144.599 16.3295C144.599 15.6879 144.458 15.1377 144.177 14.679C143.844 14.1244 143.375 13.8471 142.762 13.8471C142.13 13.8471 141.649 14.1244 141.317 14.679C141.034 15.1377 140.894 15.6968 140.894 16.3576C140.894 16.9992 141.035 17.5494 141.317 18.0081C141.658 18.5627 142.133 18.84 142.747 18.84C143.348 18.84 143.822 18.5583 144.162 17.9933C144.452 17.5258 144.599 16.9712 144.599 16.3295Z" fill="white"/>
<path d="M154.706 19.8135H153.131V15.831C153.131 14.6038 152.656 13.9902 151.701 13.9902C151.234 13.9902 150.856 14.1584 150.564 14.4962C150.273 14.8339 150.127 15.2322 150.127 15.688V19.8121H148.549V14.8472C148.549 14.2366 148.531 13.5743 148.494 12.8574H149.877L149.951 13.9445H149.994C150.179 13.6067 150.453 13.328 150.811 13.1052C151.24 12.8456 151.716 12.7144 152.241 12.7144C152.901 12.7144 153.451 12.9238 153.889 13.3442C154.435 13.859 154.706 14.6274 154.706 15.6481V19.8135V19.8135Z" fill="white"/>
<path d="M165.311 14.0184H163.576V17.3962C163.576 18.2546 163.884 18.6839 164.495 18.6839C164.777 18.6839 165.012 18.6603 165.197 18.6116L165.238 19.7842C164.926 19.8993 164.517 19.9568 164.014 19.9568C163.391 19.9568 162.907 19.7709 162.556 19.3992C162.205 19.0275 162.03 18.4021 162.03 17.5245V14.0184H160.994V12.8606H162.03V11.5862L163.574 11.1289V12.8591H165.31V14.0184H165.311Z" fill="white"/>
<path d="M173.654 19.8135H172.076V15.8605C172.076 14.6141 171.601 13.9902 170.649 13.9902C169.919 13.9902 169.419 14.3516 169.146 15.0743C169.099 15.2262 169.072 15.4121 169.072 15.6304V19.812H167.498V9.66992H169.072V13.8604H169.102C169.598 13.0978 170.31 12.7173 171.231 12.7173C171.884 12.7173 172.424 12.9267 172.852 13.3471C173.386 13.8707 173.654 14.6495 173.654 15.6791V19.8135V19.8135Z" fill="white"/>
<path d="M182.259 16.0081C182.259 16.2854 182.238 16.5184 182.201 16.7087H177.475C177.496 17.3961 177.721 17.9197 178.159 18.2825C178.559 18.607 179.075 18.7693 179.706 18.7693C180.405 18.7693 181.043 18.6601 181.617 18.4404L181.864 19.5142C181.192 19.8003 180.401 19.9434 179.485 19.9434C178.387 19.9434 177.523 19.6263 176.897 18.992C176.269 18.3578 175.957 17.5067 175.957 16.4388C175.957 15.3901 176.248 14.5169 176.833 13.8207C177.443 13.0773 178.269 12.7056 179.311 12.7056C180.33 12.7056 181.105 13.0773 181.628 13.8207C182.05 14.4107 182.259 15.1408 182.259 16.0081ZM180.756 15.6084C180.768 15.1496 180.664 14.7543 180.45 14.421C180.177 13.9918 179.76 13.7764 179.196 13.7764C178.682 13.7764 178.263 13.9859 177.942 14.4062C177.681 14.7411 177.526 15.1408 177.475 15.6084H180.756Z" fill="white"/>
<path d="M80.6662 46.4682H77.2513L75.3807 40.7024H68.8786L67.0968 46.4682H63.7721L70.2139 26.8389H74.1927L80.6662 46.4682ZM74.8168 38.2834L73.1251 33.1578C72.9462 32.6341 72.6108 31.401 72.1161 29.4599H72.056C71.859 30.2948 71.5417 31.5279 71.1056 33.1578L69.444 38.2834H74.8168V38.2834Z" fill="white"/>
<path d="M97.2325 39.217C97.2325 41.6242 96.5693 43.527 95.2431 44.9238C94.0551 46.1672 92.58 46.7882 90.8192 46.7882C88.9185 46.7882 87.5531 46.1185 86.7216 44.7792H86.6614V52.2354H83.4555V36.9735C83.4555 35.4602 83.4149 33.907 83.3367 32.314H86.1562L86.3351 34.5575H86.3953C87.4644 32.8671 89.0869 32.0234 91.2643 32.0234C92.9665 32.0234 94.3875 32.6828 95.5243 34.0029C96.6641 35.3245 97.2325 37.062 97.2325 39.217ZM93.9664 39.3321C93.9664 37.9544 93.6507 36.8187 93.0161 35.9248C92.3229 34.9926 91.3921 34.5265 90.2252 34.5265C89.4343 34.5265 88.7155 34.7861 88.0734 35.2979C87.4298 35.8142 87.0088 36.4883 86.8118 37.3231C86.7126 37.7125 86.6629 38.0311 86.6629 38.2819V40.6419C86.6629 41.6714 86.9847 42.5402 87.6283 43.2497C88.2719 43.9591 89.108 44.3131 90.1365 44.3131C91.344 44.3131 92.2838 43.8559 92.9559 42.9443C93.6296 42.0313 93.9664 40.8277 93.9664 39.3321Z" fill="white"/>
<path d="M113.829 39.217C113.829 41.6242 113.166 43.527 111.838 44.9238C110.652 46.1672 109.176 46.7882 107.416 46.7882C105.515 46.7882 104.15 46.1185 103.319 44.7792H103.259V52.2354H100.053V36.9735C100.053 35.4602 100.013 33.907 99.9346 32.314H102.754L102.933 34.5575H102.993C104.061 32.8671 105.683 32.0234 107.862 32.0234C109.563 32.0234 110.984 32.6828 112.124 34.0029C113.259 35.3245 113.829 37.062 113.829 39.217ZM110.563 39.3321C110.563 37.9544 110.246 36.8187 109.611 35.9248C108.918 34.9926 107.99 34.5265 106.822 34.5265C106.029 34.5265 105.312 34.7861 104.668 35.2979C104.025 35.8142 103.605 36.4883 103.408 37.3231C103.31 37.7125 103.259 38.0311 103.259 38.2819V40.6419C103.259 41.6714 103.581 42.5402 104.222 43.2497C104.865 43.9577 105.701 44.3131 106.733 44.3131C107.94 44.3131 108.88 43.8559 109.552 42.9443C110.226 42.0313 110.563 40.8277 110.563 39.3321Z" fill="white"/>
<path d="M132.385 40.9635C132.385 42.6332 131.794 43.9917 130.607 45.0404C129.303 46.1865 127.489 46.7588 125.156 46.7588C123.003 46.7588 121.277 46.3517 119.97 45.536L120.713 42.9149C122.12 43.7498 123.665 44.1687 125.347 44.1687C126.555 44.1687 127.495 43.9002 128.17 43.3663C128.842 42.8323 129.177 42.1155 129.177 41.2216C129.177 40.4251 128.9 39.754 128.346 39.2097C127.794 38.6654 126.872 38.1595 125.585 37.6919C122.081 36.4102 120.331 34.5325 120.331 32.0633C120.331 30.4497 120.944 29.1266 122.173 28.0971C123.397 27.066 125.03 26.5513 127.072 26.5513C128.893 26.5513 130.406 26.8625 131.613 27.4835L130.812 30.047C129.684 29.4452 128.409 29.1443 126.982 29.1443C125.854 29.1443 124.973 29.4172 124.341 29.96C123.807 30.4453 123.54 31.0367 123.54 31.7374C123.54 32.5132 123.845 33.1548 124.459 33.6593C124.992 34.1254 125.962 34.6298 127.37 35.1741C129.091 35.8541 130.356 36.6491 131.17 37.5607C131.98 38.4693 132.385 39.6065 132.385 40.9635Z" fill="white"/>
<path d="M142.984 34.6738H139.45V41.5459C139.45 43.2937 140.073 44.1669 141.321 44.1669C141.894 44.1669 142.369 44.1183 142.745 44.0209L142.834 46.4089C142.202 46.6405 141.371 46.757 140.341 46.757C139.075 46.757 138.085 46.378 137.371 45.6213C136.66 44.8631 136.302 43.5917 136.302 41.8055V34.6709H134.197V32.3109H136.302V29.7193L139.45 28.7871V32.3109H142.984V34.6738Z" fill="white"/>
<path d="M158.928 39.2745C158.928 41.4502 158.293 43.2364 157.027 44.6332C155.699 46.0713 153.937 46.7882 151.74 46.7882C149.623 46.7882 147.937 46.0994 146.68 44.7217C145.423 43.3441 144.795 41.605 144.795 39.5091C144.795 37.3157 145.441 35.5192 146.739 34.1224C148.034 32.7241 149.781 32.0249 151.978 32.0249C154.095 32.0249 155.799 32.7137 157.084 34.0929C158.314 35.4307 158.928 37.1579 158.928 39.2745ZM155.602 39.3763C155.602 38.0709 155.318 36.9514 154.742 36.0177C154.069 34.8879 153.109 34.3244 151.864 34.3244C150.575 34.3244 149.596 34.8894 148.924 36.0177C148.348 36.9529 148.064 38.0901 148.064 39.4353C148.064 40.7407 148.348 41.8602 148.924 42.7924C149.617 43.9223 150.585 44.4857 151.835 44.4857C153.059 44.4857 154.02 43.9105 154.713 42.7629C155.304 41.8115 155.602 40.6802 155.602 39.3763Z" fill="white"/>
<path d="M169.349 35.0796C169.031 35.0221 168.693 34.9926 168.338 34.9926C167.21 34.9926 166.338 35.41 165.725 36.2464C165.191 36.9839 164.923 37.9161 164.923 39.0415V46.4681H161.719L161.749 36.7715C161.749 35.1401 161.708 33.6548 161.629 32.3155H164.421L164.538 35.0236H164.627C164.965 34.0929 165.499 33.3436 166.23 32.7816C166.944 32.2757 167.716 32.0234 168.547 32.0234C168.843 32.0234 169.111 32.0441 169.349 32.081V35.0796Z" fill="white"/>
<path d="M183.686 38.7216C183.686 39.285 183.649 39.76 183.569 40.1479H173.951C173.989 41.5462 174.454 42.6156 175.347 43.3531C176.157 44.0124 177.205 44.3428 178.493 44.3428C179.917 44.3428 181.216 44.1201 182.384 43.6732L182.886 45.8562C181.521 46.4403 179.909 46.7308 178.049 46.7308C175.812 46.7308 174.055 46.0848 172.777 44.7942C171.502 43.5035 170.863 41.7704 170.863 39.5963C170.863 37.4619 171.457 35.6846 172.646 34.2671C173.891 32.7537 175.574 31.9971 177.691 31.9971C179.771 31.9971 181.345 32.7537 182.414 34.2671C183.261 35.4692 183.686 36.956 183.686 38.7216ZM180.629 37.9059C180.65 36.9737 180.441 36.1684 180.007 35.4884C179.452 34.6137 178.599 34.1771 177.452 34.1771C176.404 34.1771 175.551 34.6034 174.9 35.4589C174.366 36.1389 174.049 36.9545 173.951 37.9044H180.629V37.9059Z" fill="white"/>
</svg>
