<svg width="17" height="16" viewBox="0 0 17 16" fill="none" xmlns="http://www.w3.org/2000/svg">
<path d="M8.01465 16C10.1364 16 12.1712 15.1571 13.6715 13.6569C15.1718 12.1566 16.0146 10.1217 16.0146 8C16.0146 5.87827 15.1718 3.84344 13.6715 2.34315C12.1712 0.842855 10.1364 0 8.01465 0C5.89292 0 3.85809 0.842855 2.35779 2.34315C0.857503 3.84344 0.0146484 5.87827 0.0146484 8C0.0146484 10.1217 0.857503 12.1566 2.35779 13.6569C3.85809 15.1571 5.89292 16 8.01465 16ZM11.7216 6.707L7.71865 10.707C7.62578 10.8 7.51549 10.8737 7.39409 10.9241C7.27269 10.9744 7.14256 11.0003 7.01115 11.0003C6.87973 11.0003 6.74961 10.9744 6.62821 10.9241C6.50681 10.8737 6.39652 10.8 6.30365 10.707L4.30665 8.707C4.11914 8.51923 4.0139 8.26466 4.01409 7.99929C4.01428 7.73393 4.11988 7.47951 4.30765 7.292C4.49542 7.10449 4.74999 6.99926 5.01536 6.99944C5.28072 6.99963 5.53514 7.10523 5.72265 7.293L7.01265 8.586L10.3076 5.293C10.4963 5.11084 10.7489 5.01005 11.011 5.01233C11.2732 5.0146 11.5241 5.11977 11.7095 5.30518C11.8949 5.49059 12 5.7414 12.0023 6.0036C12.0046 6.2658 11.9038 6.5184 11.7216 6.707Z" fill="#04BD00"/>
</svg>
