<svg width="26" height="22" viewBox="0 0 26 22" fill="none" xmlns="http://www.w3.org/2000/svg">
<path d="M23.4619 17.5544C23.9688 17.5546 24.4561 17.7379 24.823 18.0663C25.1898 18.3947 25.408 18.843 25.4324 19.3183C25.4567 19.7936 25.2854 20.2595 24.9538 20.6194C24.6222 20.9793 24.1559 21.2057 23.6514 21.2516L23.4619 21.2603H6.40929C5.90243 21.26 5.41509 21.0767 5.04826 20.7483C4.68143 20.42 4.46322 19.9717 4.43887 19.4964C4.41451 19.0211 4.58586 18.5552 4.91742 18.1952C5.24897 17.8353 5.71532 17.6089 6.21982 17.563L6.40929 17.5544H23.4619ZM23.4619 8.90731C23.9854 8.90731 24.4874 9.10253 24.8575 9.45003C25.2277 9.79752 25.4356 10.2688 25.4356 10.7603C25.4356 11.2517 25.2277 11.723 24.8575 12.0705C24.4874 12.418 23.9854 12.6132 23.4619 12.6132H2.40929C1.88584 12.6132 1.38382 12.418 1.01369 12.0705C0.643549 11.723 0.435608 11.2517 0.435608 10.7603C0.435608 10.2688 0.643549 9.79752 1.01369 9.45003C1.38382 9.10253 1.88584 8.90731 2.40929 8.90731H23.4619ZM23.4619 0.260254C23.9854 0.260254 24.4874 0.455474 24.8575 0.802968C25.2277 1.15046 25.4356 1.62176 25.4356 2.1132C25.4356 2.60463 25.2277 3.07593 24.8575 3.42342C24.4874 3.77092 23.9854 3.96614 23.4619 3.96614H10.4093C9.88584 3.96614 9.38382 3.77092 9.01369 3.42342C8.64355 3.07593 8.43561 2.60463 8.43561 2.1132C8.43561 1.62176 8.64355 1.15046 9.01369 0.802968C9.38382 0.455474 9.88584 0.260254 10.4093 0.260254H23.4619Z" fill="white"/>
</svg>
