<svg width="14" height="14" viewBox="0 0 14 14" fill="none" xmlns="http://www.w3.org/2000/svg">
<path d="M0.886643 11.4695C0.496119 11.8601 0.496119 12.4932 0.886643 12.8837C1.27717 13.2743 1.91033 13.2743 2.30086 12.8837L0.886643 11.4695ZM13.5938 1.17664C13.5938 0.624351 13.146 0.176636 12.5938 0.176636H3.59375C3.04147 0.176636 2.59375 0.624351 2.59375 1.17664C2.59375 1.72892 3.04147 2.17664 3.59375 2.17664H11.5938V10.1766C11.5938 10.7289 12.0415 11.1766 12.5938 11.1766C13.146 11.1766 13.5938 10.7289 13.5938 10.1766V1.17664ZM2.30086 12.8837L13.3009 1.88374L11.8866 0.469529L0.886643 11.4695L2.30086 12.8837Z" fill="#04285B"/>
</svg>
