<svg width="15" height="14" viewBox="0 0 15 14" fill="none" xmlns="http://www.w3.org/2000/svg">
<path d="M13.1325 13.25H6.19438C6.12866 13.25 6.06563 13.2237 6.01916 13.1768C5.97269 13.1299 5.94658 13.0663 5.94658 13C5.94658 12.9337 5.97269 12.8701 6.01916 12.8232C6.06563 12.7763 6.12866 12.75 6.19438 12.75H13.1325C13.4611 12.75 13.7763 12.6183 14.0086 12.3839C14.241 12.1495 14.3715 11.8315 14.3715 11.5V11.1625C14.1626 11.4238 13.8984 11.6346 13.5983 11.7796C13.2981 11.9245 12.9697 11.9998 12.6369 12H6.93775C6.87203 12 6.809 11.9737 6.76253 11.9268C6.71606 11.8799 6.68996 11.8163 6.68996 11.75C6.68996 11.6837 6.71606 11.6201 6.76253 11.5732C6.809 11.5263 6.87203 11.5 6.93775 11.5H11.5714L11.9208 11.265C11.9889 11.2192 12.0447 11.1571 12.0831 11.0842C12.1216 11.0114 12.1416 10.93 12.1414 10.8475V10.25C12.1414 9.98478 12.2458 9.73043 12.4317 9.54289C12.6175 9.35536 12.8697 9.25 13.1325 9.25H13.8164C13.9477 9.24944 14.0733 9.1964 14.1658 9.1025L14.3715 8.8975V4.25H12.186C12.1202 4.25 12.0572 4.22366 12.0108 4.17678C11.9643 4.12989 11.9382 4.0663 11.9382 4C11.9382 3.9337 11.9643 3.87011 12.0108 3.82322C12.0572 3.77634 12.1202 3.75 12.186 3.75H14.3715V2.75C14.3715 2.55109 14.2932 2.36032 14.1538 2.21967C14.0143 2.07902 13.8253 2 13.6281 2H12.3892C12.3234 2 12.2604 1.97366 12.2139 1.92678C12.1675 1.87989 12.1414 1.8163 12.1414 1.75C12.1414 1.6837 12.1675 1.62011 12.2139 1.57322C12.2604 1.52634 12.3234 1.5 12.3892 1.5H13.6281C13.9567 1.5 14.2718 1.6317 14.5042 1.86612C14.7365 2.10054 14.8671 2.41848 14.8671 2.75V11.5C14.8671 11.9641 14.6843 12.4092 14.359 12.7374C14.0337 13.0656 13.5926 13.25 13.1325 13.25ZM12.3892 11.5H12.6369C13.097 11.5 13.5382 11.3156 13.8635 10.9874C14.1887 10.6592 14.3715 10.2141 14.3715 9.75V9.5775C14.2077 9.68963 14.0144 9.74971 13.8164 9.75H13.1325C13.0011 9.75 12.875 9.80268 12.7821 9.89645C12.6892 9.99021 12.6369 10.1174 12.6369 10.25V10.8475C12.6348 11.088 12.5468 11.3196 12.3892 11.5ZM3.56283 13.1875C3.05391 13.188 2.55629 13.0362 2.13293 12.7512C1.70958 12.4663 1.37953 12.061 1.18454 11.5867C0.989563 11.1124 0.938418 10.5905 1.03758 10.0869C1.13675 9.58324 1.38177 9.12063 1.74163 8.75756C2.10149 8.39449 2.56001 8.14729 3.05918 8.04724C3.55834 7.94719 4.0757 7.99879 4.54579 8.19551C5.01588 8.39223 5.41755 8.72523 5.69999 9.15236C5.98242 9.57948 6.13292 10.0815 6.13243 10.595C6.13177 11.2824 5.86084 11.9414 5.37909 12.4274C4.89734 12.9135 4.24413 13.1868 3.56283 13.1875ZM3.56283 8.5C3.15204 8.49951 2.75032 8.62195 2.40852 8.85186C2.06672 9.08176 1.80018 9.40878 1.64264 9.79154C1.48509 10.1743 1.44362 10.5956 1.52346 11.0022C1.6033 11.4087 1.80087 11.7823 2.09118 12.0755C2.38148 12.3687 2.75147 12.5685 3.15434 12.6496C3.55721 12.7306 3.97485 12.6893 4.35442 12.5308C4.73399 12.3723 5.05844 12.1038 5.28672 11.7592C5.515 11.4146 5.63684 11.0095 5.63685 10.595C5.63619 10.04 5.41755 9.5079 5.02881 9.11522C4.64007 8.72255 4.11292 8.50132 3.56283 8.5ZM2.78725 11.625C2.75463 11.6252 2.72231 11.6189 2.69212 11.6064C2.66193 11.594 2.63447 11.5757 2.61131 11.5525C2.58809 11.5293 2.56965 11.5016 2.55707 11.4711C2.54449 11.4407 2.53802 11.408 2.53802 11.375C2.53802 11.342 2.54449 11.3093 2.55707 11.2789C2.56965 11.2484 2.58809 11.2207 2.61131 11.1975L3.31504 10.5V9.4225C3.31504 9.3562 3.34115 9.29261 3.38762 9.24572C3.43409 9.19884 3.49711 9.1725 3.56283 9.1725C3.62855 9.1725 3.69158 9.19884 3.73805 9.24572C3.78452 9.29261 3.81062 9.3562 3.81062 9.4225V10.595C3.80969 10.6609 3.78297 10.7238 3.73629 10.77L2.97309 11.5525C2.94877 11.5769 2.9197 11.5959 2.88771 11.6084C2.85572 11.6209 2.82151 11.6265 2.78725 11.625ZM1.23855 8C1.17283 8 1.10981 7.97366 1.06334 7.92678C1.01687 7.87989 0.990759 7.8163 0.990759 7.75V2.75C0.990759 2.41848 1.12129 2.10054 1.35364 1.86612C1.58599 1.6317 1.90112 1.5 2.22972 1.5H4.45984V1.25C4.45984 1.05109 4.53816 0.860322 4.67757 0.71967C4.81698 0.579018 5.00606 0.5 5.20321 0.5C5.40037 0.5 5.58945 0.579018 5.72886 0.71967C5.86826 0.860322 5.94658 1.05109 5.94658 1.25V1.5H9.91124V1.25C9.91124 1.05109 9.98956 0.860322 10.129 0.71967C10.2684 0.579018 10.4575 0.5 10.6546 0.5C10.8518 0.5 11.0409 0.579018 11.1803 0.71967C11.3197 0.860322 11.398 1.05109 11.398 1.25V2.25C11.398 2.44891 11.3197 2.63968 11.1803 2.78033C11.0409 2.92098 10.8518 3 10.6546 3C10.4575 3 10.2684 2.92098 10.129 2.78033C9.98956 2.63968 9.91124 2.44891 9.91124 2.25V2H5.94658V2.25C5.94658 2.44891 5.86826 2.63968 5.72886 2.78033C5.58945 2.92098 5.40037 3 5.20321 3C5.00606 3 4.81698 2.92098 4.67757 2.78033C4.53816 2.63968 4.45984 2.44891 4.45984 2.25V2H2.22972C2.03256 2 1.84348 2.07902 1.70407 2.21967C1.56466 2.36032 1.48634 2.55109 1.48634 2.75V3.75H10.9693C11.035 3.75 11.0981 3.77634 11.1445 3.82322C11.191 3.87011 11.2171 3.9337 11.2171 4C11.2171 4.0663 11.191 4.12989 11.1445 4.17678C11.0981 4.22366 11.035 4.25 10.9693 4.25H1.48634V7.75C1.48634 7.8163 1.46024 7.87989 1.41377 7.92678C1.3673 7.97366 1.30427 8 1.23855 8ZM10.4068 1.75V2.25C10.4068 2.3163 10.4329 2.37989 10.4794 2.42678C10.5259 2.47366 10.5889 2.5 10.6546 2.5C10.7203 2.5 10.7834 2.47366 10.8298 2.42678C10.8763 2.37989 10.9024 2.3163 10.9024 2.25V1.25C10.9024 1.1837 10.8763 1.12011 10.8298 1.07322C10.7834 1.02634 10.7203 1 10.6546 1C10.5889 1 10.5259 1.02634 10.4794 1.07322C10.4329 1.12011 10.4068 1.1837 10.4068 1.25V1.75ZM5.20321 1C5.13749 1 5.07447 1.02634 5.028 1.07322C4.98153 1.12011 4.95542 1.1837 4.95542 1.25V2.25C4.95542 2.3163 4.98153 2.37989 5.028 2.42678C5.07447 2.47366 5.13749 2.5 5.20321 2.5C5.26893 2.5 5.33196 2.47366 5.37843 2.42678C5.4249 2.37989 5.451 2.3163 5.451 2.25V1.25C5.451 1.1837 5.4249 1.12011 5.37843 1.07322C5.33196 1.02634 5.26893 1 5.20321 1Z" fill="#04285B"/>
</svg>
