<svg width="61" height="60" viewBox="0 0 61 60" fill="none" xmlns="http://www.w3.org/2000/svg">
<g clip-path="url(#clip0_279_1024)">
<path d="M58.5396 34.9556H55.6339C54.1993 32.6972 52.7138 30.2786 52.4972 29.7928C52.4086 29.4333 52.0997 29.154 51.7172 29.1214C51.5339 29.1055 50.9219 29.1192 50.7501 29.9495C50.7317 30.0384 49.3175 38.0552 49.1466 39.0461L47.0897 35.3065C46.9354 35.0256 46.6402 34.8511 46.3197 34.8511H44.7285C44.0771 30.6116 42.1909 23.5526 39.4472 20.5099C39.4238 17.8583 39.5099 17.1622 39.3401 15.8445H42.3269C42.8124 15.8445 43.2058 15.4509 43.2058 14.9655C43.2058 14.4802 42.8124 14.0866 42.3269 14.0866H33.7704C32.2833 14.0866 30.9464 14.928 30.2842 16.2091C29.5516 16.0702 28.7937 15.9546 28.0123 15.8659C25.0093 15.5248 22.0352 15.5938 19.3708 16.0318C19.6746 15.0185 20.2457 14.098 21.0393 13.3672C22.1393 12.3544 23.5696 11.7966 25.0663 11.7966H26.7539C27.2394 11.7966 27.6328 11.403 27.6328 10.9177C27.6328 10.4323 27.2394 10.0388 26.7539 10.0388H25.0663C23.1271 10.0388 21.2741 10.7616 19.8487 12.0742C18.5922 13.2311 17.765 14.7553 17.4763 16.419C16.0505 16.7712 14.749 17.2409 13.6234 17.8207C13.6458 17.7292 13.17 11.937 18.495 8.32582C19.0503 7.94672 19.2459 7.23035 18.9614 6.62531L17.4599 3.40207L19.1834 2.59922L20.7394 5.93859C21.0086 6.51281 21.6525 6.82934 22.2684 6.69164C22.8452 6.56273 23.4393 6.47941 24.0346 6.44402C24.7511 6.40137 25.3123 5.80336 25.3123 5.08266V1.75781H27.2133V5.22328C27.2168 5.89289 27.7011 6.45598 28.3676 6.56273C28.743 6.62156 29.1265 6.70359 29.5078 6.80672C30.149 6.97969 30.8168 6.66773 31.0957 6.06668L32.8252 2.35383L34.549 3.15609L32.7894 6.93375C32.5171 7.51453 32.6919 8.21555 33.2087 8.6032C33.7861 9.03199 34.315 9.51328 34.7949 10.0392H30.8552C30.3696 10.0392 29.9762 10.4327 29.9762 10.9181C29.9762 11.4035 30.3696 11.797 30.8552 11.797H42.327C42.8125 11.797 43.2059 11.4035 43.2059 10.9181C43.2059 10.4327 42.8125 10.0392 42.327 10.0392H37.0541C36.3385 9.03809 35.487 8.1484 34.5163 7.38961L36.3604 3.43031C36.6478 2.81215 36.3795 2.07258 35.7584 1.78008L33.1032 0.544336C32.8021 0.402539 32.4644 0.386953 32.1521 0.500273C31.8395 0.613594 31.5902 0.842109 31.4502 1.14305L29.6413 5.02652C29.4175 4.97227 29.1934 4.92422 28.9712 4.88297V1.2375C28.9712 0.907148 28.8419 0.596602 28.6069 0.36293C28.3714 0.128672 28.0589 0 27.7318 0C27.7293 0 24.7912 0 24.7912 0C24.4608 0 24.1504 0.129258 23.9171 0.363867C23.6815 0.600703 23.5528 0.915703 23.5547 1.2457V4.71715C23.0993 4.75758 22.6457 4.82215 22.1997 4.91004L20.5595 1.39008C20.4197 1.08902 20.1711 0.860508 19.859 0.746836C19.5476 0.633281 19.2108 0.647695 18.9094 0.787734L16.251 2.02617C15.6303 2.31457 15.3599 3.05484 15.6489 3.67723L17.228 7.06676C16.0668 7.89938 15.0686 8.90648 14.2589 10.0389H6.62125C6.13574 10.0389 5.74234 10.4324 5.74234 10.9178C5.74234 11.4032 6.13574 11.7967 6.62125 11.7967H13.2046C12.8412 12.5285 12.5465 13.2948 12.328 14.0868H6.62125C6.13574 14.0868 5.74234 14.4803 5.74234 14.9657C5.74234 15.4511 6.13574 15.8446 6.62125 15.8446H11.9741C11.815 17.0687 11.8812 17.8116 11.8657 18.8198C10.9001 19.4175 10.0465 20.0345 9.3175 20.6636C8.94988 20.9807 8.9091 21.5357 9.22621 21.9032C9.54344 22.2707 10.0984 22.3113 10.4658 21.9943C11.4741 21.1243 12.7581 20.2711 14.2821 19.4584C17.5078 17.7382 22.693 17.0309 27.8141 17.6125C31.3818 18.0176 36.5902 19.2854 38.5946 22.262C40.9898 25.8193 42.8084 31.8738 43.3405 38.0627C43.8746 44.2719 42.9669 49.3622 40.9718 51.347C39.3061 53.0043 34.6775 52.7406 29.1797 50.6749C20.4715 47.4032 13.5685 41.5976 10.2368 36.6086H11.1712C11.5111 36.6086 11.8206 36.4125 11.9658 36.105L14.5911 30.5474L19.74 42.6709C19.8783 42.9964 20.1974 43.2062 20.5487 43.2062C20.5603 43.2062 20.572 43.206 20.5837 43.2055C20.9486 43.1911 21.2666 42.9525 21.3825 42.606L24.5802 33.0437L25.6669 36.0301C25.7932 36.3773 26.1234 36.6086 26.4928 36.6086H29.4544C29.9399 36.6086 30.3333 36.215 30.3333 35.7296C30.3333 35.2443 29.9399 34.8507 29.4544 34.8507H27.1082L25.371 30.0768C25.2433 29.7255 24.9086 29.493 24.5336 29.4984C24.16 29.5034 23.8301 29.7441 23.7115 30.0986L20.451 39.8487L15.4424 28.0557C15.3071 27.737 14.9971 27.5275 14.6508 27.5207C14.308 27.5157 13.9866 27.711 13.8387 28.024L10.6139 34.8507H9.17957C8.18488 32.9954 7.48 30.9612 7.3307 28.8056C7.23109 27.3676 7.47637 26.0921 8.08035 24.9063C8.30066 24.4738 8.12863 23.9446 7.69621 23.7243C7.26367 23.5038 6.73445 23.6757 6.51414 24.1084C5.76133 25.5861 5.45477 27.1623 5.57699 28.927C5.71269 30.8861 6.26547 32.873 7.21187 34.8507H1.78223C1.29672 34.8507 0.90332 35.2443 0.90332 35.7296C0.90332 36.215 1.29672 36.6086 1.78223 36.6086H8.15816C9.48754 38.8287 11.3103 41.0229 13.5977 43.1379C13.9103 43.427 14.2315 43.713 14.5589 43.9965V53.8507C14.5589 54.3361 14.9523 54.7296 15.4379 54.7296C15.9234 54.7296 16.3168 54.3361 16.3168 53.8507V45.4369C17.682 46.497 19.1379 47.501 20.6496 48.4264V53.8507C20.6496 54.3361 21.043 54.7296 21.5286 54.7296C22.0141 54.7296 22.4075 54.3361 22.4075 53.8507V49.4528C24.4159 50.571 26.4934 51.5434 28.5616 52.3204C29.042 52.5009 29.5135 52.667 29.9772 52.8216V59.1211C29.9772 59.6065 30.3706 60 30.8561 60C31.3416 60 31.735 59.6065 31.735 59.1211V53.3576C33.7858 53.9211 35.6353 54.2048 37.2278 54.2047C37.3845 54.2047 37.538 54.2012 37.6896 54.1957V59.1211C37.6896 59.6065 38.083 60 38.5686 60C39.0541 60 39.4475 59.6065 39.4475 59.1211V53.9857C40.5954 53.736 41.5292 53.2725 42.2118 52.5933C45.0272 49.7921 45.7343 43.2738 44.9652 36.6091H45.8002L48.8172 42.0943C48.9734 42.3783 49.2705 42.5497 49.587 42.5497C49.6353 42.5497 49.6841 42.5457 49.7329 42.5375C50.1014 42.4757 50.3903 42.1875 50.4535 41.8193C50.9502 38.9202 51.6249 35.0162 52.0601 32.557C52.5937 33.4352 53.3469 34.6403 54.4107 36.3073C54.572 36.5603 54.8514 36.7134 55.1515 36.7134H58.5396C59.0252 36.7134 59.4185 36.3199 59.4185 35.8345C59.4185 35.3491 59.0252 34.9556 58.5396 34.9556ZM33.7705 15.8447H37.5652C37.7498 17.0779 37.6704 17.8297 37.6895 19.0087C36.2209 18.0134 34.3199 17.1979 32.1118 16.6195C32.5141 16.1411 33.1153 15.8447 33.7705 15.8447Z" fill="white"/>
</g>
<defs>
<clipPath id="clip0_279_1024">
<rect width="60" height="60" fill="white" transform="translate(0.161133)"/>
</clipPath>
</defs>
</svg>
