<svg width="61" height="60" viewBox="0 0 61 60" fill="none" xmlns="http://www.w3.org/2000/svg">
<path d="M31.099 40.3125C30.5815 40.3125 30.1615 39.8925 30.1615 39.375C30.1615 18.7931 26.434 9.57935 22.7871 3.28123C22.5265 2.8331 22.6802 2.25935 23.1284 2.0006C23.5709 1.74185 24.1484 1.88998 24.4109 2.34185C28.1815 8.85748 32.0365 18.3506 32.0365 39.375C32.0365 39.8925 31.6165 40.3125 31.099 40.3125Z" fill="white"/>
<path d="M30.1611 53.4375C23.2386 53.4375 19.7211 52.4663 16.318 51.5288C12.8849 50.5819 9.64488 49.6875 2.97363 49.6875C2.45613 49.6875 2.03613 49.2675 2.03613 48.75C2.03613 48.2325 2.45613 47.8125 2.97363 47.8125C9.89613 47.8125 13.4136 48.7837 16.8168 49.7212C20.2499 50.6681 23.4899 51.5625 30.1611 51.5625C36.8324 51.5625 40.0724 50.6681 43.5055 49.7212C46.9068 48.7837 50.4243 47.8125 57.3486 47.8125C57.8661 47.8125 58.2861 48.2325 58.2861 48.75C58.2861 49.2675 57.8661 49.6875 57.3486 49.6875C50.6774 49.6875 47.4374 50.5819 44.0043 51.5288C40.6011 52.4663 37.0836 53.4375 30.1611 53.4375Z" fill="white"/>
<path d="M57.3486 58.125H2.97363C2.45613 58.125 2.03613 57.705 2.03613 57.1875C2.03613 56.67 2.45613 56.25 2.97363 56.25H57.3486C57.8661 56.25 58.2861 56.67 58.2861 57.1875C58.2861 57.705 57.8661 58.125 57.3486 58.125Z" fill="white"/>
<path d="M31.0968 46.2319C27.7311 46.2319 24.8549 43.6069 24.5455 40.2544C24.5061 39.8006 24.5136 39.33 24.5643 38.8875C24.5718 38.8294 25.1924 33.5587 25.2505 28.2956C25.273 27.2494 25.2618 26.2088 25.2336 25.2075C25.1905 23.6906 23.953 22.5 22.4211 22.5H2.97363C2.45613 22.5 2.03613 22.08 2.03613 21.5625C2.03613 21.045 2.45613 20.625 2.97363 20.625H22.4211C24.9749 20.625 27.0355 22.6144 27.1086 25.155C27.1368 26.1881 27.148 27.2588 27.1255 28.3256C27.0655 33.6881 26.4336 39.06 26.4261 39.1106C26.3886 39.4237 26.3868 39.7631 26.413 40.0875C26.6455 42.6206 28.9611 44.5669 31.5299 44.3363C32.7786 44.2219 33.9111 43.6275 34.7155 42.66C35.5311 41.6794 35.8968 40.47 35.7768 39.1594C35.7543 38.9231 35.2293 33.285 34.1043 27.6881C34.0105 27.2025 33.9149 26.7262 33.8136 26.2575C33.5193 24.885 33.8586 23.4675 34.7455 22.3706C35.6436 21.2625 36.9768 20.625 38.4036 20.625H57.3486C57.8661 20.625 58.2861 21.045 58.2861 21.5625C58.2861 22.08 57.8661 22.5 57.3486 22.5H38.4036C37.5449 22.5 36.7424 22.8825 36.2043 23.5519C35.6755 24.2062 35.4711 25.05 35.6474 25.8656C35.7505 26.3475 35.848 26.8369 35.9436 27.3281C37.0855 33.015 37.6218 38.7488 37.6424 38.9906C37.8055 40.7813 37.2768 42.51 36.1536 43.8619C35.0268 45.2138 33.4443 46.0463 31.6968 46.2056C31.4943 46.2225 31.2936 46.2319 31.0968 46.2319Z" fill="white"/>
<path d="M28.8825 17.2238C28.8825 17.2238 30.7275 22.5281 31.8038 28.1231C32.9232 33.7031 33.4425 39.375 33.4425 39.375L33.4482 39.4388C33.5663 40.7363 32.6119 41.8856 31.3125 42.0038C30.015 42.1219 28.8657 41.1675 28.7475 39.87C28.7325 39.7069 28.7363 39.5325 28.755 39.3769C28.755 39.3769 29.4075 33.8794 29.4694 28.3444C29.5819 22.8075 28.8825 17.2238 28.8825 17.2238Z" fill="white"/>
<path d="M15.1874 30C13.5937 30 12.7424 29.3794 12.0599 28.8825C11.4543 28.4419 11.0174 28.125 10.0368 28.125C9.0524 28.125 8.61365 28.4437 8.00803 28.8844C7.32178 29.3812 6.47053 30 4.87865 30C3.97678 30 3.22115 29.8069 2.5049 29.3906C2.05678 29.1319 1.90303 28.5581 2.16178 28.11C2.4224 27.6581 2.9999 27.51 3.4424 27.7688C3.74803 27.945 4.15678 28.125 4.87865 28.125C5.86115 28.125 6.2999 27.8081 6.90553 27.3675C7.5899 26.8687 8.44115 26.25 10.0368 26.25C11.6305 26.25 12.4799 26.8687 13.1624 27.3675C13.7662 27.8081 14.203 28.125 15.1874 28.125C16.1718 28.125 16.6105 27.8063 17.2162 27.3656C17.9005 26.8688 18.7518 26.25 20.3455 26.25C21.6205 26.25 22.4005 26.6456 22.9387 26.9925C23.3737 27.2719 23.5012 27.8512 23.2199 28.2881C22.9387 28.7231 22.3593 28.8506 21.9243 28.5694C21.5099 28.3031 21.0805 28.125 20.3455 28.125C19.363 28.125 18.9243 28.4419 18.3187 28.8825C17.6324 29.3813 16.7812 30 15.1874 30Z" fill="white"/>
<path d="M56.422 30C54.8282 30 53.9788 29.3794 53.2963 28.8825C52.6926 28.4419 52.2538 28.125 51.2732 28.125C50.2907 28.125 49.8538 28.4419 49.2482 28.8825C48.5638 29.3794 47.7126 30 46.1188 30C44.5251 30 43.6757 29.3813 42.9932 28.8825C42.3876 28.4419 41.9507 28.125 40.9682 28.125C40.1001 28.125 39.6557 28.3819 39.2395 28.6706C38.8157 28.9631 38.2307 28.86 37.9363 28.4344C37.642 28.0087 37.747 27.4237 38.1745 27.1294C38.7988 26.6944 39.6238 26.25 40.9682 26.25C42.562 26.25 43.4132 26.8706 44.0957 27.3675C44.6995 27.8081 45.1363 28.125 46.1188 28.125C47.1032 28.125 47.5401 27.8081 48.1457 27.3675C48.8282 26.8687 49.6795 26.25 51.2732 26.25C52.867 26.25 53.7163 26.8706 54.3988 27.3675C55.0026 27.8081 55.4395 28.125 56.422 28.125C56.692 28.125 56.9263 28.1006 57.1401 28.0519C57.6613 27.9319 58.147 28.2544 58.2632 28.7569C58.3795 29.2631 58.0626 29.7656 57.5582 29.88C57.2038 29.9606 56.8326 30 56.422 30Z" fill="white"/>
<path d="M19.8486 39.375H19.6592C19.1417 39.375 18.7217 38.955 18.7217 38.4375C18.7217 37.92 19.1417 37.5 19.6592 37.5H19.8486C20.3661 37.5 20.7861 37.92 20.7861 38.4375C20.7861 38.955 20.3661 39.375 19.8486 39.375Z" fill="white"/>
<path d="M12.3486 45H12.1592C11.6417 45 11.2217 44.58 11.2217 44.0625C11.2217 43.545 11.6417 43.125 12.1592 43.125H12.3486C12.8661 43.125 13.2861 43.545 13.2861 44.0625C13.2861 44.58 12.8661 45 12.3486 45Z" fill="white"/>
<path d="M4.84855 39.375H4.65918C4.14168 39.375 3.72168 38.955 3.72168 38.4375C3.72168 37.92 4.14168 37.5 4.65918 37.5H4.84855C5.36605 37.5 5.78605 37.92 5.78605 38.4375C5.78605 38.955 5.36605 39.375 4.84855 39.375Z" fill="white"/>
<path d="M54.5361 43.125H54.3467C53.8292 43.125 53.4092 42.705 53.4092 42.1875C53.4092 41.67 53.8292 41.25 54.3467 41.25H54.5361C55.0536 41.25 55.4736 41.67 55.4736 42.1875C55.4736 42.705 55.0536 43.125 54.5361 43.125Z" fill="white"/>
<path d="M50.0361 35.625H49.8486C49.3311 35.625 48.9111 35.205 48.9111 34.6875C48.9111 34.17 49.3311 33.75 49.8486 33.75C50.3661 33.75 50.8799 34.17 50.8799 34.6875C50.8799 35.205 50.5536 35.625 50.0361 35.625Z" fill="white"/>
<path d="M44.2236 45H44.0342C43.5167 45 43.0967 44.58 43.0967 44.0625C43.0967 43.545 43.5167 43.125 44.0342 43.125H44.2236C44.7411 43.125 45.1611 43.545 45.1611 44.0625C45.1611 44.58 44.7411 45 44.2236 45Z" fill="white"/>
</svg>
