<svg width="61" height="60" viewBox="0 0 61 60" fill="none" xmlns="http://www.w3.org/2000/svg">
<path d="M15.9511 34.6627H44.3705C44.557 34.6627 44.7358 34.5886 44.8677 34.4567C44.9995 34.3249 45.0736 34.146 45.0736 33.9596V30.6652C45.0719 29.5626 44.7585 28.483 44.1697 27.5508C43.5808 26.6187 42.7404 25.872 41.7455 25.3969C42.469 24.8657 43.0063 24.1195 43.2805 23.2647C43.5547 22.41 43.5518 21.4905 43.2723 20.6375C42.9928 19.7845 42.451 19.0417 41.7241 18.5149C40.9973 17.9882 40.1226 17.7046 39.225 17.7046C38.3274 17.7046 37.4527 17.9882 36.7259 18.5149C35.999 19.0417 35.4572 19.7845 35.1777 20.6375C34.8982 21.4905 34.8953 22.41 35.1695 23.2647C35.4437 24.1195 35.981 24.8657 36.7045 25.3969C35.3926 26.0263 34.3611 27.1205 33.81 28.4672C33.4378 28.005 32.9765 27.6225 32.4534 27.3422C32.9637 26.879 33.3218 26.2722 33.4807 25.6016C33.6395 24.931 33.5917 24.228 33.3434 23.5851C33.0951 22.9422 32.658 22.3895 32.0897 21.9997C31.5213 21.61 30.8483 21.4014 30.1591 21.4014C29.47 21.4014 28.797 21.61 28.2286 21.9997C27.6602 22.3895 27.2232 22.9422 26.9749 23.5851C26.7266 24.228 26.6788 24.931 26.8376 25.6016C26.9965 26.2722 27.3546 26.879 27.8648 27.3422C27.3481 27.619 26.8914 27.9956 26.5214 28.4503C25.9745 27.089 24.9377 25.9818 23.6152 25.3467C24.3387 24.8155 24.876 24.0693 25.1502 23.2146C25.4244 22.3599 25.4215 21.4404 25.142 20.5874C24.8625 19.7344 24.3207 18.9915 23.5938 18.4648C22.867 17.9381 21.9923 17.6545 21.0947 17.6545C20.1971 17.6545 19.3224 17.9381 18.5955 18.4648C17.8687 18.9915 17.3269 19.7344 17.0474 20.5874C16.7679 21.4404 16.765 22.3599 17.0392 23.2146C17.3134 24.0693 17.8507 24.8155 18.5742 25.3467C17.5793 25.8218 16.7389 26.5685 16.15 27.5007C15.5612 28.4328 15.2478 29.5125 15.2461 30.615V33.9596C15.2461 34.052 15.2643 34.1436 15.2998 34.2291C15.3352 34.3145 15.3872 34.3921 15.4527 34.4574C15.5182 34.5227 15.5959 34.5745 15.6814 34.6097C15.767 34.6449 15.8586 34.6629 15.9511 34.6627ZM36.3736 21.9717C36.3731 21.4103 36.5383 20.8612 36.8485 20.3932C37.1587 19.9252 37.6001 19.5591 38.1174 19.3408C38.6347 19.1226 39.2049 19.0618 39.7566 19.1661C40.3083 19.2705 40.8169 19.5353 41.2188 19.9274C41.6206 20.3195 41.8978 20.8215 42.0157 21.3705C42.1335 21.9194 42.0868 22.491 41.8812 23.0135C41.6757 23.536 41.3206 23.9862 40.8604 24.3078C40.4001 24.6294 39.8552 24.808 39.2939 24.8213C39.2714 24.8213 39.2494 24.8175 39.2264 24.8175C39.2034 24.8175 39.1795 24.8208 39.1584 24.8213C38.4144 24.8031 37.7069 24.495 37.1867 23.9627C36.6665 23.4304 36.3747 22.716 36.3736 21.9717ZM34.785 30.6652C34.7866 29.4998 35.2458 28.3817 36.0639 27.5516C36.8819 26.7216 37.9932 26.2461 39.1584 26.2275C39.1814 26.2275 39.2053 26.2308 39.2264 26.2308C39.2475 26.2308 39.2733 26.2275 39.2939 26.2275C40.4592 26.246 41.5706 26.7214 42.3886 27.5515C43.2067 28.3816 43.6659 29.4998 43.6673 30.6652V33.2564H34.785V30.6652ZM30.1608 22.8155C30.6894 22.8137 31.1973 23.0207 31.574 23.3915C31.9508 23.7623 32.1658 24.2669 32.1724 24.7955C32.1789 25.324 31.9764 25.8338 31.609 26.2138C31.2416 26.5939 30.739 26.8134 30.2105 26.8247H30.1111C29.5826 26.8134 29.08 26.5939 28.7125 26.2138C28.3451 25.8338 28.1427 25.324 28.1492 24.7955C28.1558 24.2669 28.3708 23.7623 28.7475 23.3915C29.1242 23.0207 29.6322 22.8137 30.1608 22.8155ZM29.932 28.231H30.0614C30.0947 28.231 30.127 28.2356 30.1608 28.2356C30.1945 28.2356 30.2269 28.2319 30.2602 28.231H30.3891C31.1814 28.2317 31.9411 28.5467 32.5016 29.1068C33.0621 29.6669 33.3775 30.4264 33.3788 31.2188V33.255H26.9428V31.2188C26.9439 30.4265 27.2593 29.6669 27.8197 29.1068C28.38 28.5467 29.1397 28.2317 29.932 28.231ZM18.2423 21.9216C18.2418 21.3601 18.4069 20.811 18.717 20.3429C19.0271 19.8749 19.4685 19.5087 19.9857 19.2904C20.503 19.072 21.0732 19.0112 21.6249 19.1154C22.1766 19.2197 22.6853 19.4844 23.0872 19.8765C23.4891 20.2685 23.7664 20.7705 23.8843 21.3194C24.0023 21.8683 23.9556 22.4399 23.7502 22.9624C23.5447 23.4849 23.1897 23.9352 22.7295 24.2569C22.2693 24.5786 21.7244 24.7573 21.1631 24.7706C21.1402 24.7706 21.1163 24.7674 21.0952 24.7674C21.0741 24.7674 21.0483 24.7706 21.0277 24.7706C20.2836 24.7526 19.576 24.4446 19.0557 23.9124C18.5355 23.3802 18.2436 22.6659 18.2423 21.9216ZM16.6542 30.615C16.6558 29.4496 17.115 28.3314 17.933 27.5013C18.7511 26.6712 19.8624 26.1956 21.0277 26.1769C21.0502 26.1769 21.0722 26.1806 21.0952 26.1806C21.1181 26.1806 21.142 26.1774 21.1631 26.1769C22.3284 26.1956 23.4397 26.6712 24.2577 27.5013C25.0757 28.3314 25.535 29.4496 25.5366 30.615V33.2564H16.6542V30.615Z" fill="white"/>
<path d="M25.9843 17.0691L25.9988 17.0808C28.0233 18.6511 29.1572 19.4372 30.2865 19.4372C31.4157 19.4372 32.5486 18.6445 34.568 17.0583L34.5779 17.0503C39.8907 12.8709 39.5654 8.77125 39.1786 7.20187C38.9497 6.12763 38.4172 5.14168 37.6444 4.36113C36.8717 3.58057 35.8911 3.0382 34.8193 2.79844C33.106 2.48015 31.4471 3.12656 30.158 4.57547C28.6899 3.06844 26.8918 2.44031 25.118 2.84437C24.1132 3.11095 23.2039 3.65529 22.4943 4.41497C21.7847 5.17465 21.3035 6.11893 21.106 7.13953C20.7558 8.71547 20.5336 12.8344 25.9843 17.0691ZM22.4771 7.44375C22.617 6.68286 22.9682 5.97666 23.4904 5.40582C24.0126 4.83498 24.6848 4.42249 25.4302 4.21547C26.8946 3.88219 28.426 4.57312 29.633 6.10969C29.7005 6.19668 29.7878 6.26636 29.8875 6.31298C29.9873 6.35961 30.0967 6.38183 30.2068 6.37781C30.3166 6.3746 30.4241 6.34571 30.5207 6.29345C30.6174 6.24119 30.7004 6.16701 30.7632 6.07687C31.7944 4.59234 33.1444 3.92062 34.5629 4.18078C36.0821 4.46203 37.389 5.81109 37.8146 7.53844C38.4943 10.2966 36.9957 13.3622 33.7036 15.9497L33.6943 15.9572C31.9051 17.3634 31.0121 18.0389 30.2888 18.0403H30.2865C29.5665 18.0403 28.6688 17.3709 26.8749 15.9778L26.8604 15.9661C22.0299 12.2227 22.186 8.75906 22.4771 7.44375Z" fill="white"/>
<path d="M28.7718 13.2267C28.9037 13.3586 29.0825 13.4326 29.2689 13.4326C29.4553 13.4326 29.6342 13.3586 29.766 13.2267L33.3862 9.60658C33.4533 9.54172 33.5069 9.46413 33.5437 9.37835C33.5806 9.29256 33.6 9.2003 33.6008 9.10694C33.6016 9.01358 33.5838 8.92099 33.5485 8.83458C33.5131 8.74817 33.4609 8.66966 33.3949 8.60365C33.3289 8.53763 33.2504 8.48542 33.164 8.45006C33.0775 8.41471 32.985 8.39692 32.8916 8.39773C32.7982 8.39854 32.706 8.41794 32.6202 8.45479C32.5344 8.49164 32.4568 8.5452 32.392 8.61236L29.2705 11.7352L27.9318 10.3964C27.8665 10.331 27.789 10.2792 27.7037 10.2438C27.6183 10.2083 27.5269 10.1901 27.4345 10.19C27.3421 10.19 27.2506 10.2081 27.1652 10.2434C27.0798 10.2787 27.0022 10.3304 26.9369 10.3957C26.8715 10.461 26.8196 10.5385 26.7842 10.6238C26.7488 10.7092 26.7305 10.8006 26.7305 10.893C26.7303 11.0796 26.8043 11.2586 26.9362 11.3906L28.7718 13.2267Z" fill="white"/>
<path d="M23.8426 42.6464L21.4327 41.5805L14.8233 35.5711C14.8069 35.5561 14.7886 35.5434 14.7722 35.5289C14.7076 35.4731 14.6429 35.4183 14.5754 35.3686L14.558 35.3569C13.9606 34.9215 13.2251 34.7186 12.489 34.7859L11.7197 27.4476C11.6395 26.6617 11.2601 25.9366 10.6601 25.4226C10.0601 24.9086 9.2854 24.645 8.4964 24.6863C7.70741 24.7276 6.96451 25.0707 6.42148 25.6446C5.87844 26.2184 5.57684 26.9791 5.57911 27.7692V39.8775C5.57986 40.9337 5.8022 41.9779 6.23175 42.9428C6.66131 43.9077 7.28852 44.7717 8.07286 45.4791L13.5788 50.4375C13.9546 50.7758 14.2551 51.1893 14.4609 51.6512C14.6666 52.1131 14.773 52.6131 14.7732 53.1187V56.5781C14.7732 56.7646 14.8473 56.9434 14.9791 57.0753C15.111 57.2072 15.2898 57.2812 15.4763 57.2812H27.3572C27.5437 57.2812 27.7226 57.2072 27.8544 57.0753C27.9863 56.9434 28.0604 56.7646 28.0604 56.5781V49.1137C28.0606 47.7428 27.6619 46.4013 26.913 45.253C26.1641 44.1046 25.0973 43.199 23.8426 42.6464ZM26.6551 55.8736H16.1794V53.1187C16.1793 52.4158 16.0314 51.7208 15.7454 51.0788C15.4594 50.4367 15.0416 49.8619 14.5191 49.3917L9.01458 44.4347C8.37656 43.8592 7.86634 43.1562 7.51689 42.3712C7.16744 41.5863 6.98653 40.7367 6.98583 39.8775V27.7692C6.98507 27.3404 7.14905 26.9277 7.44389 26.6164C7.73874 26.3051 8.14191 26.119 8.57009 26.0965C8.99827 26.074 9.41874 26.2168 9.7446 26.4955C10.0705 26.7742 10.2768 27.1674 10.321 27.5939L11.1226 35.2537C10.9246 35.3793 10.7416 35.527 10.5769 35.6939C10.2954 35.9811 10.0731 36.321 9.92299 36.6941C9.77283 37.0673 9.69768 37.4663 9.70181 37.8685C9.70595 38.2707 9.78929 38.6681 9.94709 39.0381C10.1049 39.4081 10.334 39.7433 10.6215 40.0247L16.7316 46.0083C16.7972 46.0744 16.8753 46.1269 16.9614 46.1627C17.0474 46.1984 17.1397 46.2166 17.2329 46.2164C17.3261 46.2161 17.4183 46.1974 17.5042 46.1612C17.59 46.125 17.6678 46.072 17.7331 46.0055C17.7983 45.939 17.8496 45.8601 17.8841 45.7736C17.9186 45.687 17.9356 45.5945 17.934 45.5013C17.9324 45.4081 17.9123 45.3162 17.8749 45.2309C17.8375 45.1455 17.7835 45.0685 17.716 45.0042L11.6054 39.0197C11.3941 38.813 11.2421 38.5535 11.165 38.2682C11.088 37.9829 11.0887 37.6822 11.1673 37.3973C11.2458 37.1123 11.3991 36.8537 11.6115 36.6481C11.8238 36.4425 12.0873 36.2975 12.3746 36.2283C12.4182 36.2175 12.4622 36.2119 12.5063 36.2048C12.5504 36.1978 12.5963 36.1917 12.6413 36.1884C12.6863 36.1851 12.7351 36.1828 12.7857 36.1837C12.8363 36.1847 12.8705 36.188 12.9127 36.1917C12.978 36.1975 13.043 36.207 13.1072 36.2203C13.1687 36.2325 13.2294 36.2482 13.2891 36.2672C13.3276 36.2798 13.3651 36.2972 13.4026 36.314C13.4558 36.3364 13.5079 36.3614 13.5586 36.389C13.5891 36.4055 13.6196 36.4223 13.6491 36.4411C13.7305 36.4915 13.8075 36.5487 13.8793 36.6122L20.573 42.7003C20.5768 42.7036 20.5815 42.704 20.5847 42.7073C20.6371 42.7538 20.696 42.7923 20.7596 42.8217L23.2758 43.934C24.2808 44.3768 25.1353 45.1023 25.7351 46.0221C26.335 46.942 26.6543 48.0165 26.6541 49.1147L26.6551 55.8736Z" fill="white"/>
<path d="M53.842 25.5937C53.4306 25.1829 52.9113 24.8968 52.3442 24.7687C51.777 24.6406 51.1852 24.6756 50.6371 24.8697C50.089 25.0638 49.6071 25.4091 49.247 25.8656C48.8869 26.3222 48.6634 26.8713 48.6023 27.4495L47.8331 34.7859C47.4103 34.7468 46.984 34.7965 46.5815 34.9318C46.179 35.067 45.8093 35.285 45.4959 35.5715L38.8894 41.5805L36.4805 42.6459C35.2254 43.1985 34.1583 44.1044 33.4092 45.253C32.6601 46.4016 32.2614 47.7434 32.2617 49.1147V56.5781C32.2617 56.7646 32.3358 56.9434 32.4677 57.0753C32.5995 57.2072 32.7784 57.2812 32.9648 57.2812H44.8458C45.0323 57.2812 45.2111 57.2072 45.343 57.0753C45.4748 56.9434 45.5489 56.7646 45.5489 56.5781V53.1187C45.5491 52.6129 45.6555 52.1127 45.8615 51.6506C46.0674 51.1885 46.3681 50.7749 46.7442 50.4365L52.2487 45.479C53.0331 44.7717 53.6603 43.9077 54.0899 42.9428C54.5194 41.9779 54.7417 40.9337 54.7425 39.8775V27.7692C54.7436 27.3651 54.6646 26.9647 54.5101 26.5913C54.3555 26.2179 54.1284 25.8788 53.842 25.5937ZM53.3362 39.8775C53.3356 40.7367 53.1546 41.5863 52.8052 42.3712C52.4557 43.1562 51.9455 43.8592 51.3075 44.4347L45.8039 49.3908C45.2813 49.8611 44.8634 50.436 44.5772 51.0782C44.291 51.7205 44.143 52.4156 44.1427 53.1187V55.875H33.668V49.1137C33.6678 48.0153 33.9873 46.9406 34.5874 46.0207C35.1875 45.1007 36.0423 44.3752 37.0477 43.9326L39.5625 42.8208C39.6259 42.7914 39.6847 42.7528 39.7369 42.7064C39.7406 42.7036 39.7453 42.7026 39.7491 42.6994L41.5303 41.0794L46.4428 36.6117L46.4541 36.6033C46.5223 36.5433 46.5952 36.489 46.672 36.4406C46.702 36.4219 46.733 36.4045 46.7658 36.3876C46.8167 36.36 46.8689 36.335 46.9223 36.3126C46.9594 36.2972 46.9955 36.2808 47.0334 36.2681C47.1029 36.2451 47.1739 36.2266 47.2458 36.2128C47.2973 36.203 47.3498 36.1973 47.4023 36.1922C47.4548 36.187 47.4961 36.1837 47.543 36.1833C47.5898 36.1828 47.6334 36.1833 47.6789 36.188C47.7244 36.1926 47.7764 36.1978 47.8247 36.2058C47.8659 36.2123 47.9077 36.2175 47.9484 36.2273C48.236 36.2964 48.4999 36.4413 48.7125 36.6469C48.9251 36.8525 49.0787 37.1113 49.1574 37.3965C49.2361 37.6816 49.2369 37.9826 49.1598 38.2681C49.0827 38.5537 48.9305 38.8134 48.7191 39.0201L42.6066 45.0042C42.5391 45.0685 42.4851 45.1455 42.4477 45.2309C42.4102 45.3162 42.3901 45.4081 42.3886 45.5013C42.387 45.5944 42.4039 45.687 42.4384 45.7736C42.4729 45.8601 42.5243 45.939 42.5895 46.0055C42.6547 46.072 42.7325 46.1249 42.8184 46.1612C42.9043 46.1974 42.9965 46.2161 43.0896 46.2164C43.1828 46.2166 43.2751 46.1984 43.3612 46.1627C43.4472 46.1269 43.5253 46.0744 43.5909 46.0083L49.7006 40.0251C49.9883 39.7439 50.2177 39.4088 50.3757 39.0388C50.5337 38.6689 50.6173 38.2715 50.6217 37.8692C50.626 37.467 50.5511 37.0678 50.4011 36.6946C50.2511 36.3213 50.029 35.9813 49.7475 35.6939C49.5829 35.527 49.3998 35.3793 49.2019 35.2537L50.0034 27.5939C50.0476 27.1674 50.254 26.7742 50.5798 26.4955C50.9057 26.2168 51.3262 26.074 51.7543 26.0965C52.1825 26.119 52.5857 26.3051 52.8805 26.6164C53.1754 26.9277 53.3394 27.3404 53.3386 27.7692L53.3362 39.8775Z" fill="white"/>
</svg>
