<svg width="203" height="59" viewBox="0 0 203 59" fill="none" xmlns="http://www.w3.org/2000/svg">
<path d="M195.481 59H7.51852C3.38521 59 0 55.6794 0 51.625V7.375C0 3.32059 3.38521 -9.53674e-07 7.51852 -9.53674e-07H195.481C199.615 -9.53674e-07 203 3.32059 203 7.375V51.625C203 55.6794 199.615 59 195.481 59Z" fill="black"/>
<path d="M195.481 1.18184C198.963 1.18184 201.795 3.96037 201.795 7.375V51.625C201.795 55.0396 198.963 57.8182 195.481 57.8182H7.51852C4.03744 57.8182 1.20484 55.0396 1.20484 51.625V7.375C1.20484 3.96037 4.03744 1.18184 7.51852 1.18184H195.481ZM195.481 -9.53674e-07H7.51852C3.38521 -9.53674e-07 0 3.32059 0 7.375V51.625C0 55.6794 3.38521 59 7.51852 59H195.481C199.615 59 203 55.6794 203 51.625V7.375C203 3.32059 199.615 -9.53674e-07 195.481 -9.53674e-07Z" fill="#A6A6A6"/>
<path d="M15.6912 11.1197C15.2494 11.5732 14.9938 12.2794 14.9938 13.1939V45.8135C14.9938 46.728 15.2494 47.4342 15.6912 47.8877L15.8002 47.9873L34.4348 29.7157V29.2843L15.8002 11.0127L15.6912 11.1197Z" fill="url(#paint0_linear_142_219)"/>
<path d="M40.6394 35.8091L34.4348 29.7155V29.284L40.6469 23.1905L40.786 23.2697L48.1429 27.3758C50.2425 28.541 50.2425 30.4585 48.1429 31.6311L40.786 35.7298L40.6394 35.8091V35.8091Z" fill="url(#paint1_linear_142_219)"/>
<path d="M40.7861 35.7299L34.4348 29.4999L15.6911 47.8876C16.3885 48.6067 17.5257 48.6933 18.8188 47.9742L40.7861 35.7299" fill="url(#paint2_linear_142_219)"/>
<path d="M40.7861 23.27L18.8188 11.0256C17.5257 10.3139 16.3885 10.4006 15.6911 11.1197L34.4348 29.5L40.7861 23.27Z" fill="url(#paint3_linear_142_219)"/>
<path d="M71.3019 15.1096C71.3019 16.3413 70.9259 17.3277 70.1854 18.0633C69.3339 18.9354 68.2249 19.3742 66.8659 19.3742C65.5671 19.3742 64.4581 18.928 63.5484 18.0486C62.6368 17.1562 62.1819 16.061 62.1819 14.7501C62.1819 13.4392 62.6368 12.344 63.5484 11.459C64.4581 10.5722 65.5671 10.126 66.8659 10.126C67.5125 10.126 68.129 10.2569 68.7174 10.5003C69.3038 10.7455 69.7812 11.0774 70.1271 11.4867L69.3414 12.2647C68.738 11.5659 67.9166 11.2212 66.8659 11.2212C65.9186 11.2212 65.0972 11.5457 64.3999 12.2002C63.71 12.8566 63.3642 13.7065 63.3642 14.7501C63.3642 15.7937 63.71 16.651 64.3999 17.3074C65.0972 17.9545 65.9186 18.2864 66.8659 18.2864C67.8715 18.2864 68.7174 17.9545 69.3846 17.3C69.8245 16.8667 70.0745 16.2694 70.1402 15.506H66.8659V14.4404H71.2342C71.2868 14.6708 71.3019 14.8939 71.3019 15.1096V15.1096Z" fill="white" stroke="white" stroke-width="0.16" stroke-miterlimit="10"/>
<path d="M78.232 11.4146H74.1288V14.2171H77.8279V15.2828H74.1288V18.0853H78.232V19.1712H72.9672V10.3286H78.232V11.4146Z" fill="white" stroke="white" stroke-width="0.16" stroke-miterlimit="10"/>
<path d="M83.1228 19.1712H81.9612V11.4146H79.4444V10.3286H85.6415V11.4146H83.1228V19.1712V19.1712Z" fill="white" stroke="white" stroke-width="0.16" stroke-miterlimit="10"/>
<path d="M90.1264 19.1712V10.3286H91.2861V19.1712H90.1264Z" fill="white" stroke="white" stroke-width="0.16" stroke-miterlimit="10"/>
<path d="M96.4268 19.1712H95.2746V11.4146H92.7484V10.3286H98.953V11.4146H96.4268V19.1712Z" fill="white" stroke="white" stroke-width="0.16" stroke-miterlimit="10"/>
<path d="M110.686 18.0338C109.797 18.928 108.695 19.3742 107.381 19.3742C106.06 19.3742 104.958 18.928 104.069 18.0338C103.182 17.1414 102.741 16.0463 102.741 14.7501C102.741 13.4539 103.182 12.3588 104.069 11.4664C104.958 10.5722 106.06 10.126 107.381 10.126C108.688 10.126 109.789 10.5722 110.678 11.4738C111.573 12.3735 112.015 13.4613 112.015 14.7501C112.015 16.0463 111.573 17.1414 110.686 18.0338ZM104.928 17.2926C105.598 17.9545 106.411 18.2864 107.381 18.2864C108.344 18.2864 109.165 17.9545 109.827 17.2926C110.494 16.6307 110.832 15.7808 110.832 14.7501C110.832 13.7194 110.494 12.8695 109.827 12.2076C109.165 11.5457 108.344 11.2138 107.381 11.2138C106.411 11.2138 105.598 11.5457 104.928 12.2076C104.261 12.8695 103.923 13.7194 103.923 14.7501C103.923 15.7808 104.261 16.6307 104.928 17.2926V17.2926Z" fill="white" stroke="white" stroke-width="0.16" stroke-miterlimit="10"/>
<path d="M113.644 19.1712V10.3286H115.054L119.437 17.2058H119.488L119.437 15.5059V10.3286H120.597V19.1712H119.387L114.796 11.9548H114.746L114.796 13.6621V19.1712H113.644V19.1712Z" fill="white" stroke="white" stroke-width="0.16" stroke-miterlimit="10"/>
<path d="M102.455 32.0848C98.923 32.0848 96.0378 34.7214 96.0378 38.3591C96.0378 41.9673 98.923 44.6315 102.455 44.6315C105.994 44.6315 108.879 41.9673 108.879 38.3591C108.879 34.7214 105.994 32.0848 102.455 32.0848ZM102.455 42.1609C100.517 42.1609 98.8497 40.5919 98.8497 38.3591C98.8497 36.0968 100.517 34.5554 102.455 34.5554C104.393 34.5554 106.067 36.0968 106.067 38.3591C106.067 40.5919 104.393 42.1609 102.455 42.1609V42.1609ZM88.4535 32.0848C84.9141 32.0848 82.0364 34.7214 82.0364 38.3591C82.0364 41.9673 84.9141 44.6315 88.4535 44.6315C91.9909 44.6315 94.8705 41.9673 94.8705 38.3591C94.8705 34.7214 91.9909 32.0848 88.4535 32.0848ZM88.4535 42.1609C86.5137 42.1609 84.8408 40.5919 84.8408 38.3591C84.8408 36.0968 86.5137 34.5554 88.4535 34.5554C90.3914 34.5554 92.0586 36.0968 92.0586 38.3591C92.0586 40.5919 90.3914 42.1609 88.4535 42.1609ZM71.7924 34.0078V36.6739H78.2828C78.093 38.1636 77.5855 39.2588 76.8073 40.0221C75.86 40.944 74.3845 41.9673 71.7924 41.9673C67.7982 41.9673 64.6705 38.8053 64.6705 34.8873C64.6705 30.9693 67.7982 27.8073 71.7924 27.8073C73.9521 27.8073 75.5235 28.6351 76.6832 29.7082L78.5986 27.8294C76.9765 26.3102 74.8186 25.1431 71.7924 25.1431C66.3152 25.1431 61.712 29.5146 61.712 34.8873C61.712 40.26 66.3152 44.6315 71.7924 44.6315C74.7529 44.6315 76.9765 43.6801 78.7245 41.8954C80.5158 40.1383 81.0741 37.6677 81.0741 35.6727C81.0741 35.0532 81.0214 34.4835 80.9274 34.0078H71.7924ZM139.921 36.0747C139.393 34.6716 137.764 32.0848 134.444 32.0848C131.155 32.0848 128.416 34.6273 128.416 38.3591C128.416 41.8733 131.127 44.6315 134.76 44.6315C137.698 44.6315 139.393 42.8744 140.091 41.8511L137.91 40.4259C137.183 41.4695 136.192 42.1609 134.76 42.1609C133.337 42.1609 132.316 41.5211 131.662 40.26L140.217 36.7882L139.921 36.0747V36.0747ZM131.2 38.1636C131.127 35.7446 133.115 34.5056 134.54 34.5056C135.657 34.5056 136.604 35.0532 136.92 35.8368L131.2 38.1636V38.1636ZM124.247 44.2498H127.059V25.8124H124.247V44.2498ZM119.642 33.4824H119.548C118.917 32.7485 117.712 32.0848 116.186 32.0848C112.983 32.0848 110.054 34.843 110.054 38.3794C110.054 41.8954 112.983 44.6315 116.186 44.6315C117.712 44.6315 118.917 43.9622 119.548 43.2063H119.642V44.106C119.642 46.5048 118.336 47.7935 116.229 47.7935C114.511 47.7935 113.445 46.5767 113.005 45.5534L110.56 46.5545C111.265 48.2176 113.131 50.2642 116.229 50.2642C119.526 50.2642 122.307 48.3614 122.307 43.7318V32.4664H119.642V33.4824V33.4824ZM116.426 42.1609C114.488 42.1609 112.866 40.5697 112.866 38.3794C112.866 36.1687 114.488 34.5554 116.426 34.5554C118.336 34.5554 119.841 36.1687 119.841 38.3794C119.841 40.5697 118.336 42.1609 116.426 42.1609V42.1609ZM153.086 25.8124H146.361V44.2498H149.165V37.2639H153.086C156.201 37.2639 159.255 35.0532 159.255 31.5372C159.255 28.023 156.193 25.8124 153.086 25.8124V25.8124ZM153.16 34.6992H149.165V28.377H153.16C155.254 28.377 156.449 30.0825 156.449 31.5372C156.449 32.9643 155.254 34.6992 153.16 34.6992ZM170.496 32.0498C168.469 32.0498 166.362 32.9274 165.496 34.8725L167.984 35.8958C168.52 34.8725 169.505 34.5407 170.546 34.5407C172.001 34.5407 173.477 35.398 173.499 36.9117V37.1053C172.992 36.8177 171.905 36.3918 170.569 36.3918C167.888 36.3918 165.157 37.8391 165.157 40.5402C165.157 43.0109 167.353 44.602 169.821 44.602C171.708 44.602 172.749 43.7668 173.403 42.7951H173.499V44.2203H176.208V37.1477C176.208 33.8788 173.719 32.0498 170.496 32.0498ZM170.157 42.1535C169.24 42.1535 167.962 41.7073 167.962 40.5919C167.962 39.1648 169.556 38.6172 170.935 38.6172C172.17 38.6172 172.749 38.8845 173.499 39.2367C173.279 40.944 171.781 42.1535 170.157 42.1535V42.1535ZM186.076 32.4535L182.852 40.4462H182.756L179.424 32.4535H176.399L181.407 43.623L178.55 49.8383H181.48L189.196 32.4535H186.076V32.4535ZM160.797 44.2498H163.609V25.8124H160.797V44.2498Z" fill="white"/>
<defs>
<linearGradient id="paint0_linear_142_219" x1="32.7803" y1="46.1532" x2="8.03085" y2="20.9222" gradientUnits="userSpaceOnUse">
<stop stop-color="#00A0FF"/>
<stop offset="0.0066" stop-color="#00A1FF"/>
<stop offset="0.2601" stop-color="#00BEFF"/>
<stop offset="0.5122" stop-color="#00D2FF"/>
<stop offset="0.7604" stop-color="#00DFFF"/>
<stop offset="1" stop-color="#00E3FF"/>
</linearGradient>
<linearGradient id="paint1_linear_142_219" x1="50.8769" y1="29.4977" x2="14.4919" y2="29.4977" gradientUnits="userSpaceOnUse">
<stop stop-color="#FFE000"/>
<stop offset="0.4087" stop-color="#FFBD00"/>
<stop offset="0.7754" stop-color="#FFA500"/>
<stop offset="1" stop-color="#FF9C00"/>
</linearGradient>
<linearGradient id="paint2_linear_142_219" x1="37.3324" y1="26.1131" x2="3.77019" y2="-8.10226" gradientUnits="userSpaceOnUse">
<stop stop-color="#FF3A44"/>
<stop offset="1" stop-color="#C31162"/>
</linearGradient>
<linearGradient id="paint3_linear_142_219" x1="10.973" y1="58.7401" x2="25.96" y2="43.4615" gradientUnits="userSpaceOnUse">
<stop stop-color="#32A071"/>
<stop offset="0.0685" stop-color="#2DA771"/>
<stop offset="0.4762" stop-color="#15CF74"/>
<stop offset="0.8009" stop-color="#06E775"/>
<stop offset="1" stop-color="#00F076"/>
</linearGradient>
</defs>
</svg>
