<svg width="61" height="60" viewBox="0 0 61 60" fill="none" xmlns="http://www.w3.org/2000/svg">
<g clip-path="url(#clip0_279_1069)">
<path d="M43.1978 22.6664H45.8398C46.5065 22.6664 47.0489 22.1239 47.0489 21.4573V19.6084H48.8978C49.5645 19.6084 50.107 19.0659 50.107 18.3992V15.7571C50.107 15.0905 49.5645 14.548 48.8978 14.548H47.0489V12.6991C47.0489 12.0325 46.5065 11.49 45.8398 11.49H43.1978C42.5311 11.49 41.9887 12.0325 41.9887 12.6991V14.548H40.1398C39.4731 14.548 38.9307 15.0905 38.9307 15.7571V18.3992C38.9307 19.0659 39.4731 19.6084 40.1398 19.6084H41.9887V21.4573C41.9887 22.1239 42.5311 22.6664 43.1978 22.6664ZM40.6884 17.8506V16.3057H42.5372C43.2039 16.3057 43.7464 15.7632 43.7464 15.0966V13.2477H45.2911V15.0966C45.2911 15.7632 45.8336 16.3057 46.5003 16.3057H48.3491V17.8506H46.5003C45.8336 17.8506 45.2911 18.393 45.2911 19.0597V20.9086H43.7464V19.0597C43.7464 18.393 43.2039 17.8506 42.5372 17.8506H40.6884Z" fill="white"/>
<path d="M59.1781 8.85996C58.094 6.74227 56.2501 5.17371 53.9859 4.44305C50.5496 3.3341 46.8451 4.39348 44.5187 7.08305C42.2048 4.40508 38.5215 3.34266 35.0966 4.42922C35.0649 4.40801 35.0334 4.38856 35.0027 4.37168C34.2206 3.94325 33.3501 4.43438 32.2481 5.05629C31.6795 5.37715 31.0136 5.75297 30.379 5.97739C31.0786 2.67797 30.6352 1.78746 30.0915 1.3677C29.8858 1.20903 29.3188 0.887464 28.4967 1.32914C27.4343 1.9002 26.5234 2.58399 25.6424 3.24516C23.9381 4.52438 22.3283 5.7327 19.7769 5.99766C18.3622 6.14461 15.8717 6.71684 15.0866 8.89711C15.0527 8.99098 15.0267 9.0866 15.0068 9.18293C11.3083 11.7363 9.02786 15.8913 9.02786 20.1266C9.02786 20.2303 9.03009 20.3337 9.03267 20.4369C8.26146 20.5082 7.53243 20.8295 6.93841 21.3777C5.98568 22.2571 5.55103 23.5534 5.74603 24.9348C6.05329 27.1057 7.74876 28.9316 9.77962 29.4221C9.84009 30.8173 10.3728 32.0575 11.3488 33.099C8.7649 33.0629 6.44318 32.6532 4.76294 31.9137C3.50435 31.3589 2.21927 31.5211 1.32548 32.3472C0.338175 33.2597 0.0363004 34.8103 0.556379 36.2977C1.05653 37.7282 3.03618 41.0659 10.6701 41.7961C10.5937 42.0052 10.4483 42.4275 10.4474 42.4305C10.269 42.957 10.1089 43.4788 9.9704 43.9917C9.94849 44.0738 9.89071 44.147 9.80974 44.1935C8.99716 44.664 8.24364 45.1778 7.57029 45.7209C7.19236 46.0256 7.13318 46.5789 7.43786 46.9568C7.61154 47.1722 7.86595 47.284 8.12259 47.284C8.3163 47.284 8.5113 47.2202 8.67372 47.0892C9.24642 46.6274 9.88743 46.1877 10.5777 45.7815C11.6625 46.7836 12.6617 48.3613 13.3182 50.1379C14.0488 52.115 14.2695 54.0698 13.9602 55.7235L6.43122 56.918C5.43068 57.0768 4.42966 56.6739 3.81818 55.8661L2.02286 53.492C1.87321 53.2941 1.92103 53.0909 1.94857 53.0128C1.97587 52.9351 2.0654 52.7479 2.30505 52.6877C2.86696 52.5464 3.37111 52.4909 3.80294 52.5221C4.56173 52.5763 5.26532 52.0821 5.47732 51.3436C5.61091 50.8764 5.83685 50.3807 6.14868 49.8702C6.40181 49.4561 6.27114 48.9151 5.857 48.6621C5.44263 48.4089 4.90169 48.5394 4.6488 48.9538C4.27497 49.5655 3.99525 50.1735 3.8163 50.762C3.2265 50.7338 2.57458 50.8076 1.87661 50.983C1.13704 51.1688 0.544191 51.7092 0.290714 52.4289C0.0370035 53.1493 0.160402 53.943 0.620949 54.5522L2.4165 56.9266C3.42079 58.2534 5.06493 58.9159 6.7072 58.6541L14.2665 57.4547C14.3136 57.4472 14.3614 57.4504 14.4075 57.4627C14.7238 57.5573 16.9494 58.8947 21.9931 58.8947H23.2388C28.7423 58.8947 30.5645 57.3905 30.9677 57.4553L38.5234 58.6541C40.1663 58.9145 41.8104 58.2532 42.8147 56.9263L44.6093 54.553C45.0704 53.9445 45.1945 53.1511 44.941 52.4304C44.6878 51.71 44.0946 51.169 43.3545 50.9831C42.6568 50.8076 42.0054 50.7338 41.4156 50.762C40.6957 48.4002 38.4631 45.9517 35.419 44.1925C35.3403 44.1472 35.2822 44.0732 35.2599 43.9903C35.1233 43.4818 34.9637 42.9607 34.7845 42.4325C34.7829 42.4274 34.7811 42.4223 34.7795 42.4172C34.7094 42.2112 34.6371 42.0043 34.5609 41.7963C42.1942 41.067 44.1749 37.7285 44.675 36.2981C45.1951 34.8107 44.8931 33.2599 43.9058 32.3473C43.0119 31.521 41.7267 31.3589 40.4681 31.9137C38.7806 32.657 36.4442 33.0668 33.8421 33.0995C34.8272 32.0626 35.3873 30.8232 35.451 29.4227C36.9968 29.0501 38.3474 27.9029 39.0405 26.4183C39.3573 26.6708 41.9785 28.7563 43.071 29.6364C43.4905 29.974 44.0045 30.1426 44.5186 30.1426C45.0326 30.1426 45.5467 29.9739 45.966 29.6364C47.0993 28.7243 51.1373 25.5226 52.0176 24.8086C52.3946 24.5029 52.4524 23.9493 52.1467 23.5724C51.8409 23.1955 51.2876 23.1375 50.9104 23.4434C50.0377 24.1513 46.0024 27.351 44.8639 28.267C44.664 28.4282 44.3735 28.4283 44.1736 28.2673C43.0772 27.3841 40.0275 24.9577 39.5215 24.5529C39.5932 23.3169 39.1571 22.1755 38.2927 21.3778C37.6988 20.8294 36.9696 20.5082 36.1984 20.4368C36.2852 17.0701 34.9304 13.7643 32.5755 11.2238C34.2302 9.54375 35.4969 7.45266 35.6837 6.08766C38.6253 5.18039 41.7926 6.23918 43.5924 8.74406C43.8077 9.04278 44.1527 9.22055 44.5215 9.21961C44.8874 9.21879 45.2334 9.03973 45.4453 8.74313C47.2645 6.21422 50.4801 5.15825 53.4463 6.11578C55.2636 6.70219 56.7437 7.96125 57.6138 9.66094C58.4839 11.3604 58.64 13.2972 58.0535 15.1143C57.421 17.0741 56.2413 18.7272 53.9815 20.82C53.6254 21.1498 53.604 21.7059 53.9339 22.0621C54.2633 22.4176 54.8191 22.4399 55.176 22.1097C57.6422 19.8253 59.0031 17.8948 59.7263 15.6541C60.4568 13.3904 60.2622 10.9775 59.1781 8.85996ZM7.4865 24.6889C7.37341 23.8877 7.60825 23.1517 8.13056 22.6695C8.43653 22.387 8.81271 22.2224 9.21068 22.1873C9.43685 23.4522 9.87255 24.6724 10.517 25.8333C10.6073 25.9957 10.6136 26.1879 10.5333 26.3488C10.3085 26.8002 10.136 27.237 10.0106 27.6586C8.8515 27.2929 7.70142 26.2069 7.4865 24.6889ZM21.9931 57.1369C19.4656 57.1369 17.3449 56.7864 15.6768 56.0966C16.4768 51.9288 14.3949 46.8458 11.6796 44.4079C11.7548 44.1309 11.8387 43.8503 11.927 43.568H33.3044C33.3929 43.8512 33.4767 44.1321 33.5515 44.4081C30.8362 46.8462 28.7545 51.9291 29.5545 56.0966C27.8851 56.7864 25.7647 57.1369 23.2388 57.1369H21.9931ZM39.755 51.3445C39.967 52.0825 40.6679 52.5795 41.4274 52.5221C41.8601 52.4904 42.364 52.5463 42.9261 52.6879C43.166 52.7481 43.2555 52.9356 43.2829 53.0135C43.3104 53.0914 43.3581 53.2938 43.2078 53.492L41.4129 55.8657C40.8013 56.6738 39.8004 57.0775 38.7991 56.918L31.2711 55.7236C30.9616 54.0698 31.1824 52.1152 31.9131 50.1379C32.5695 48.3615 33.5686 46.7841 34.6533 45.782C38.5591 48.0768 39.5455 50.6157 39.755 51.3445ZM41.1766 33.5223C41.7927 33.2509 42.3381 33.292 42.7125 33.6382C43.1856 34.0753 43.3045 34.8918 43.0156 35.7179C42.704 36.6091 41.1181 39.559 33.7978 40.0969C33.3941 40.125 33.0238 40.346 32.8071 40.6879C32.5954 41.0217 32.5522 41.4388 32.6879 41.8102H12.5427C12.6786 41.4408 12.6365 41.0247 12.426 40.6906C12.2096 40.3472 11.839 40.1254 11.4372 40.0972C4.11337 39.559 2.52724 36.6089 2.21564 35.7176C1.92677 34.8914 2.04571 34.0752 2.51857 33.6381C2.89286 33.292 3.43825 33.2507 4.05443 33.5224C6.48618 34.5931 9.89107 35.0418 13.6638 34.7953C13.6964 34.8121 13.7283 34.8292 13.7612 34.8458C15.087 35.5129 16.6994 35.9925 18.5268 36.2748C18.8737 38.618 20.696 40.4159 22.871 40.4159C25.0814 40.4159 26.9161 38.5743 27.2276 36.1836C28.8808 35.8822 30.3251 35.4117 31.5224 34.793C35.3164 35.0448 38.7375 34.5967 41.1766 33.5223ZM20.3652 36.4859C21.0903 36.5421 21.8404 36.5723 22.6154 36.5723C23.5843 36.5723 24.5106 36.5273 25.3899 36.44C25.0472 37.7254 24.0477 38.6583 22.8709 38.6583C21.7125 38.6582 20.7206 37.746 20.3652 36.4859ZM37.1001 22.6696C37.6226 23.1517 37.8574 23.8877 37.7443 24.6886C37.5293 26.2078 36.3792 27.2939 35.2202 27.6591C35.0947 27.2371 34.9221 26.7998 34.6968 26.3475C34.617 26.188 34.6234 25.9957 34.7141 25.8328C35.3584 24.6735 35.7942 23.4533 36.0202 22.1875C36.4182 22.2224 36.7944 22.3872 37.1001 22.6696ZM33.1781 24.9783C32.805 25.6486 32.7851 26.4543 33.1241 27.1323C33.5007 27.8888 33.6998 28.5878 33.6998 29.1534C33.6998 30.8552 32.6829 32.2339 30.6772 33.2511C28.6889 34.2594 25.8258 34.8147 22.6154 34.8147C19.6999 34.8147 16.5059 34.3322 14.2986 33.1433C14.2913 33.1391 14.2837 33.1354 14.2763 33.1313C12.6248 32.2354 11.531 30.9414 11.531 29.1534C11.531 28.5878 11.7301 27.8889 12.1063 27.1336C12.4459 26.454 12.4259 25.6485 12.0534 24.9793C11.2122 23.464 10.7857 21.8314 10.7857 20.1267C10.7857 16.6685 12.561 13.262 15.4766 11.0167C16.67 12.6505 18.2553 14.2276 19.8526 15.3642C20.9072 16.1147 22.2948 16.902 23.4759 16.9018C23.7836 16.9018 24.0777 16.8483 24.3479 16.7269C25.3426 16.2795 25.5341 15.2544 25.4433 14.261C27.3246 14.5414 29.343 13.8959 31.2649 12.396C33.2941 14.5736 34.4451 17.3513 34.4451 20.1267C34.4451 21.8333 34.0187 23.4657 33.1781 24.9783ZM30.7888 10.502C28.3093 12.7376 26.3372 12.763 25.119 12.3901C24.7071 12.2641 24.2559 12.3675 23.9416 12.6604C23.6297 12.9506 23.4952 13.3893 23.5905 13.8049C23.8324 14.8598 23.6325 15.1201 23.6317 15.1212C23.4888 15.217 22.6002 15.1329 21.0003 14.0225C19.485 12.971 17.9129 11.4082 16.7951 9.84199C16.721 9.73828 16.7 9.60457 16.7403 9.49266C17.081 8.54649 18.2239 7.92621 19.9584 7.74598C22.994 7.43063 24.8767 6.01746 26.6974 4.65082C27.456 4.08153 28.1778 3.53965 28.9799 3.07278C28.9944 3.65145 28.8765 4.76086 28.4711 6.4391C28.3802 6.81563 28.4775 7.21489 28.7313 7.50739C28.986 7.80071 29.3692 7.95387 29.756 7.91637C30.9623 7.80012 32.154 7.12758 33.1118 6.58711C33.349 6.45317 33.6329 6.29297 33.8774 6.16934C33.5934 7.10168 32.4916 8.96848 30.7888 10.502Z" fill="white"/>
<path d="M17.5488 22.9362C17.0634 22.9362 16.6699 23.3296 16.6699 23.8151V24.3299C16.6699 24.8153 17.0634 25.2088 17.5488 25.2088C18.0342 25.2088 18.4277 24.8154 18.4277 24.3299V23.8151C18.4276 23.3297 18.0342 22.9362 17.5488 22.9362Z" fill="white"/>
<path d="M27.6826 22.9362C27.1972 22.9362 26.8037 23.3296 26.8037 23.8151V24.3299C26.8037 24.8153 27.1972 25.2088 27.6826 25.2088C28.168 25.2088 28.5615 24.8154 28.5615 24.3299V23.8151C28.5614 23.3297 28.168 22.9362 27.6826 22.9362Z" fill="white"/>
<path d="M19.5878 21.5705C19.8387 21.1548 19.7051 20.6147 19.2896 20.3638C18.1507 19.6764 16.9466 19.6764 15.8076 20.3638C15.3921 20.6147 15.2586 21.1548 15.5094 21.5705C15.7602 21.986 16.3004 22.1196 16.716 21.8687C17.2919 21.5211 17.8054 21.5211 18.3813 21.8687C18.5233 21.9544 18.68 21.9953 18.8347 21.9953C19.1323 21.9951 19.4227 21.8438 19.5878 21.5705Z" fill="white"/>
<path d="M29.4234 20.3638C28.2844 19.6764 27.0805 19.6761 25.9414 20.3638C25.5259 20.6147 25.3924 21.1548 25.6432 21.5705C25.8939 21.986 26.4342 22.1196 26.8498 21.8687C27.4258 21.5211 27.9393 21.5211 28.5151 21.8687C28.6571 21.9544 28.8138 21.9953 28.9685 21.9953C29.2662 21.9953 29.5566 21.844 29.7218 21.5705C29.9725 21.1548 29.8389 20.6147 29.4234 20.3638Z" fill="white"/>
<path d="M24.9126 26.5179H20.3176C19.6268 26.5179 19.0387 27.0145 18.9194 27.6985C18.8783 27.9341 18.8574 28.1754 18.8574 28.416C18.8574 30.6005 20.543 32.3777 22.615 32.3777C24.687 32.3777 26.3727 30.6005 26.3727 28.416C26.3727 28.1754 26.3518 27.9341 26.3108 27.6988C26.1915 27.0145 25.6036 26.5179 24.9126 26.5179ZM22.6152 30.6199C21.5124 30.6199 20.6154 29.6312 20.6154 28.416C20.6154 28.3692 20.6168 28.3223 20.6195 28.2757H24.611C24.6137 28.3223 24.6151 28.3692 24.6151 28.416C24.615 29.6311 23.7179 30.6199 22.6152 30.6199Z" fill="white"/>
</g>
<defs>
<clipPath id="clip0_279_1069">
<rect width="60" height="60" fill="white" transform="translate(0.161133)"/>
</clipPath>
</defs>
</svg>
