<svg width="19" height="19" viewBox="0 0 19 19" fill="none" xmlns="http://www.w3.org/2000/svg">
<path d="M6.54008 3.11588C7.69848 1.03863 8.27722 0 9.14304 0C10.0089 0 10.5876 1.03863 11.746 3.11588L12.0459 3.65347C12.375 4.2441 12.5396 4.53941 12.7956 4.73416C13.0516 4.9289 13.3716 5.00113 14.0116 5.14558L14.5931 5.27724C16.8422 5.7865 17.9659 6.04067 18.2338 6.90101C18.5007 7.76043 17.7346 8.65734 16.2013 10.4503L15.8045 10.9138C15.3693 11.423 15.1508 11.6781 15.053 11.9926C14.9551 12.3081 14.9881 12.6482 15.0539 13.3275L15.1142 13.9465C15.3455 16.3391 15.4616 17.535 14.7613 18.0662C14.061 18.5983 13.0077 18.1129 10.903 17.1437L10.3572 16.8932C9.75927 16.6171 9.4603 16.4799 9.14304 16.4799C8.82579 16.4799 8.52682 16.6171 7.92887 16.8932L7.38396 17.1437C5.27837 18.1129 4.22512 18.5974 3.52569 18.0671C2.82443 17.535 2.94055 16.3391 3.17186 13.9465L3.2322 13.3284C3.29803 12.6482 3.33095 12.3081 3.2322 11.9936C3.13529 11.6781 2.91678 11.423 2.48158 10.9147L2.08478 10.4503C0.551528 8.65826 -0.214642 7.76135 0.052329 6.90101C0.320214 6.04067 1.44478 5.78558 3.69392 5.27724L4.2754 5.14558C4.91448 5.00113 5.23357 4.9289 5.49048 4.73416C5.74648 4.53941 5.91105 4.2441 6.24019 3.65347L6.54008 3.11588Z" fill="#FFB800"/>
</svg>
