<svg width="28" height="32" viewBox="0 0 28 32" fill="none" xmlns="http://www.w3.org/2000/svg">
<path d="M22.8248 18.4232C23.1159 19.095 23.2852 19.9171 23.3226 20.8678C24.3048 21.0929 25.0399 21.9714 25.0399 23.0207C25.0399 24.2392 24.0485 25.2307 22.8299 25.2307C21.6114 25.2307 20.6199 24.2392 20.6199 23.0207C20.6199 21.9833 21.339 21.1139 22.3039 20.8763C22.2614 19.9321 22.0357 18.4956 21.1116 17.7864C20.64 17.6643 20.1551 17.5759 19.6577 17.5303C19.621 19.1844 14.1538 23.2665 14.1538 23.2665C14.1538 23.2665 8.6849 19.1851 8.64784 17.531C8.09534 17.5813 7.5578 17.6823 7.03862 17.8278C6.3644 18.3616 6.01556 19.3561 5.99754 20.8018C6.19576 20.9157 6.3559 21.0935 6.45416 21.3088C7.1804 21.6518 7.82198 22.3733 8.31328 23.4004C8.39556 23.5732 8.40644 23.7683 8.34592 23.9465C8.64036 24.7043 8.80866 25.5326 8.80866 26.2282C8.80866 27.203 8.80866 28.1247 7.74616 28.3614C7.63124 28.4569 7.48708 28.5096 7.33578 28.5096H6.62586C6.26988 28.5096 5.9802 28.2193 5.9802 27.8643L5.98088 27.8391C5.99448 27.4957 6.28178 27.2186 6.62586 27.2186H7.33578C7.40854 27.2186 7.4796 27.2309 7.54828 27.2547C7.59112 27.2428 7.60472 27.2329 7.60506 27.2326C7.68394 27.0925 7.68394 26.5091 7.68394 26.2289C7.68394 25.6638 7.5425 24.9814 7.29464 24.3473C7.16612 24.2742 7.06208 24.1637 6.99816 24.0301C6.56772 23.1288 5.98224 22.5467 5.50692 22.5467C5.02072 22.5467 4.406 23.1764 3.97726 24.1121C3.90722 24.2647 3.78448 24.3888 3.63352 24.4633C3.40946 25.0698 3.28638 25.6944 3.28638 26.2286C3.28638 26.4638 3.28638 27.0881 3.37614 27.235C3.37716 27.235 3.39722 27.2472 3.45366 27.2611C3.5271 27.2329 3.60598 27.2183 3.68486 27.2183H4.39614C4.72764 27.2183 5.00474 27.4706 5.03806 27.7987L5.04146 27.8385C5.04146 28.2196 4.75178 28.51 4.39614 28.51H3.68486C3.54376 28.51 3.40742 28.4627 3.29522 28.377C2.88892 28.3005 2.60264 28.1213 2.42142 27.8296C2.20178 27.477 2.16166 27.014 2.16166 26.2286C2.16166 25.5397 2.32078 24.7462 2.60978 23.9883C2.56728 23.8261 2.58156 23.6568 2.65228 23.5041C2.95318 22.8459 3.33602 22.2822 3.75898 21.8745C3.99154 21.6505 4.24144 21.4703 4.5029 21.3387C4.60082 21.1095 4.77082 20.9215 4.97856 20.8028C4.98944 19.8967 5.12884 19.1144 5.38656 18.4694C2.43604 19.9661 0.414062 23.0271 0.414062 26.5621C0.414062 31.0793 3.71444 31.3003 8.03482 31.3003C8.5064 31.3003 8.9892 31.2976 9.48254 31.2976H18.8213C19.314 31.2976 19.7968 31.3003 20.2684 31.3003C24.5894 31.3003 27.8912 31.0793 27.8912 26.5621C27.8908 22.9897 25.8257 19.9018 22.8248 18.4232Z" fill="#04285B"/>
<path d="M14.155 18.7176C18.3316 18.7176 21.717 12.4375 21.717 8.26124C21.717 4.0857 18.3316 0.700317 14.155 0.700317C9.97913 0.700317 6.59375 4.0857 6.59375 8.26124C6.59375 12.4375 9.97913 18.7176 14.155 18.7176Z" fill="#04285B"/>
<path d="M22.8296 24.0406C23.3929 24.0406 23.8496 23.5839 23.8496 23.0206C23.8496 22.4573 23.3929 22.0006 22.8296 22.0006C22.2662 22.0006 21.8096 22.4573 21.8096 23.0206C21.8096 23.5839 22.2662 24.0406 22.8296 24.0406Z" fill="#04285B"/>
</svg>
