<svg width="14" height="14" viewBox="0 0 14 14" fill="none" xmlns="http://www.w3.org/2000/svg">
<path fill-rule="evenodd" clip-rule="evenodd" d="M8.24589 9.28802L12.742 13.7839C13.0294 14.072 13.4966 14.072 13.7839 13.7839C14.072 13.4966 14.072 13.0295 13.7839 12.7421L9.28851 8.24619C9.93324 7.38488 10.3157 6.31579 10.3157 5.15755C10.3157 2.31132 8.00495 0 5.15783 0C2.31144 0 0 2.31132 0 5.15755C0 8.00453 2.31144 10.3151 5.15783 10.3151C6.31539 10.3151 7.38453 9.93345 8.24589 9.28802ZM5.15783 1.47359C7.19148 1.47359 8.84199 3.12474 8.84199 5.15755C8.84199 7.1911 7.19148 8.84152 5.15783 8.84152C3.12491 8.84152 1.47366 7.1911 1.47366 5.15755C1.47366 3.12474 3.12491 1.47359 5.15783 1.47359Z" fill="white"/>
</svg>
