<svg width="42" height="43" viewBox="0 0 42 43" fill="none" xmlns="http://www.w3.org/2000/svg">
<path d="M24.8465 8.75784C22.9005 0.973044 12.0905 1.23525 10.5225 9.10789C9.5958 13.6611 13.1762 18.0991 17.7187 18.0468C22.3978 18.1111 26.0099 13.3901 24.8465 8.75784ZM11.771 9.57644C12.5201 8.74996 13.4568 8.12324 14.4791 7.70102C16.196 9.53678 19.3403 9.50738 21.0205 7.63475C21.9803 8.00219 22.8712 8.55128 23.6148 9.272C24.4259 13.0345 21.4876 16.7483 17.7187 16.7031C14.0658 16.739 11.1629 13.2617 11.771 9.57644Z" fill="#04285B"/>
<path d="M23.1722 19.0476C22.1812 18.6714 21.1378 18.4766 20.0747 18.4766H19.6087C19.2806 18.4766 19.005 18.7252 18.9591 19.0544C18.8934 19.5583 18.4603 19.9412 17.955 19.9412H17.4825C16.9772 19.9412 16.5441 19.5583 16.4784 19.0544C16.4325 18.7252 16.1569 18.4766 15.8287 18.4766C10.9182 18.1662 6.48883 22.4296 6.56257 27.4864C6.56249 27.4864 6.56249 29.2266 6.56249 29.2266H5.90624C5.54531 29.2266 5.24999 28.9242 5.24999 28.5547V11.7578C5.24999 11.3883 5.54531 11.0859 5.90624 11.0859H9.08904C9.05696 10.6445 9.06449 10.1818 9.10875 9.74219H5.90625C4.82342 9.74219 3.9375 10.6492 3.9375 11.7578V28.5547C3.9375 29.6633 4.82342 30.5703 5.90625 30.5703H33.4688C34.5516 30.5703 35.4375 29.6633 35.4375 28.5547V19.1484H34.125V28.5547C34.125 28.9242 33.8297 29.2266 33.4688 29.2266H28.875V27.4864C28.875 23.7575 26.5847 20.3645 23.1722 19.0476ZM17.0625 29.2266H7.87499V27.4864C7.87499 24.5839 9.50247 21.9233 12.0028 20.6467C12.557 23.0334 14.6772 24.9307 17.0625 25.156V29.2266ZM27.5625 29.2266H18.375V25.1545C20.8374 24.8795 22.8505 23.0804 23.4478 20.6467C25.9416 21.93 27.5625 24.5906 27.5625 27.4864V29.2266Z" fill="#04285B"/>
<path d="M36.75 29.2266C36.75 30.7114 35.5753 31.9141 34.125 31.9141H5.25C3.79967 31.9141 2.625 30.7114 2.625 29.2266V11.0859C2.625 9.60108 3.79967 8.39844 5.25 8.39844H9.32533C9.44344 7.93484 9.5878 7.48469 9.77157 7.05469H5.25C3.07781 7.05469 1.3125 8.86203 1.3125 11.0859V29.2266C1.3125 31.4505 3.07781 33.2578 5.25 33.2578H15.75V35.2734C12.5053 35.0214 12.1732 39.8127 15.4219 39.9766L23.9531 39.9766C27.198 39.814 26.8739 35.0226 23.625 35.2734V33.2578H34.125C36.2972 33.2578 38.0625 31.4505 38.0625 29.2266V18.9805C37.6425 19.0879 37.2028 19.1484 36.75 19.1484V29.2266ZM23.9531 36.6172C25.2444 36.6374 25.2496 38.6114 23.9531 38.6328H15.4219C14.1298 38.6123 14.126 36.6384 15.4219 36.6172H16.1044C16.5572 37.4234 17.4038 37.9609 18.375 37.9609H21C21.9712 37.9609 22.8178 37.4234 23.2706 36.6172H23.9531Z" fill="#04285B"/>
<path d="M36.75 3.02344H29.5312C27.36 3.02344 25.5938 4.83173 25.5938 7.05469V13.7734C25.5938 15.8461 27.1293 17.5586 29.0974 17.7804C28.834 18.3703 28.4033 18.8899 27.8535 19.2665C27.6234 19.424 27.5151 19.7127 27.5824 19.9876C27.6963 20.5072 28.256 20.5307 28.6821 20.5204C30.583 20.523 32.4489 19.4961 33.4207 17.8047H36.75C38.9213 17.8047 40.6875 15.9964 40.6875 13.7734V7.05469C40.6875 4.83173 38.9213 3.02344 36.75 3.02344ZM35.4375 13.7734H30.8437C29.9824 13.7592 29.9801 12.4443 30.8438 12.4297C30.8438 12.4297 35.4375 12.4297 35.4375 12.4297C36.2988 12.4438 36.3012 13.7588 35.4375 13.7734ZM36.75 9.74219H29.5312C28.6708 9.72829 28.6669 8.41316 29.5313 8.39844C29.5313 8.39844 36.75 8.39844 36.75 8.39844C37.6105 8.41234 37.6144 9.72747 36.75 9.74219Z" fill="#04285B"/>
</svg>
