<svg width="17" height="17" viewBox="0 0 17 17" fill="none" xmlns="http://www.w3.org/2000/svg">
<path d="M8.28027 16.5947C10.402 16.5947 12.4368 15.7519 13.9371 14.2516C15.4374 12.7513 16.2803 10.7165 16.2803 8.59473C16.2803 6.47299 15.4374 4.43816 13.9371 2.93787C12.4368 1.43758 10.402 0.594727 8.28027 0.594727C6.15854 0.594727 4.12371 1.43758 2.62342 2.93787C1.12313 4.43816 0.280273 6.47299 0.280273 8.59473C0.280273 10.7165 1.12313 12.7513 2.62342 14.2516C4.12371 15.7519 6.15854 16.5947 8.28027 16.5947ZM11.9873 7.30173L7.98427 11.3017C7.8914 11.3947 7.78111 11.4685 7.65971 11.5188C7.53832 11.5691 7.40819 11.595 7.27677 11.595C7.14536 11.595 7.01523 11.5691 6.89383 11.5188C6.77244 11.4685 6.66215 11.3947 6.56927 11.3017L4.57227 9.30173C4.38477 9.11395 4.27953 8.85938 4.27972 8.59402C4.2799 8.32866 4.3855 8.07423 4.57327 7.88673C4.76105 7.69922 5.01562 7.59398 5.28098 7.59417C5.54634 7.59436 5.80077 7.69995 5.98827 7.88773L7.27827 9.18073L10.5733 5.88773C10.7619 5.70557 11.0145 5.60477 11.2767 5.60705C11.5389 5.60933 11.7897 5.7145 11.9751 5.89991C12.1605 6.08532 12.2657 6.33613 12.2679 6.59833C12.2702 6.86052 12.1694 7.11312 11.9873 7.30173Z" fill="#B0B0B0"/>
</svg>
