<svg width="25" height="26" viewBox="0 0 25 26" fill="none" xmlns="http://www.w3.org/2000/svg">
<path d="M6.25 23.9375C6.13516 23.9375 6.01953 23.9117 5.91094 23.8602C5.64141 23.7297 5.46875 23.457 5.46875 23.1562V19.25H3.125C1.83281 19.25 0.78125 18.1984 0.78125 16.9062V4.40625C0.78125 3.11406 1.83281 2.0625 3.125 2.0625H21.875C23.1672 2.0625 24.2188 3.11406 24.2188 4.40625V16.9062C24.2188 18.1984 23.1672 19.25 21.875 19.25H12.3836L6.73828 23.7664C6.59688 23.8797 6.42422 23.9375 6.25 23.9375ZM3.125 3.625C2.69375 3.625 2.34375 3.97578 2.34375 4.40625V16.9062C2.34375 17.3367 2.69375 17.6875 3.125 17.6875H6.25C6.68203 17.6875 7.03125 18.0367 7.03125 18.4688V21.5313L11.6211 17.8586C11.7602 17.7477 11.9312 17.6875 12.1094 17.6875H21.875C22.3062 17.6875 22.6562 17.3367 22.6562 16.9062V4.40625C22.6562 3.97578 22.3062 3.625 21.875 3.625H3.125Z" fill="white"/>
<path d="M18.75 9.875H6.25C5.81797 9.875 5.46875 9.525 5.46875 9.09375C5.46875 8.6625 5.81797 8.3125 6.25 8.3125H18.75C19.182 8.3125 19.5312 8.6625 19.5312 9.09375C19.5312 9.525 19.182 9.875 18.75 9.875Z" fill="white"/>
<path d="M12.5 13H6.25C5.81797 13 5.46875 12.65 5.46875 12.2188C5.46875 11.7875 5.81797 11.4375 6.25 11.4375H12.5C12.932 11.4375 13.2812 11.7875 13.2812 12.2188C13.2812 12.65 12.932 13 12.5 13Z" fill="white"/>
</svg>
