<svg width="27" height="27" viewBox="0 0 27 27" fill="none" xmlns="http://www.w3.org/2000/svg">
<g clip-path="url(#clip0_895_1062)">
<path d="M0.256205 14.5803C-0.0853837 13.9038 -0.0853837 13.096 0.256205 12.4194L0.609923 11.7187C0.687027 11.566 0.713977 11.3959 0.687871 11.2268L0.567997 10.4512C0.452183 9.70218 0.701794 8.93388 1.23577 8.396L1.78863 7.83897C1.90919 7.71751 1.98741 7.56404 2.01478 7.39512L2.1404 6.62039C2.26043 5.88057 2.72606 5.23326 3.3882 4.88386L4.06842 4.48268C4.08161 4.47493 4.09495 4.46754 4.10856 4.46058C4.26071 4.38237 4.38248 4.2606 4.46069 4.10839L4.81963 3.41045C5.15806 2.75227 5.84814 2.26554 6.62061 2.14024L7.39528 2.01461C7.56421 1.98719 7.71768 1.90903 7.83913 1.78852L8.39616 1.23556C8.93404 0.701631 9.70218 0.452177 10.4513 0.56778L11.2269 0.687655C11.3961 0.713814 11.5662 0.686864 11.7189 0.60976L12.4195 0.256042C13.0961 -0.0854939 13.9039 -0.0855466 14.5804 0.256042L15.2811 0.60976C15.4338 0.686812 15.6038 0.713708 15.773 0.687708L16.5487 0.567833C17.2978 0.451966 18.066 0.701684 18.6038 1.23561L19.1609 1.78847C19.2823 1.90903 19.4358 1.98719 19.6047 2.01461L20.3795 2.14024C21.1519 2.26554 21.842 2.75222 22.1804 3.41045L22.5393 4.10839C22.6176 4.26054 22.7393 4.38237 22.8915 4.46058L23.5895 4.81952C24.2477 5.15795 24.7345 5.84803 24.8597 6.62044L24.9854 7.39523C25.0128 7.56415 25.091 7.71757 25.2115 7.83902L25.7643 8.39605C26.2983 8.93393 26.5479 9.70218 26.4321 10.4512L26.3122 11.2269C26.286 11.3959 26.313 11.566 26.3901 11.7187L26.7438 12.4194C27.0854 13.0959 27.0854 13.9037 26.7438 14.5803L26.3901 15.2809C26.313 15.4337 26.2861 15.6037 26.3122 15.7729L26.4321 16.5486C26.5479 17.2976 26.2982 18.0658 25.7643 18.6037L25.2114 19.1608C25.0909 19.2822 25.0126 19.4356 24.9853 19.6046L24.8596 20.3793C24.7343 21.1517 24.2476 21.8418 23.5894 22.1803L22.8915 22.5391C22.7393 22.6174 22.6175 22.7392 22.5393 22.8914L22.1804 23.5894C21.8419 24.2476 21.1518 24.7343 20.3794 24.8595L19.6047 24.9852C19.4357 25.0126 19.2823 25.0908 19.1609 25.2113L18.6038 25.7643C18.0658 26.2982 17.2976 26.5477 16.5487 26.432L15.773 26.3121C15.604 26.2859 15.4338 26.3129 15.2811 26.39L14.5804 26.7437C14.2421 26.9145 13.8711 26.9999 13.5 26.9999C13.1289 26.9999 12.7578 26.9145 12.4195 26.7437L11.7189 26.39C11.5662 26.3129 11.396 26.286 11.227 26.3121L10.4513 26.4319C9.70234 26.5477 8.93409 26.2981 8.39616 25.7642L7.83913 25.2113C7.71773 25.0907 7.56426 25.0125 7.39528 24.9851L6.62061 24.8594C5.88079 24.7395 5.23342 24.2738 4.88403 23.6116L4.48284 22.9314C4.47509 22.9182 4.46771 22.9049 4.46074 22.8913C4.38253 22.7391 4.26071 22.6174 4.10856 22.5391L3.41061 22.1802C2.73661 21.8337 2.26175 21.1801 2.1404 20.432L2.01478 19.6573C1.98735 19.4884 1.90919 19.3349 1.78863 19.2134C1.78025 19.205 1.2219 18.5896 1.2219 18.5896C0.697523 18.0525 0.453185 17.291 0.567997 16.5486L0.687871 15.7729C0.714029 15.6038 0.68708 15.4337 0.609976 15.2809L0.256205 14.5803Z" fill="url(#paint0_linear_895_1062)"/>
<path d="M13.5002 3.95429C18.7409 3.95429 23.0459 8.26046 23.0459 13.5C23.0459 18.7407 18.7397 23.0457 13.5002 23.0457C8.2595 23.0457 3.95449 18.7395 3.95449 13.5C3.95449 8.2593 8.26071 3.95429 13.5002 3.95429ZM7.98626 11.3186L9.56842 17.6473C9.65644 17.9994 9.97287 18.2465 10.3359 18.2465H16.6645C17.0275 18.2465 17.3439 17.9994 17.432 17.6473L19.0141 11.3186C19.1073 10.9458 18.9191 10.5599 18.5679 10.4038C18.2168 10.2478 17.8042 10.3667 17.5899 10.6857C17.3734 11.0039 16.5903 11.9178 15.8734 11.9178C15.7424 11.9178 15.3366 11.6129 14.9184 10.6702C14.5433 9.82458 14.2913 8.73643 14.2913 7.96243C14.2913 7.52555 13.9371 7.17135 13.5002 7.17135C13.0633 7.17135 12.7091 7.52555 12.7091 7.96243C12.7091 8.73643 12.4571 9.82458 12.0819 10.6702C11.6638 11.6129 11.258 11.9178 11.127 11.9178C10.3888 11.9178 9.58524 10.946 9.41047 10.6857C9.19619 10.3667 8.78356 10.2478 8.43248 10.4038C8.08129 10.5599 7.89307 10.9458 7.98626 11.3186Z" fill="url(#paint1_linear_895_1062)"/>
</g>
<defs>
<linearGradient id="paint0_linear_895_1062" x1="13.5" y1="26.9999" x2="13.5" y2="-0.000110388" gradientUnits="userSpaceOnUse">
<stop stop-color="#FD5900"/>
<stop offset="1" stop-color="#FFDE00"/>
</linearGradient>
<linearGradient id="paint1_linear_895_1062" x1="13.5002" y1="23.0457" x2="13.5002" y2="3.95429" gradientUnits="userSpaceOnUse">
<stop stop-color="#FFE59A"/>
<stop offset="1" stop-color="#FFFFD5"/>
</linearGradient>
<clipPath id="clip0_895_1062">
<rect width="27" height="27" fill="white" transform="matrix(-1 0 0 1 27 0)"/>
</clipPath>
</defs>
</svg>
