<svg width="25" height="24" viewBox="0 0 25 24" fill="none" xmlns="http://www.w3.org/2000/svg">
<g clip-path="url(#clip0_895_1111)">
<path d="M18.5 12C16.7003 12 15.0899 12.7959 13.9904 14.0508L10.1819 11.7069C10.3769 11.1717 10.5002 10.6022 10.5002 9.99984C10.5002 9.60627 10.4438 9.22764 10.3577 8.85926L15.4202 6.52318C16.1534 7.41779 17.2529 7.9998 18.5003 7.9998C20.7083 7.9998 22.5002 6.20883 22.5002 3.9999C22.5002 1.79098 20.708 0 18.5 0C16.2902 0 14.5001 1.79098 14.5001 3.9999C14.5001 4.24383 14.5304 4.47932 14.5712 4.71182L9.51465 7.04584C8.60357 5.81039 7.15133 4.9998 5.5001 4.9998C2.73828 5.0001 0.5 7.23809 0.5 9.9999C0.5 12.7617 2.73828 15 5.5001 15C6.9374 15 8.22471 14.3847 9.13672 13.4121L12.9395 15.7521C12.6581 16.4472 12.5 17.2041 12.5 18C12.5 21.3144 15.1856 24 18.5 24C21.8126 24 24.5 21.3144 24.5 18C24.5 14.6856 21.8126 12 18.5 12Z" fill="white"/>
</g>
<defs>
<clipPath id="clip0_895_1111">
<rect width="24" height="24" fill="white" transform="translate(0.5)"/>
</clipPath>
</defs>
</svg>
