<svg width="36" height="36" viewBox="0 0 36 36" fill="none" xmlns="http://www.w3.org/2000/svg">
<g clip-path="url(#clip0_941_2627)">
<path fill-rule="evenodd" clip-rule="evenodd" d="M23.2673 27.5386L25.3883 29.6596C25.681 29.9522 26.1561 29.9522 26.4488 29.6596L30.6908 25.4176C30.9835 25.1249 30.9835 24.6497 30.6908 24.3571C30.3981 24.0644 29.923 24.0644 29.6303 24.3571L25.9186 28.0688L24.3278 26.4781C24.0351 26.1854 23.56 26.1854 23.2673 26.4781C22.9746 26.7707 22.9746 27.2459 23.2673 27.5386Z" fill="#04285B"/>
<path fill-rule="evenodd" clip-rule="evenodd" d="M9.75 14.4C9.75 13.9627 9.576 13.5427 9.267 13.233C8.95725 12.924 8.53725 12.75 8.1 12.75H6.9C6.46275 12.75 6.04275 12.924 5.733 13.233C5.424 13.5427 5.25 13.9627 5.25 14.4V15.6C5.25 16.0373 5.424 16.4573 5.733 16.767C6.04275 17.076 6.46275 17.25 6.9 17.25H8.1C8.53725 17.25 8.95725 17.076 9.267 16.767C9.576 16.4573 9.75 16.0373 9.75 15.6V14.4ZM8.25 14.4V15.6C8.25 15.6398 8.23425 15.678 8.20575 15.7058C8.178 15.7343 8.13975 15.75 8.1 15.75H6.9C6.86025 15.75 6.822 15.7343 6.79425 15.7058C6.76575 15.678 6.75 15.6398 6.75 15.6V14.4C6.75 14.3602 6.76575 14.322 6.79425 14.2942C6.822 14.2657 6.86025 14.25 6.9 14.25H8.1C8.13975 14.25 8.178 14.2657 8.20575 14.2942C8.23425 14.322 8.25 14.3602 8.25 14.4Z" fill="#04285B"/>
<path fill-rule="evenodd" clip-rule="evenodd" d="M9.75 20.4C9.75 19.9627 9.576 19.5427 9.267 19.233C8.95725 18.924 8.53725 18.75 8.1 18.75H6.9C6.46275 18.75 6.04275 18.924 5.733 19.233C5.424 19.5427 5.25 19.9627 5.25 20.4V21.6C5.25 22.0373 5.424 22.4573 5.733 22.767C6.04275 23.076 6.46275 23.25 6.9 23.25H8.1C8.53725 23.25 8.95725 23.076 9.267 22.767C9.576 22.4573 9.75 22.0373 9.75 21.6V20.4ZM8.25 20.4V21.6C8.25 21.6398 8.23425 21.678 8.20575 21.7058C8.178 21.7343 8.13975 21.75 8.1 21.75H6.9C6.86025 21.75 6.822 21.7343 6.79425 21.7058C6.76575 21.678 6.75 21.6398 6.75 21.6V20.4C6.75 20.3602 6.76575 20.322 6.79425 20.2942C6.822 20.2657 6.86025 20.25 6.9 20.25H8.1C8.13975 20.25 8.178 20.2657 8.20575 20.2942C8.23425 20.322 8.25 20.3602 8.25 20.4Z" fill="#04285B"/>
<path fill-rule="evenodd" clip-rule="evenodd" d="M9.75 26.4C9.75 25.9627 9.576 25.5427 9.267 25.233C8.95725 24.924 8.53725 24.75 8.1 24.75H6.9C6.46275 24.75 6.04275 24.924 5.733 25.233C5.424 25.5427 5.25 25.9627 5.25 26.4V27.6C5.25 28.0373 5.424 28.4573 5.733 28.767C6.04275 29.076 6.46275 29.25 6.9 29.25H8.1C8.53725 29.25 8.95725 29.076 9.267 28.767C9.576 28.4573 9.75 28.0373 9.75 27.6V26.4ZM8.25 26.4V27.6C8.25 27.6398 8.23425 27.678 8.20575 27.7058C8.178 27.7343 8.13975 27.75 8.1 27.75H6.9C6.86025 27.75 6.822 27.7343 6.79425 27.7058C6.76575 27.678 6.75 27.6398 6.75 27.6V26.4C6.75 26.3602 6.76575 26.322 6.79425 26.2942C6.822 26.2657 6.86025 26.25 6.9 26.25H8.1C8.13975 26.25 8.178 26.2657 8.20575 26.2942C8.23425 26.322 8.25 26.3602 8.25 26.4Z" fill="#04285B"/>
<path fill-rule="evenodd" clip-rule="evenodd" d="M15.75 14.4C15.75 13.9627 15.576 13.5427 15.267 13.233C14.9573 12.924 14.5373 12.75 14.1 12.75H12.9C12.4627 12.75 12.0427 12.924 11.733 13.233C11.424 13.5427 11.25 13.9627 11.25 14.4V15.6C11.25 16.0373 11.424 16.4573 11.733 16.767C12.0427 17.076 12.4627 17.25 12.9 17.25H14.1C14.5373 17.25 14.9573 17.076 15.267 16.767C15.576 16.4573 15.75 16.0373 15.75 15.6V14.4ZM14.25 14.4V15.6C14.25 15.6398 14.2342 15.678 14.2057 15.7058C14.178 15.7343 14.1398 15.75 14.1 15.75H12.9C12.8602 15.75 12.822 15.7343 12.7943 15.7058C12.7658 15.678 12.75 15.6398 12.75 15.6V14.4C12.75 14.3602 12.7658 14.322 12.7943 14.2942C12.822 14.2657 12.8602 14.25 12.9 14.25H14.1C14.1398 14.25 14.178 14.2657 14.2057 14.2942C14.2342 14.322 14.25 14.3602 14.25 14.4Z" fill="#04285B"/>
<path fill-rule="evenodd" clip-rule="evenodd" d="M15.75 20.4C15.75 19.9627 15.576 19.5427 15.267 19.233C14.9573 18.924 14.5373 18.75 14.1 18.75H12.9C12.4627 18.75 12.0427 18.924 11.733 19.233C11.424 19.5427 11.25 19.9627 11.25 20.4V21.6C11.25 22.0373 11.424 22.4573 11.733 22.767C12.0427 23.076 12.4627 23.25 12.9 23.25H14.1C14.5373 23.25 14.9573 23.076 15.267 22.767C15.576 22.4573 15.75 22.0373 15.75 21.6V20.4ZM14.25 20.4V21.6C14.25 21.6398 14.2342 21.678 14.2057 21.7058C14.178 21.7343 14.1398 21.75 14.1 21.75H12.9C12.8602 21.75 12.822 21.7343 12.7943 21.7058C12.7658 21.678 12.75 21.6398 12.75 21.6V20.4C12.75 20.3602 12.7658 20.322 12.7943 20.2942C12.822 20.2657 12.8602 20.25 12.9 20.25H14.1C14.1398 20.25 14.178 20.2657 14.2057 20.2942C14.2342 20.322 14.25 20.3602 14.25 20.4Z" fill="#04285B"/>
<path fill-rule="evenodd" clip-rule="evenodd" d="M15.75 26.4C15.75 25.9627 15.576 25.5427 15.267 25.233C14.9573 24.924 14.5373 24.75 14.1 24.75H12.9C12.4627 24.75 12.0427 24.924 11.733 25.233C11.424 25.5427 11.25 25.9627 11.25 26.4V27.6C11.25 28.0373 11.424 28.4573 11.733 28.767C12.0427 29.076 12.4627 29.25 12.9 29.25H14.1C14.5373 29.25 14.9573 29.076 15.267 28.767C15.576 28.4573 15.75 28.0373 15.75 27.6V26.4ZM14.25 26.4V27.6C14.25 27.6398 14.2342 27.678 14.2057 27.7058C14.178 27.7343 14.1398 27.75 14.1 27.75H12.9C12.8602 27.75 12.822 27.7343 12.7943 27.7058C12.7658 27.678 12.75 27.6398 12.75 27.6V26.4C12.75 26.3602 12.7658 26.322 12.7943 26.2942C12.822 26.2657 12.8602 26.25 12.9 26.25H14.1C14.1398 26.25 14.178 26.2657 14.2057 26.2942C14.2342 26.322 14.25 26.3602 14.25 26.4Z" fill="#04285B"/>
<path fill-rule="evenodd" clip-rule="evenodd" d="M21.75 14.4C21.75 13.9627 21.576 13.5427 21.267 13.233C20.9573 12.924 20.5373 12.75 20.1 12.75H18.9C18.4627 12.75 18.0427 12.924 17.733 13.233C17.424 13.5427 17.25 13.9627 17.25 14.4V15.6C17.25 16.0373 17.424 16.4573 17.733 16.767C18.0427 17.076 18.4627 17.25 18.9 17.25H20.1C20.5373 17.25 20.9573 17.076 21.267 16.767C21.576 16.4573 21.75 16.0373 21.75 15.6V14.4ZM20.25 14.4V15.6C20.25 15.6398 20.2342 15.678 20.2057 15.7058C20.178 15.7343 20.1398 15.75 20.1 15.75H18.9C18.8602 15.75 18.822 15.7343 18.7943 15.7058C18.7658 15.678 18.75 15.6398 18.75 15.6V14.4C18.75 14.3602 18.7658 14.322 18.7943 14.2942C18.822 14.2657 18.8602 14.25 18.9 14.25H20.1C20.1398 14.25 20.178 14.2657 20.2057 14.2942C20.2342 14.322 20.25 14.3602 20.25 14.4Z" fill="#04285B"/>
<path fill-rule="evenodd" clip-rule="evenodd" d="M27.75 14.4C27.75 13.9627 27.576 13.5427 27.267 13.233C26.9573 12.924 26.5373 12.75 26.1 12.75H24.9C24.4627 12.75 24.0427 12.924 23.733 13.233C23.424 13.5427 23.25 13.9627 23.25 14.4V15.6C23.25 16.0373 23.424 16.4573 23.733 16.767C24.0427 17.076 24.4627 17.25 24.9 17.25H26.1C26.5373 17.25 26.9573 17.076 27.267 16.767C27.576 16.4573 27.75 16.0373 27.75 15.6V14.4ZM26.25 14.4V15.6C26.25 15.6398 26.2342 15.678 26.2057 15.7058C26.178 15.7343 26.1398 15.75 26.1 15.75H24.9C24.8602 15.75 24.822 15.7343 24.7943 15.7058C24.7658 15.678 24.75 15.6398 24.75 15.6V14.4C24.75 14.3602 24.7658 14.322 24.7943 14.2942C24.822 14.2657 24.8602 14.25 24.9 14.25H26.1C26.1398 14.25 26.178 14.2657 26.2057 14.2942C26.2342 14.322 26.25 14.3602 26.25 14.4Z" fill="#04285B"/>
<path fill-rule="evenodd" clip-rule="evenodd" d="M20.6377 32.25H4.5C3.5055 32.25 2.5515 31.8548 1.848 31.152C1.14525 30.4485 0.75 29.4945 0.75 28.5V7.5C0.75 5.42925 2.42925 3.75 4.5 3.75H6.75V3C6.75 1.75725 7.75725 0.75 9 0.75C10.2428 0.75 11.25 1.75725 11.25 3V3.75H21.75V3C21.75 1.75725 22.7572 0.75 24 0.75C25.2428 0.75 26.25 1.75725 26.25 3V3.75H28.5C30.5707 3.75 32.25 5.42925 32.25 7.5V20.6377C34.0822 22.152 35.25 24.4403 35.25 27C35.25 31.5532 31.5532 35.25 27 35.25C24.4403 35.25 22.152 34.0822 20.6377 32.25ZM27 20.25C30.7253 20.25 33.75 23.2747 33.75 27C33.75 30.7253 30.7253 33.75 27 33.75C23.2747 33.75 20.25 30.7253 20.25 27C20.25 23.2747 23.2747 20.25 27 20.25ZM30.75 19.6507V11.25H2.25V28.5C2.25 29.097 2.487 29.6693 2.90925 30.0908C3.33075 30.513 3.903 30.75 4.5 30.75H19.6508C19.0748 29.625 18.75 28.35 18.75 27C18.75 22.4468 22.4468 18.75 27 18.75C28.35 18.75 29.625 19.0747 30.75 19.6507ZM26.25 5.25V6C26.25 7.24275 25.2428 8.25 24 8.25C22.7572 8.25 21.75 7.24275 21.75 6V5.25H11.25V6C11.25 7.24275 10.2428 8.25 9 8.25C7.75725 8.25 6.75 7.24275 6.75 6V5.25H4.5C3.25725 5.25 2.25 6.25725 2.25 7.5V9.75H30.75V7.5C30.75 6.25725 29.7428 5.25 28.5 5.25H26.25ZM24.75 3V6C24.75 6.414 24.414 6.75 24 6.75C23.586 6.75 23.25 6.414 23.25 6V3C23.25 2.586 23.586 2.25 24 2.25C24.414 2.25 24.75 2.586 24.75 3ZM9.75 3V6C9.75 6.414 9.414 6.75 9 6.75C8.586 6.75 8.25 6.414 8.25 6V3C8.25 2.586 8.586 2.25 9 2.25C9.414 2.25 9.75 2.586 9.75 3Z" fill="#04285B"/>
</g>
<defs>
<clipPath id="clip0_941_2627">
<rect width="36" height="36" fill="white"/>
</clipPath>
</defs>
</svg>
