<svg width="34" height="27" viewBox="0 0 34 27" fill="none" xmlns="http://www.w3.org/2000/svg">
<g clip-path="url(#clip0_941_2582)">
<path d="M6.72548 12.6884C4.55041 12.6884 2.78101 10.8269 2.78101 8.53963C2.78101 6.25206 4.55041 4.39062 6.72548 4.39062C8.90029 4.39062 10.6694 6.25178 10.6694 8.53963C10.6694 10.8272 8.90029 12.6884 6.72548 12.6884ZM6.72548 5.55502C5.15503 5.55502 3.87778 6.89396 3.87778 8.53963C3.87778 10.185 5.15503 11.524 6.72548 11.524C8.2954 11.524 9.57265 10.185 9.57265 8.53963C9.57265 6.89396 8.2954 5.55502 6.72548 5.55502Z" fill="#04285B"/>
<path d="M8.3123 24.1754H1.43336C0.642909 24.1754 0 23.4971 0 22.6633V20.7589C0 16.8604 3.01693 13.6884 6.72551 13.6884C8.18404 13.6884 9.57241 14.1717 10.7393 15.0856C10.983 15.2767 11.035 15.6411 10.855 15.9001C10.6751 16.1585 10.3321 16.2136 10.0881 16.0229C9.11104 15.2576 7.9484 14.8528 6.72551 14.8528C3.62182 14.8528 1.09677 17.5025 1.09677 20.7589V22.6633C1.09677 22.8549 1.24779 23.011 1.43336 23.011H8.31256C8.61514 23.011 8.86095 23.2716 8.86095 23.5932C8.86095 23.9144 8.61514 24.1754 8.3123 24.1754Z" fill="#04285B"/>
<path d="M32.5667 23.7347H25.6877C25.3851 23.7347 25.1393 23.474 25.1393 23.1525C25.1393 22.8313 25.3851 22.5703 25.6877 22.5703H32.5669C32.7525 22.5703 32.9035 22.4145 32.9035 22.2229V20.3186C32.9035 17.0616 30.3785 14.4124 27.2748 14.4124C25.9785 14.4124 24.7131 14.8863 23.7113 15.7471C23.4762 15.9492 23.1311 15.9109 22.9402 15.661C22.7498 15.4111 22.7857 15.0444 23.0216 14.842C24.2177 13.8143 25.7282 13.248 27.2748 13.248C30.9831 13.248 34 16.4197 34 20.3186V22.2229C34 23.0564 33.3571 23.7347 32.5667 23.7347Z" fill="#04285B"/>
<path d="M27.2745 12.4006C25.0997 12.4006 23.3306 10.5395 23.3306 8.25191C23.3306 5.96434 25.0997 4.10291 27.2745 4.10291C29.4496 4.10291 31.219 5.96406 31.219 8.25191C31.219 10.5398 29.4493 12.4006 27.2745 12.4006ZM27.2745 5.2673C25.7046 5.2673 24.4273 6.60624 24.4273 8.25191C24.4273 9.89759 25.7046 11.2362 27.2745 11.2362C28.845 11.2362 30.1222 9.89759 30.1222 8.25191C30.1222 6.60624 28.8447 5.2673 27.2745 5.2673Z" fill="#04285B"/>
<path d="M24.4429 26.0698H9.55715C8.56829 26.0698 7.76392 25.222 7.76392 24.1799V21.5014C7.76392 16.1485 11.9068 11.7937 17 11.7937C22.0932 11.7937 26.2361 16.1485 26.2361 21.5014V24.1799C26.2361 25.222 25.4317 26.0698 24.4429 26.0698ZM17 12.9584C12.512 12.9584 8.86069 16.791 8.86069 21.5017V24.1802C8.86069 24.5801 9.17317 24.9056 9.55715 24.9056H24.4426C24.8266 24.9056 25.1391 24.5801 25.1391 24.1802V21.5017C25.1393 16.791 21.4881 12.9584 17 12.9584Z" fill="#04285B"/>
<path d="M16.8094 11.1135C14.015 11.1135 11.7411 8.72243 11.7411 5.78301C11.7411 2.84389 14.0147 0.453125 16.8094 0.453125C19.6043 0.453125 21.8779 2.84417 21.8779 5.7833C21.8779 8.72271 19.6041 11.1135 16.8094 11.1135ZM16.8094 1.61752C14.6196 1.61752 12.8379 3.48635 12.8379 5.7833C12.8379 8.08053 14.6196 9.94936 16.8094 9.94936C18.9995 9.94936 20.7812 8.08053 20.7812 5.7833C20.7812 3.48635 18.9995 1.61752 16.8094 1.61752Z" fill="#04285B"/>
</g>
<defs>
<clipPath id="clip0_941_2582">
<rect width="34" height="26.3405" fill="white" transform="translate(0 0.0911865)"/>
</clipPath>
</defs>
</svg>
