<svg width="31" height="31" viewBox="0 0 31 31" fill="none" xmlns="http://www.w3.org/2000/svg">
<g clip-path="url(#clip0_941_2576)">
<path d="M30.5459 22.2819C30.7967 22.2819 31 22.0785 31 21.8278V19.9865C31 17.9675 29.4054 16.3141 27.4094 16.2191C28.361 15.4597 28.9724 14.2914 28.9724 12.9822C28.9724 10.699 27.1149 8.84154 24.8318 8.84154C23.5987 8.84154 22.4906 9.38392 21.7314 10.2419C21.7171 10.2158 21.7022 10.19 21.6866 10.1646V8.63265C21.6866 6.26388 20.3481 4.20226 18.388 3.16321C18.3958 3.07614 18.4006 2.98859 18.4006 2.90068C18.4006 1.30121 17.0994 0 15.5 0C13.9006 0 12.5994 1.30121 12.5994 2.90062C12.5994 2.98871 12.6042 3.07645 12.612 3.1637C10.6524 4.20286 9.31435 6.26424 9.31435 8.63259V10.1646C9.29861 10.1903 9.28359 10.2163 9.26924 10.2427C8.51005 9.38422 7.40161 8.84154 6.16821 8.84154C3.88505 8.84154 2.02759 10.699 2.02759 12.9822C2.02759 14.2914 2.63906 15.4597 3.59055 16.2191C1.59462 16.3141 0 17.9675 0 19.9865V24.4349C0 24.6857 0.203316 24.889 0.454102 24.889C0.704887 24.889 0.908203 24.6857 0.908203 24.4349V19.9865C0.908203 18.4073 2.19295 17.1227 3.77207 17.1227H6.16355C6.16512 17.1227 6.16664 17.1228 6.16821 17.1228C6.16979 17.1228 6.1713 17.1227 6.17288 17.1227H8.56435C9.28704 17.1227 9.96826 17.3924 10.4888 17.8659L9.86696 17.9733C7.84185 18.3229 6.36457 20.0688 6.35439 22.1269V30.0918H3.48774V22.857C3.48774 22.7366 3.43991 22.621 3.35472 22.5359L2.97673 22.1579C2.79938 21.9806 2.51185 21.9806 2.33457 22.1579C2.15722 22.3353 2.15722 22.6228 2.33457 22.8001L2.57954 23.045V30.0918H0.908203V26.554C0.908203 26.3033 0.704887 26.0999 0.454102 26.0999C0.203316 26.0999 0 26.3033 0 26.554V30.5459C0 30.7967 0.203316 31 0.454102 31H30.5459C30.7967 31 31 30.7967 31 30.5459V23.9469C31 23.6961 30.7967 23.4928 30.5459 23.4928C30.2951 23.4928 30.0918 23.6961 30.0918 23.9469V30.0918H28.4205V23.0451L28.6654 22.8001C28.8428 22.6228 28.8428 22.3353 28.6655 22.1579C28.4881 21.9806 28.2006 21.9806 28.0233 22.1579L27.6453 22.5359C27.5602 22.6211 27.5123 22.7366 27.5123 22.8571V30.0918H24.6462V27.2267C24.6462 26.9759 24.443 26.7726 24.1921 26.7726C23.9413 26.7726 23.738 26.9759 23.738 27.2267V30.0918H21.3397V28.1606C21.3397 27.9098 21.1364 27.7065 20.8856 27.7065C20.6347 27.7065 20.4315 27.9098 20.4315 28.1606V30.0918H10.5696V28.1606C10.5696 27.9098 10.3663 27.7065 10.1155 27.7065C9.86472 27.7065 9.6614 27.9098 9.6614 28.1606V30.0918H7.2626V22.1291C7.27059 20.5142 8.43085 19.1429 10.0215 18.8683L10.5744 18.7727V21.2256C9.29171 21.4424 8.31139 22.5606 8.31139 23.904V25.3107C8.31139 26.033 8.89882 26.6207 9.62108 26.6211C9.6826 26.799 9.8511 26.9269 10.0499 26.9269C10.3007 26.9269 10.504 26.7236 10.504 26.4728V25.8611C10.504 25.6104 10.3007 25.407 10.0499 25.407C9.85116 25.407 9.68266 25.535 9.62114 25.7128C9.39972 25.7124 9.21965 25.5322 9.21965 25.3107V23.9039C9.21965 22.9065 10.0311 22.095 11.0286 22.095C12.026 22.095 12.8375 22.9065 12.8375 23.9039V25.3107C12.8375 25.5322 12.6574 25.7124 12.436 25.7128C12.3744 25.535 12.2059 25.407 12.0072 25.407C11.7564 25.407 11.5531 25.6104 11.5531 25.8611V26.4728C11.5531 26.7236 11.7564 26.9269 12.0072 26.9269C12.2059 26.9269 12.3745 26.799 12.436 26.6211C13.1582 26.6207 13.7457 26.033 13.7457 25.3107V23.904C13.7457 22.5606 12.7654 21.4424 11.4827 21.2256V18.6158L11.7454 18.5704L15.2254 21.2225C15.3067 21.2845 15.4037 21.3155 15.5007 21.3155C15.5977 21.3155 15.6947 21.2845 15.7759 21.2225L19.2558 18.5705L19.5175 18.6157V24.1357C18.9495 24.3261 18.539 24.8629 18.539 25.4942C18.539 26.2841 19.1817 26.9269 19.9716 26.9269C20.7616 26.9269 21.4044 26.2842 21.4044 25.4942C21.4044 24.8629 20.9938 24.326 20.4257 24.1357V18.7726L20.9792 18.8683C22.5699 19.1429 23.7302 20.5143 23.7381 22.1269V25.1076C23.7381 25.3584 23.9414 25.5617 24.1922 25.5617C24.4431 25.5617 24.6463 25.3584 24.6463 25.1076V22.1246C24.6362 20.0688 23.1589 18.3229 21.1338 17.9733L20.5114 17.8658C21.032 17.3923 21.7131 17.1227 22.4358 17.1227H24.8272C24.8288 17.1227 24.8303 17.1228 24.8319 17.1228C24.8335 17.1228 24.835 17.1227 24.8366 17.1227H27.2279C28.8071 17.1227 30.0918 18.4075 30.0918 19.9866V21.8278C30.0918 22.0785 30.2951 22.2819 30.5459 22.2819ZM19.9715 26.0187C19.6823 26.0187 19.4471 25.7834 19.4471 25.4942C19.4471 25.2049 19.6823 24.9697 19.9715 24.9697C20.2607 24.9697 20.496 25.2049 20.496 25.4942C20.496 25.7834 20.2607 26.0187 19.9715 26.0187ZM24.8318 9.74968C26.6142 9.74968 28.0642 11.1997 28.0642 12.9821C28.0642 14.7629 26.6166 16.2119 24.8364 16.2144H24.8271C23.0469 16.2119 21.5993 14.7629 21.5993 12.9821C21.5993 11.1998 23.0494 9.74968 24.8318 9.74968ZM20.7853 10.4752C20.9587 10.6535 21.0505 10.8889 21.0437 11.1382C21.0308 11.6097 20.6383 11.9965 20.1571 12.0242V10.199C20.3958 10.2058 20.618 10.3032 20.7853 10.4752ZM15.5 0.908203C16.5561 0.908203 17.4224 1.73418 17.4879 2.77402C16.8639 2.56174 16.1954 2.44652 15.5005 2.44652C14.8052 2.44652 14.1364 2.56192 13.512 2.77438C13.5774 1.73437 14.4438 0.908203 15.5 0.908203ZM15.5005 3.35472C18.4107 3.35472 20.7784 5.72235 20.7784 8.63259V9.40874C20.5743 9.33124 20.3557 9.29043 20.1304 9.29043H19.9864C19.5797 9.29043 19.2489 9.62132 19.2489 10.028V10.6172C17.4637 10.3129 15.8719 8.3542 15.8549 8.33307C15.7688 8.22535 15.6384 8.16275 15.5005 8.16263C15.5004 8.16263 15.5002 8.16263 15.5001 8.16263C15.3624 8.16263 15.232 8.22529 15.1457 8.33276C15.1285 8.3542 13.5371 10.3126 11.752 10.6171V10.028C11.752 9.62132 11.4211 9.29043 11.0144 9.29043H10.8705C10.6451 9.29043 10.4266 9.33124 10.2226 9.40874V8.63259C10.2226 5.72235 12.5902 3.35472 15.5005 3.35472ZM19.5174 17.5972C19.4945 17.6252 19.4719 17.6536 19.4498 17.6824L18.0801 17.4457L18.0804 16.6269H18.7483C19.1724 16.6269 19.5174 16.972 19.5174 17.396V17.5972ZM17.6054 15.4556C17.0406 16.0117 16.293 16.318 15.5005 16.318C14.7079 16.318 13.9604 16.0117 13.3956 15.4556L12.7194 14.7898C12.1047 14.1846 11.7521 13.3427 11.7521 12.4799V11.5355C13.412 11.3195 14.8561 9.98805 15.5003 9.30278C16.1446 9.98812 17.5889 11.3197 19.2489 11.5356V12.4787C19.2489 12.4791 19.2489 12.4795 19.2489 12.4799C19.2489 13.3426 18.8963 14.1846 18.2816 14.7898L17.6054 15.4556ZM11.5503 17.6825C11.5281 17.6537 11.5055 17.6253 11.4826 17.5972V17.396C11.4826 16.972 11.8277 16.6269 12.2518 16.6269H12.9207V17.4457L11.5503 17.6825ZM9.95736 11.1381C9.95052 10.8889 10.0422 10.6534 10.2157 10.4752C10.383 10.3032 10.6052 10.2057 10.8439 10.1989V12.0241C10.3628 11.9965 9.97031 11.6097 9.95736 11.1381ZM2.9358 12.9822C2.9358 11.1998 4.38583 9.74974 6.16821 9.74974C7.95059 9.74974 9.40063 11.1998 9.40063 12.9822C9.40063 14.763 7.95307 16.2119 6.17288 16.2145H6.16355C4.38329 16.2119 2.9358 14.763 2.9358 12.9822ZM10.3088 12.9822C10.3088 12.933 10.3068 12.8843 10.3051 12.8355C10.4834 12.8961 10.6733 12.9302 10.87 12.9333C10.9752 13.875 11.4035 14.7688 12.0823 15.437L12.3684 15.7188H12.2518C11.5172 15.7188 10.8918 16.1937 10.6654 16.8524C10.1025 16.4746 9.44162 16.2523 8.74575 16.2192C9.69731 15.4599 10.3088 14.2914 10.3088 12.9822ZM15.5005 20.2905L12.9667 18.3594L13.4521 18.2756C13.6698 18.2379 13.8289 18.0491 13.8289 17.8281V16.8522C14.3452 17.0968 14.9132 17.2262 15.5005 17.2262C16.0877 17.2262 16.6558 17.0967 17.1721 16.8522L17.1717 17.828C17.1716 18.049 17.3307 18.2379 17.5485 18.2756L18.0343 18.3595L15.5005 20.2905ZM20.3347 16.8524C20.1083 16.1936 19.4829 15.7186 18.7483 15.7186H18.6327L18.9188 15.4369C19.5976 14.7687 20.0258 13.8749 20.131 12.9332C20.3274 12.9301 20.517 12.8961 20.6949 12.8358C20.6932 12.8844 20.6912 12.933 20.6912 12.982C20.6912 14.2914 21.3028 15.4598 22.2544 16.2191C21.5584 16.2523 20.8975 16.4745 20.3347 16.8524Z" fill="#04285B"/>
</g>
<defs>
<clipPath id="clip0_941_2576">
<rect width="31" height="31" fill="white"/>
</clipPath>
</defs>
</svg>
