<svg width="18" height="20" viewBox="0 0 18 20" fill="none" xmlns="http://www.w3.org/2000/svg">
<path d="M16.6535 9.33011C16.3928 9.06936 16.0763 8.93909 15.7037 8.93909H15.257V6.25724C15.257 4.54395 14.6426 3.07287 13.4134 1.84375C12.1843 0.614584 10.7134 0 8.99988 0C7.2864 0 5.81518 0.614584 4.5862 1.8437C3.35704 3.07287 2.74265 4.5439 2.74265 6.25724V8.93909H2.29576C1.92343 8.93909 1.60677 9.06936 1.34602 9.33011C1.08528 9.59066 0.954956 9.90732 0.954956 10.28V18.325C0.954956 18.6973 1.08533 19.0141 1.34602 19.2749C1.60677 19.5354 1.92343 19.6658 2.29576 19.6658H15.704C16.0766 19.6658 16.393 19.5355 16.6539 19.2749C16.9144 19.0141 17.045 18.6973 17.045 18.325V10.2798C17.0452 9.90747 16.9144 9.59085 16.6535 9.33011ZM12.5754 8.93909H5.42435V6.25724C5.42435 5.27027 5.7736 4.42752 6.47193 3.72928C7.17036 3.03095 8.01297 2.68185 9.00003 2.68185C9.98719 2.68185 10.8296 3.0309 11.5281 3.72928C12.2262 4.42747 12.5754 5.27027 12.5754 6.25724V8.93909Z" fill="#00B7D5"/>
</svg>
