<svg width="34" height="34" viewBox="0 0 34 34" fill="none" xmlns="http://www.w3.org/2000/svg">
<path d="M16.9886 18.8732C12.8447 18.7382 11.8509 15.1902 11.6382 14.0448C11.2392 13.9523 10.8838 13.7266 10.6306 13.4047C10.3415 13.0064 10.2074 12.5164 10.2533 12.0264C10.2205 11.7623 10.2435 11.4943 10.3207 11.2397C10.3979 10.9851 10.5278 10.7496 10.7018 10.5483C10.8 10.4476 10.9129 10.3624 11.0367 10.2956C10.2665 9.05215 9.88721 7.60621 9.9478 6.14483C10.4275 2.71726 13.1898 2.38369 14.0549 2.3644C14.4531 1.90127 14.9508 1.5342 15.5109 1.29064C16.5601 0.867442 17.7197 0.80283 18.8094 1.10685C20.9514 1.66602 22.3799 2.7384 23.0576 4.29458C24.0224 6.50642 23.1761 9.05229 22.69 10.1954C22.8754 10.2557 23.0462 10.3538 23.1917 10.4835C23.3897 10.6845 23.5389 10.9282 23.6278 11.196C23.7167 11.4637 23.7429 11.7483 23.7045 12.0277C23.7509 12.5178 23.6169 13.0078 23.3277 13.4061C23.0742 13.7279 22.7187 13.9536 22.3197 14.0462C22.1069 15.1902 21.1154 18.7382 16.9886 18.8732ZM11.8045 11.0303C11.6415 11.0227 11.4821 11.0794 11.3606 11.1883C11.2765 11.3061 11.2166 11.4394 11.1844 11.5805C11.1521 11.7216 11.1482 11.8677 11.1727 12.0103C11.1746 12.0409 11.1736 12.0717 11.1695 12.1022C11.1445 12.3659 11.2126 12.63 11.362 12.8488C11.4552 12.9529 11.5682 13.0373 11.6945 13.0971C11.8207 13.1569 11.9576 13.1909 12.0972 13.1971C12.2022 13.2095 12.2998 13.2578 12.3733 13.3338C12.4469 13.4098 12.492 13.5089 12.501 13.6143C12.5162 13.7852 12.9237 17.8215 16.9895 17.9548C21.0327 17.8215 21.4421 13.7852 21.4573 13.6133C21.4665 13.5081 21.5117 13.4092 21.5852 13.3334C21.6588 13.2576 21.7562 13.2095 21.8611 13.1971C22.0007 13.1909 22.1376 13.157 22.2639 13.0972C22.3901 13.0374 22.5031 12.9529 22.5963 12.8488C22.7463 12.629 22.8144 12.3634 22.7888 12.0985C22.7849 12.069 22.7839 12.0391 22.7856 12.0094C22.8104 11.8621 22.8048 11.7112 22.7692 11.5662C22.7336 11.4211 22.6686 11.2848 22.5783 11.1658C22.4348 11.0601 22.2563 11.0134 22.0794 11.0353C21.9943 11.0504 21.9068 11.0412 21.8267 11.0088C21.7467 10.9764 21.6774 10.9221 21.6268 10.8521C21.5762 10.7822 21.5463 10.6993 21.5407 10.6132C21.535 10.527 21.5537 10.441 21.5946 10.365C21.6116 10.3328 23.2946 7.13864 22.2131 4.65618C21.653 3.37337 20.4304 2.47788 18.5783 1.99453C17.6881 1.74262 16.7398 1.79106 15.8799 2.13237C15.3907 2.34313 14.9643 2.67677 14.6421 3.10091C14.5957 3.164 14.5338 3.21407 14.4624 3.24626C14.391 3.27846 14.3126 3.29169 14.2346 3.28469C14.1156 3.27504 11.3023 3.0931 10.8612 6.2381C10.8612 6.2381 10.7339 8.73986 12.1831 10.2561C12.2462 10.3221 12.2883 10.4054 12.3038 10.4955C12.3194 10.5855 12.3077 10.6781 12.2704 10.7615C12.236 10.847 12.1753 10.9194 12.0971 10.9682C12.0189 11.017 11.9272 11.0397 11.8353 11.033L11.8045 11.0303Z" fill="#04285B"/>
<path d="M21.9993 11.0413C21.8808 11.0414 21.7667 10.9956 21.6811 10.9136C21.5955 10.8315 21.5449 10.7196 21.5399 10.6011C21.5344 10.4821 21.3919 7.7065 19.3198 7.43956C18.372 7.55993 17.4096 7.48488 16.4919 7.21906C15.5743 6.95323 14.7208 6.50226 13.9841 5.89394C13.3983 6.33456 12.0484 7.67388 12.308 10.5303C12.3114 10.6473 12.2701 10.7611 12.1925 10.8486C12.1149 10.9361 12.0069 10.9908 11.8904 11.0014C11.7739 11.012 11.6577 10.9778 11.5656 10.9057C11.4735 10.8336 11.4123 10.7291 11.3946 10.6135C11.0137 6.42277 13.7047 4.96813 13.8191 4.9084C13.9043 4.86395 14.0012 4.84732 14.0964 4.86083C14.1915 4.87435 14.2799 4.91734 14.3493 4.98375C15.0042 5.57691 15.7795 6.02163 16.6221 6.28752C17.4647 6.55341 18.3548 6.63418 19.2316 6.52431C19.2736 6.51751 19.3164 6.51597 19.3588 6.51972C21.6947 6.76277 22.4083 9.27234 22.4588 10.563C22.4635 10.6845 22.4198 10.803 22.3373 10.8924C22.2548 10.9818 22.1402 11.0349 22.0186 11.0399L21.9993 11.0413Z" fill="#04285B"/>
<path d="M29.9057 33.0811H4.09423C3.97237 33.0811 3.8555 33.0326 3.76934 32.9465C3.68317 32.8603 3.63477 32.7435 3.63477 32.6216V27.4995C3.63805 25.8807 4.2832 24.3292 5.42874 23.1853C6.57427 22.0414 8.1267 21.3984 9.74558 21.3975H10.6277C10.7496 21.3975 10.8665 21.4459 10.9526 21.532C11.0388 21.6182 11.0872 21.7351 11.0872 21.8569C11.0872 21.9788 11.0388 22.0956 10.9526 22.1818C10.8665 22.268 10.7496 22.3164 10.6277 22.3164H9.74558C8.37034 22.3171 7.0515 22.8631 6.07824 23.8348C5.10498 24.8064 4.55673 26.1243 4.55368 27.4995V32.1621H29.4463V27.4995C29.4447 26.1254 28.8981 24.8079 27.9264 23.8362C26.9547 22.8646 25.6373 22.318 24.2631 22.3164H23.3176C23.1957 22.3164 23.0788 22.268 22.9927 22.1818C22.9065 22.0956 22.8581 21.9788 22.8581 21.8569C22.8581 21.7351 22.9065 21.6182 22.9927 21.532C23.0788 21.4459 23.1957 21.3975 23.3176 21.3975H24.2631C25.8808 21.3998 27.4315 22.0434 28.5754 23.1873C29.7193 24.3311 30.3629 25.8819 30.3652 27.4995V32.6216C30.3652 32.7435 30.3168 32.8603 30.2306 32.9465C30.1445 33.0326 30.0276 33.0811 29.9057 33.0811Z" fill="#04285B"/>
<path d="M18.5355 33.0811C18.4693 33.0811 18.404 33.0668 18.3439 33.0392C18.2838 33.0117 18.2303 32.9715 18.1872 32.9213C18.144 32.8712 18.1122 32.8124 18.0939 32.7488C18.0756 32.6853 18.0712 32.6185 18.0811 32.5531L19.9405 20.2474C19.9503 20.1823 19.9741 20.1201 20.0101 20.065C20.046 20.0098 20.0935 19.9631 20.1491 19.9279C20.2048 19.8927 20.2673 19.8698 20.3325 19.8609C20.3978 19.852 20.4642 19.8572 20.5272 19.8762L23.7361 20.8434C23.8 20.8626 23.8589 20.8956 23.9088 20.9399C23.9587 20.9843 23.9983 21.039 24.0249 21.1002C24.0514 21.1614 24.0644 21.2277 24.0627 21.2944C24.0611 21.3612 24.045 21.4267 24.0154 21.4866L22.74 24.0458L23.4797 24.876C23.5453 24.9501 23.5851 25.0434 23.5934 25.142C23.6017 25.2406 23.5779 25.3392 23.5257 25.4232L18.926 32.8633C18.8848 32.9298 18.8274 32.9848 18.759 33.0229C18.6907 33.061 18.6137 33.081 18.5355 33.0811ZM20.7703 20.9091L19.3253 30.4718L22.5658 25.2339L21.8477 24.4276C21.7866 24.3591 21.7474 24.2738 21.7352 24.1829C21.723 24.0919 21.7384 23.9993 21.7792 23.9171L22.9499 21.5675L20.7703 20.9091Z" fill="#04285B"/>
<path d="M15.4117 33.0811C15.3334 33.0811 15.2563 33.0611 15.1879 33.023C15.1195 32.9849 15.0619 32.9299 15.0207 32.8633L10.4197 25.4246C10.3674 25.3406 10.3436 25.242 10.3519 25.1434C10.3602 25.0448 10.4001 24.9515 10.4656 24.8774L11.2054 24.0472L9.9299 21.488C9.90036 21.4281 9.88421 21.3626 9.88258 21.2958C9.88096 21.2291 9.89389 21.1628 9.92047 21.1016C9.94706 21.0404 9.98667 20.9857 10.0365 20.9413C10.0864 20.897 10.1453 20.864 10.2092 20.8447L13.4181 19.8776C13.4811 19.8587 13.5475 19.8535 13.6127 19.8625C13.6778 19.8714 13.7403 19.8943 13.7959 19.9295C13.8515 19.9647 13.8989 20.0114 13.9348 20.0665C13.9708 20.1216 13.9945 20.1838 14.0044 20.2488L15.8647 32.5545C15.8744 32.6197 15.8698 32.6862 15.8515 32.7495C15.8332 32.8127 15.8015 32.8713 15.7585 32.9213C15.7155 32.9712 15.6623 33.0113 15.6025 33.0389C15.5427 33.0665 15.4776 33.0809 15.4117 33.0811ZM11.3813 25.2326L14.6219 30.4704L13.1769 20.9091L10.9972 21.5661L12.1675 23.9158C12.2084 23.9979 12.2238 24.0904 12.2117 24.1814C12.1996 24.2724 12.1605 24.3577 12.0995 24.4262L11.3813 25.2326Z" fill="#04285B"/>
<path d="M17.0078 24.5145C16.0144 24.5138 15.0219 24.4536 14.0356 24.3344C13.9744 24.3288 13.915 24.3109 13.8608 24.282C13.8067 24.253 13.7589 24.2135 13.7203 24.1657C13.6816 24.118 13.653 24.063 13.636 24.004C13.619 23.9449 13.614 23.8831 13.6213 23.8221C13.6286 23.7611 13.6481 23.7022 13.6786 23.6489C13.709 23.5956 13.7499 23.5489 13.7987 23.5116C13.8475 23.4744 13.9033 23.4473 13.9628 23.4319C14.0222 23.4166 14.0842 23.4133 14.1449 23.4223C16.0227 23.6532 17.9217 23.6532 19.7995 23.4223C19.9193 23.4094 20.0393 23.444 20.1338 23.5187C20.2283 23.5934 20.2897 23.7022 20.3048 23.8217C20.3198 23.9412 20.2873 24.0618 20.2143 24.1576C20.1413 24.2534 20.0336 24.3167 19.9144 24.3339C18.9503 24.4549 17.9795 24.5152 17.0078 24.5145Z" fill="#04285B"/>
<path d="M20.3959 20.7754C20.3244 20.7751 20.2539 20.7581 20.1901 20.7258C20.1263 20.6935 20.0709 20.6468 20.0283 20.5893C19.3456 19.6662 19.222 17.8366 19.2105 17.6313C19.2035 17.5097 19.245 17.3902 19.326 17.2993C19.407 17.2083 19.5208 17.1532 19.6424 17.1461C19.7636 17.1404 19.8823 17.1824 19.973 17.2631C20.0637 17.3438 20.1192 17.4569 20.1276 17.578C20.1556 18.0613 20.3256 19.4466 20.7667 20.043C20.8171 20.1112 20.8476 20.1921 20.8548 20.2767C20.8621 20.3612 20.8458 20.4461 20.8077 20.522C20.7696 20.5978 20.7113 20.6617 20.6392 20.7064C20.5671 20.7511 20.484 20.775 20.3991 20.7754H20.3959Z" fill="#04285B"/>
<path d="M13.5513 20.7754C13.4664 20.775 13.3833 20.7511 13.3112 20.7064C13.2391 20.6617 13.1808 20.5979 13.1427 20.522C13.1046 20.4462 13.0883 20.3613 13.0955 20.2767C13.1028 20.1922 13.1333 20.1113 13.1837 20.043C13.6257 19.4457 13.7953 18.0609 13.8233 17.578C13.8268 17.5177 13.8421 17.4586 13.8685 17.4042C13.8948 17.3498 13.9316 17.3011 13.9767 17.2609C14.0218 17.2207 14.0745 17.1898 14.1315 17.17C14.1886 17.1501 14.2491 17.1417 14.3094 17.1452C14.3697 17.1487 14.4288 17.164 14.4832 17.1904C14.5376 17.2167 14.5863 17.2535 14.6265 17.2986C14.6667 17.3437 14.6976 17.3964 14.7174 17.4534C14.7373 17.5105 14.7457 17.571 14.7422 17.6313C14.7307 17.8367 14.6044 19.6662 13.9244 20.5893C13.8813 20.6475 13.825 20.6947 13.7601 20.7271C13.6953 20.7594 13.6237 20.776 13.5513 20.7754Z" fill="#04285B"/>
<path d="M26.2604 26.6413C26.1408 26.6413 26.0259 26.5948 25.9401 26.5115C25.8543 26.4282 25.8044 26.3147 25.8009 26.1952C25.715 23.2032 24.5774 22.2617 24.5663 22.2525C24.4714 22.1772 24.4098 22.0675 24.3949 21.9473C24.3799 21.827 24.4128 21.7056 24.4864 21.6093C24.5595 21.5138 24.6673 21.4509 24.7864 21.4344C24.9056 21.4179 25.0264 21.449 25.1227 21.5211C25.1834 21.567 26.6192 22.6821 26.7198 26.1685C26.7233 26.2902 26.6783 26.4083 26.5947 26.4969C26.5112 26.5855 26.3959 26.6372 26.2741 26.6408L26.2604 26.6413Z" fill="#04285B"/>
<path d="M26.2627 29.3539C25.9035 29.354 25.5523 29.2476 25.2536 29.0481C24.9548 28.8485 24.722 28.5649 24.5844 28.233C24.4469 27.9012 24.4109 27.536 24.4809 27.1836C24.5509 26.8313 24.7239 26.5076 24.9778 26.2536C25.2318 25.9995 25.5555 25.8265 25.9078 25.7564C26.2601 25.6863 26.6253 25.7222 26.9572 25.8596C27.2891 25.9971 27.5728 26.2299 27.7724 26.5286C27.972 26.8273 28.0785 27.1784 28.0785 27.5377C28.078 28.0191 27.8866 28.4808 27.5462 28.8213C27.2058 29.1618 26.7442 29.3533 26.2627 29.3539ZM26.2627 26.6404C26.0853 26.6403 25.9117 26.6928 25.7641 26.7914C25.6165 26.8899 25.5014 27.03 25.4334 27.194C25.3654 27.3579 25.3476 27.5384 25.3822 27.7125C25.4167 27.8866 25.5021 28.0465 25.6276 28.172C25.7531 28.2976 25.913 28.3831 26.0871 28.4177C26.2611 28.4524 26.4416 28.4346 26.6056 28.3667C26.7696 28.2988 26.9097 28.1838 27.0084 28.0363C27.107 27.8887 27.1596 27.7152 27.1596 27.5377C27.1594 27.2998 27.0648 27.0718 26.8967 26.9036C26.7286 26.7354 26.5006 26.6407 26.2627 26.6404Z" fill="#04285B"/>
<path d="M7.38907 26.6413C7.27266 26.6416 7.16048 26.5977 7.07519 26.5185C6.98991 26.4392 6.93787 26.3306 6.92961 26.2145C6.6792 22.6881 8.62226 21.561 8.70496 21.5146C8.8111 21.4548 8.93668 21.4395 9.05408 21.4722C9.17148 21.5049 9.27108 21.5829 9.33097 21.689C9.39087 21.7951 9.40614 21.9207 9.37344 22.0381C9.34074 22.1555 9.26275 22.2551 9.15661 22.315C9.08677 22.3564 7.64039 23.2491 7.84577 26.1497C7.85436 26.2712 7.81431 26.3912 7.73444 26.4832C7.65456 26.5753 7.5414 26.6318 7.41985 26.6404L7.38907 26.6413Z" fill="#04285B"/>
<path d="M6.45954 30.3202C6.38844 30.3205 6.31824 30.3043 6.25446 30.2729C6.19068 30.2415 6.13506 30.1957 6.09197 30.1391C5.86769 29.8446 5.70247 29.5095 5.6054 29.1522C5.39212 28.4564 5.46209 27.7044 5.80012 27.0599C6.13815 26.4153 6.71691 25.9302 7.41062 25.71C7.73966 25.6174 8.08384 25.5914 8.42306 25.6334C8.76227 25.6753 9.08973 25.7845 9.3863 25.9544C9.90604 26.2547 10.3218 26.7064 10.5779 27.2493C10.8341 27.7921 10.9185 28.4002 10.8198 28.9923C10.7998 29.1126 10.7329 29.2199 10.6338 29.2908C10.5346 29.3616 10.4114 29.3902 10.2912 29.3702C10.171 29.3503 10.0636 29.2833 9.99277 29.1842C9.9219 29.0851 9.89331 28.9618 9.9133 28.8416C9.98073 28.4359 9.92346 28.0193 9.74904 27.6469C9.57463 27.2744 9.29129 26.9637 8.93649 26.7557C8.74518 26.6452 8.53377 26.574 8.31462 26.5461C8.09547 26.5183 7.87297 26.5344 7.66011 26.5935C7.19972 26.7475 6.8186 27.0768 6.59944 27.5099C6.38027 27.9431 6.34074 28.4452 6.4894 28.9073C6.55589 29.1519 6.66917 29.3813 6.82297 29.5827C6.87471 29.6508 6.90642 29.732 6.91453 29.8172C6.92264 29.9023 6.90682 29.988 6.86886 30.0647C6.8309 30.1413 6.7723 30.2058 6.69966 30.251C6.62702 30.2961 6.54323 30.3201 6.4577 30.3202H6.45954Z" fill="#04285B"/>
<path d="M10.3727 29.3774C10.3548 29.3774 10.3364 29.3774 10.3181 29.3746L9.80024 29.3135C9.7403 29.3064 9.68234 29.2875 9.62968 29.258C9.57703 29.2285 9.5307 29.1889 9.49334 29.1415C9.45599 29.094 9.42834 29.0397 9.41198 28.9816C9.39562 28.9235 9.39086 28.8628 9.39798 28.8028C9.4051 28.7429 9.42396 28.6849 9.45348 28.6322C9.483 28.5796 9.5226 28.5333 9.57002 28.4959C9.66579 28.4205 9.78761 28.3862 9.90867 28.4005L10.4265 28.4621C10.5428 28.4759 10.6494 28.5337 10.7246 28.6235C10.7997 28.7133 10.8377 28.8284 10.8309 28.9453C10.824 29.0622 10.7728 29.1721 10.6876 29.2525C10.6025 29.3328 10.4898 29.3772 10.3727 29.3774Z" fill="#04285B"/>
<path d="M6.4596 30.3243C6.35172 30.3245 6.24723 30.2866 6.16443 30.2175C6.08163 30.1483 6.02581 30.0522 6.00675 29.9461C5.98768 29.8399 6.00658 29.7304 6.06015 29.6367C6.11371 29.5431 6.19852 29.4713 6.29971 29.4339L6.85106 29.2303C6.90763 29.2092 6.9678 29.1994 7.02814 29.2016C7.08848 29.2037 7.14781 29.2177 7.20274 29.2428C7.25767 29.2678 7.30713 29.3035 7.34829 29.3477C7.38944 29.3918 7.4215 29.4437 7.44261 29.5003C7.46373 29.5568 7.4735 29.617 7.47136 29.6773C7.46923 29.7377 7.45523 29.797 7.43016 29.8519C7.4051 29.9069 7.36946 29.9563 7.32528 29.9975C7.2811 30.0386 7.22925 30.0707 7.17268 30.0918L6.62133 30.2958C6.56957 30.315 6.51478 30.3246 6.4596 30.3243Z" fill="#04285B"/>
</svg>
