<svg width="33" height="33" viewBox="0 0 33 33" fill="none" xmlns="http://www.w3.org/2000/svg">
<path d="M16.9521 2.31608C17.0544 2.0694 16.9373 1.78653 16.6906 1.68428C16.4439 1.58203 16.161 1.69911 16.0588 1.9458C15.9565 2.19248 16.0736 2.47535 16.3203 2.5776C16.567 2.67985 16.8499 2.56276 16.9521 2.31608Z" fill="#04285B"/>
<path d="M27.5795 20.9537C27.8465 20.9537 28.0629 20.7373 28.0629 20.4703V2.96961C28.0629 2.44754 27.6382 2.02286 27.1162 2.02286H22.6303C22.4757 1.79721 22.2161 1.64884 21.9225 1.64884H18.5772C18.3553 0.685523 17.5027 0 16.5 0C15.4971 0 14.6445 0.685459 14.4227 1.64884H11.0774C10.7838 1.64884 10.5243 1.79721 10.3696 2.02286H5.88376C5.36169 2.02286 4.93701 2.44761 4.93701 2.96961V32.0532C4.93701 32.5753 5.36176 32.9999 5.88376 32.9999H27.1161C27.6382 32.9999 28.0629 32.5752 28.0629 32.0532V22.7262C28.0629 22.4591 27.8465 22.2428 27.5795 22.2428C27.3124 22.2428 27.0961 22.4591 27.0961 22.7262V32.0332H5.90381V2.98966H10.22V3.63419H7.54968C6.99758 3.63419 6.54834 4.08336 6.54834 4.63547V11.8712C6.54834 12.1383 6.76477 12.3546 7.03174 12.3546C7.2987 12.3546 7.51514 12.1383 7.51514 11.8712V4.63547C7.51514 4.61646 7.53061 4.60099 7.54968 4.60099H10.22V6.38331C10.22 7.06226 10.7724 7.61462 11.4514 7.61462H21.5486C22.2275 7.61462 22.7799 7.06226 22.7799 6.38331V4.60099H25.4503C25.4693 4.60099 25.4848 4.61646 25.4848 4.63547V24.2882C25.4848 25.533 24.4721 26.5457 23.2274 26.5457H22.7141C22.5695 26.5457 22.4312 26.5736 22.3045 26.6244H13.6591C13.3921 26.6244 13.1757 26.8407 13.1757 27.1078C13.1757 27.3748 13.3921 27.5912 13.6591 27.5912H21.6102C21.6079 27.6332 21.6086 27.6071 21.6086 28.1644C21.6086 29.4092 20.5959 30.4219 19.3512 30.4219H7.54968C7.53067 30.4219 7.51514 30.4064 7.51514 30.3874V14.1271C7.51514 13.8601 7.2987 13.6437 7.03174 13.6437C6.76477 13.6437 6.54834 13.8601 6.54834 14.1271V30.3874C6.54834 30.9395 6.99751 31.3887 7.54968 31.3887H19.3512C23.2753 31.3887 26.4516 28.2132 26.4516 24.2882V4.63547C26.4516 4.08336 26.0024 3.63419 25.4503 3.63419H22.7799V2.98966H27.0962V20.4703C27.0961 20.7373 27.3126 20.9537 27.5795 20.9537ZM22.1615 29.7436C22.4249 29.2766 22.5754 28.7377 22.5754 28.1644V27.6511C22.5754 27.5747 22.6376 27.5125 22.714 27.5125H23.2273C23.8006 27.5125 24.3395 27.3621 24.8064 27.0987C24.2245 28.2252 23.2895 29.1609 22.1615 29.7436ZM21.813 6.38331C21.813 6.52923 21.6944 6.64782 21.5485 6.64782H11.4514C11.3055 6.64782 11.1868 6.52917 11.1868 6.38331V5.91486H17.7147C17.9817 5.91486 18.1981 5.69849 18.1981 5.43146C18.1981 5.16444 17.9817 4.94807 17.7147 4.94807H11.1868V2.61564H14.5522C14.9503 2.61564 15.2859 2.33224 15.3499 1.94159C15.4425 1.37672 15.9262 0.966797 16.5 0.966797C17.0737 0.966797 17.5573 1.37672 17.65 1.94152C17.714 2.33217 18.0495 2.61564 18.4477 2.61564H21.8131V4.94807H19.9706C19.7035 4.94807 19.4872 5.16444 19.4872 5.43146C19.4872 5.69849 19.7035 5.91486 19.9706 5.91486H21.8131L21.813 6.38331Z" fill="#04285B"/>
<path d="M9.37646 18.0377V19.6752C9.37646 20.0526 9.68358 20.3598 10.061 20.3598H11.6985C12.076 20.3598 12.3831 20.0526 12.3831 19.6752V18.0377C12.3831 17.6603 12.076 17.3531 11.6985 17.3531H10.061C9.68358 17.3531 9.37646 17.6603 9.37646 18.0377ZM10.3433 18.3199H11.4163V19.393H10.3433V18.3199Z" fill="#04285B"/>
<path d="M9.37646 23.7386C9.37646 24.116 9.68358 24.4231 10.061 24.4231H11.6985C12.076 24.4231 12.3831 24.116 12.3831 23.7386V22.1011C12.3831 21.7236 12.076 21.4165 11.6985 21.4165H10.061C9.68358 21.4165 9.37646 21.7236 9.37646 22.1011V23.7386ZM10.3433 22.3832H11.4163V23.4563H10.3433V22.3832Z" fill="#04285B"/>
<path d="M9.37646 27.802C9.37646 28.1795 9.68358 28.4866 10.061 28.4866H11.6985C12.076 28.4866 12.3831 28.1795 12.3831 27.802V26.1645C12.3831 25.7871 12.076 25.48 11.6985 25.48H10.061C9.68358 25.48 9.37646 25.7871 9.37646 26.1645V27.802ZM10.3433 26.4467H11.4163V27.5197H10.3433V26.4467Z" fill="#04285B"/>
<path d="M23.14 18.3134H13.6591C13.3921 18.3134 13.1757 18.5297 13.1757 18.7968C13.1757 19.0638 13.3921 19.2802 13.6591 19.2802H23.14C23.4071 19.2802 23.6234 19.0638 23.6234 18.7968C23.6234 18.5297 23.407 18.3134 23.14 18.3134Z" fill="#04285B"/>
<path d="M23.14 22.4688H13.6591C13.3921 22.4688 13.1757 22.6851 13.1757 22.9521C13.1757 23.2192 13.3921 23.4355 13.6591 23.4355H23.14C23.4071 23.4355 23.6234 23.2192 23.6234 22.9521C23.6234 22.6851 23.407 22.4688 23.14 22.4688Z" fill="#04285B"/>
<path d="M10.8854 12.8126C10.8854 13.0796 11.1018 13.296 11.3688 13.296H12.5225C13.5045 15.116 15.679 16.2853 16.2096 16.55C16.3879 16.639 16.6002 16.6387 16.7777 16.55C17.3546 16.2622 19.8746 14.9051 20.6926 12.8052H21.7994C22.0664 12.8052 22.2828 12.5888 22.2828 12.3218C22.2828 12.0548 22.0664 11.8384 21.7994 11.8384H20.9307C20.9403 11.7471 20.9464 11.6548 20.9488 11.5613C20.9865 10.0911 19.9783 8.83396 18.6036 8.63706C17.8315 8.52652 17.0793 8.75082 16.4936 9.25678C15.908 8.75075 15.1558 8.52633 14.3835 8.63706C13.0088 8.83409 12.0007 10.0913 12.0384 11.5614C12.0452 11.826 12.0818 12.0821 12.1431 12.3291H11.3687C11.1018 12.3292 10.8854 12.5456 10.8854 12.8126ZM16.4937 15.6088C15.9845 15.3383 14.523 14.4936 13.6614 13.296H14.2415C14.3697 13.296 14.4927 13.2451 14.5833 13.1544L15.2686 12.4691L16.6483 13.8489C16.837 14.0375 17.1431 14.0377 17.332 13.8489L18.3755 12.8052H19.6314C18.8656 14.2612 17.0701 15.3025 16.4937 15.6088ZM13.005 11.5366C12.9788 10.5183 13.7323 9.57672 14.7637 9.57672C15.2375 9.57672 15.686 9.77659 16.0214 10.144C16.275 10.4221 16.7122 10.4224 16.966 10.1441C17.3584 9.71414 17.9055 9.51388 18.4667 9.59412C19.3414 9.71942 20.0072 10.5727 19.9825 11.5366C19.9799 11.6385 19.9711 11.7391 19.9566 11.8385H18.1754C18.0472 11.8385 17.9243 11.8894 17.8336 11.9801L16.9902 12.8235L15.6104 11.4437C15.4218 11.2551 15.1156 11.255 14.9268 11.4437L14.0414 12.3293H13.1501C13.0637 12.0749 13.012 11.8102 13.005 11.5366Z" fill="#04285B"/>
</svg>
