<svg width="38" height="38" viewBox="0 0 38 38" fill="none" xmlns="http://www.w3.org/2000/svg">
<path d="M18.9872 21.0936C14.3558 20.9427 13.2451 16.9773 13.0073 15.6971C12.5615 15.5938 12.1642 15.3415 11.8812 14.9818C11.5581 14.5366 11.4082 13.9889 11.4596 13.4413C11.4229 13.1462 11.4485 12.8466 11.5349 12.5621C11.6212 12.2775 11.7663 12.0142 11.9608 11.7893C12.0706 11.6767 12.1968 11.5815 12.3351 11.5069C11.4743 10.1171 11.0504 8.50108 11.1181 6.86777C11.6542 3.03696 14.7415 2.66415 15.7084 2.64258C16.1534 2.12497 16.7097 1.71471 17.3357 1.4425C18.5083 0.969515 19.8044 0.897302 21.0222 1.23709C23.4162 1.86204 25.0127 3.06058 25.7702 4.79985C26.8486 7.27191 25.9027 10.1173 25.3594 11.3949C25.5666 11.4622 25.7575 11.5719 25.9201 11.7169C26.1414 11.9415 26.3081 12.2139 26.4075 12.5132C26.5068 12.8124 26.5362 13.1304 26.4932 13.4428C26.5451 13.9904 26.3953 14.5382 26.0721 14.9833C25.7888 15.3429 25.3914 15.5952 24.9455 15.6987C24.7077 16.9773 23.5996 20.9427 18.9872 21.0936ZM13.1932 12.328C13.0111 12.3195 12.8329 12.3829 12.6972 12.5046C12.6032 12.6363 12.5362 12.7852 12.5002 12.9429C12.4641 13.1006 12.4597 13.2639 12.4871 13.4233C12.4893 13.4576 12.4881 13.492 12.4835 13.526C12.4556 13.8207 12.5317 14.1159 12.6987 14.3604C12.8028 14.4768 12.9291 14.5711 13.0702 14.638C13.2113 14.7048 13.3643 14.7428 13.5203 14.7497C13.6377 14.7636 13.7468 14.8175 13.829 14.9025C13.9112 14.9874 13.9616 15.0982 13.9717 15.216C13.9886 15.407 14.4441 19.9182 18.9882 20.0671C23.5071 19.9182 23.9647 15.407 23.9816 15.2149C23.9919 15.0973 24.0424 14.9868 24.1246 14.9021C24.2068 14.8173 24.3157 14.7635 24.433 14.7497C24.589 14.7428 24.742 14.7049 24.8831 14.638C25.0242 14.5712 25.1505 14.4768 25.2546 14.3604C25.4223 14.1147 25.4984 13.818 25.4698 13.5219C25.4655 13.4889 25.4643 13.4555 25.4662 13.4223C25.4939 13.2576 25.4877 13.089 25.4479 12.9269C25.4081 12.7648 25.3355 12.6125 25.2346 12.4794C25.0742 12.3613 24.8746 12.3091 24.6769 12.3336C24.5819 12.3505 24.484 12.3402 24.3946 12.304C24.3051 12.2678 24.2276 12.2071 24.1711 12.1289C24.1145 12.0507 24.0812 11.9581 24.0748 11.8618C24.0685 11.7655 24.0894 11.6694 24.1352 11.5844C24.1542 11.5484 26.0352 7.9785 24.8263 5.20399C24.2004 3.77026 22.8339 2.76942 20.7639 2.2292C19.769 1.94766 18.7091 2.0018 17.7481 2.38326C17.2013 2.61881 16.7248 2.99171 16.3647 3.46574C16.3128 3.53626 16.2437 3.59222 16.1639 3.6282C16.0841 3.66418 15.9964 3.67897 15.9092 3.67115C15.7762 3.66037 12.6319 3.45701 12.139 6.97201C12.139 6.97201 11.9967 9.7681 13.6163 11.4627C13.6869 11.5365 13.7339 11.6296 13.7513 11.7302C13.7687 11.8309 13.7556 11.9344 13.7139 12.0276C13.6754 12.1231 13.6076 12.204 13.5202 12.2586C13.4328 12.3131 13.3304 12.3385 13.2276 12.331L13.1932 12.328Z" fill="#04285B"/>
<path d="M24.5875 12.3403C24.455 12.3404 24.3275 12.2892 24.2318 12.1976C24.1361 12.1059 24.0795 11.9807 24.074 11.8483C24.0678 11.7153 23.9086 8.61318 21.5927 8.31483C20.5334 8.44935 19.4578 8.36548 18.4322 8.06838C17.4065 7.77128 16.4526 7.26725 15.6292 6.58737C14.9745 7.07983 13.4658 8.57672 13.756 11.7692C13.7598 11.8999 13.7136 12.0271 13.6269 12.1249C13.5402 12.2228 13.4194 12.2838 13.2892 12.2957C13.159 12.3075 13.0292 12.2693 12.9262 12.1887C12.8233 12.1082 12.7549 11.9914 12.7351 11.8622C12.3094 7.17842 15.317 5.55264 15.4449 5.48588C15.5401 5.43621 15.6484 5.41761 15.7547 5.43272C15.861 5.44783 15.9599 5.49587 16.0375 5.5701C16.7694 6.23304 17.6359 6.73009 18.5776 7.02726C19.5194 7.32442 20.5142 7.4147 21.4941 7.29191C21.5411 7.2843 21.5889 7.28258 21.6363 7.28677C24.247 7.55842 25.0445 10.3632 25.101 11.8057C25.1063 11.9416 25.0575 12.074 24.9652 12.1739C24.873 12.2738 24.7449 12.3331 24.6091 12.3387L24.5875 12.3403Z" fill="#04285B"/>
<path d="M33.4241 36.9729H4.57589C4.4397 36.9729 4.30909 36.9188 4.21278 36.8225C4.11648 36.7262 4.06238 36.5956 4.06238 36.4594V30.7348C4.06605 28.9254 4.7871 27.1914 6.0674 25.9129C7.34771 24.6344 9.08277 23.9159 10.8921 23.9148H11.8781C12.0142 23.9148 12.1449 23.9689 12.2412 24.0652C12.3375 24.1615 12.3916 24.2921 12.3916 24.4283C12.3916 24.5645 12.3375 24.6951 12.2412 24.7914C12.1449 24.8877 12.0142 24.9418 11.8781 24.9418H10.8921C9.35507 24.9426 7.88108 25.5529 6.79332 26.6388C5.70556 27.7248 5.0928 29.1977 5.08941 30.7348V35.9459H32.9105V30.7348C32.9088 29.1989 32.2979 27.7265 31.2119 26.6405C30.1259 25.5545 28.6534 24.9436 27.1176 24.9418H26.0608C25.9246 24.9418 25.794 24.8877 25.6977 24.7914C25.6014 24.6951 25.5473 24.5645 25.5473 24.4283C25.5473 24.2921 25.6014 24.1615 25.6977 24.0652C25.794 23.9689 25.9246 23.9148 26.0608 23.9148H27.1176C28.9256 23.9174 30.6588 24.6367 31.9372 25.9152C33.2156 27.1936 33.935 28.9268 33.9376 30.7348V36.4594C33.9376 36.5956 33.8835 36.7262 33.7872 36.8225C33.6909 36.9188 33.5602 36.9729 33.4241 36.9729Z" fill="#04285B"/>
<path d="M20.7161 36.9729C20.6422 36.9729 20.5692 36.957 20.502 36.9262C20.4348 36.8954 20.375 36.8504 20.3268 36.7944C20.2786 36.7384 20.2431 36.6726 20.2226 36.6016C20.2021 36.5306 20.1972 36.456 20.2082 36.3829L22.2864 22.6295C22.2974 22.5567 22.324 22.4872 22.3642 22.4255C22.4044 22.3639 22.4574 22.3117 22.5196 22.2723C22.5818 22.233 22.6517 22.2074 22.7246 22.1975C22.7975 22.1875 22.8717 22.1933 22.9422 22.2145L26.5286 23.2955C26.6 23.317 26.6659 23.3539 26.7216 23.4034C26.7773 23.453 26.8216 23.5142 26.8513 23.5826C26.881 23.651 26.8955 23.7251 26.8937 23.7997C26.8918 23.8742 26.8738 23.9475 26.8408 24.0144L25.4153 26.8747L26.242 27.8026C26.3153 27.8854 26.3599 27.9897 26.3691 28.0999C26.3784 28.2101 26.3518 28.3203 26.2934 28.4142L21.1526 36.7295C21.1066 36.8039 21.0424 36.8653 20.966 36.9079C20.8896 36.9505 20.8036 36.9729 20.7161 36.9729ZM23.2138 23.3689L21.5988 34.0567L25.2207 28.2026L24.418 27.3014C24.3497 27.2248 24.306 27.1296 24.2923 27.0279C24.2787 26.9262 24.2958 26.8228 24.3415 26.7309L25.65 24.1048L23.2138 23.3689Z" fill="#04285B"/>
<path d="M17.2248 36.9729C17.1373 36.973 17.0512 36.9507 16.9747 36.908C16.8982 36.8654 16.8339 36.804 16.7878 36.7295L11.6455 28.4158C11.587 28.3219 11.5605 28.2116 11.5697 28.1014C11.579 27.9912 11.6236 27.887 11.6968 27.8042L12.5236 26.8762L11.0981 24.016C11.0651 23.9491 11.047 23.8758 11.0452 23.8012C11.0434 23.7266 11.0578 23.6526 11.0875 23.5841C11.1173 23.5157 11.1615 23.4546 11.2173 23.405C11.273 23.3554 11.3389 23.3186 11.4103 23.2971L14.9967 22.2161C15.0671 22.195 15.1413 22.1892 15.2141 22.1992C15.2869 22.2092 15.3568 22.2348 15.4189 22.2741C15.481 22.3135 15.534 22.3657 15.5742 22.4273C15.6144 22.4888 15.6409 22.5583 15.6519 22.631L17.7311 36.3845C17.7419 36.4573 17.7368 36.5316 17.7164 36.6023C17.6959 36.673 17.6604 36.7385 17.6124 36.7944C17.5644 36.8502 17.5049 36.895 17.438 36.9258C17.3712 36.9566 17.2984 36.9727 17.2248 36.9729ZM12.7203 28.2011L16.3421 34.0552L14.7271 23.3689L12.291 24.1033L13.5989 26.7294C13.6447 26.8212 13.6619 26.9246 13.6483 27.0263C13.6348 27.128 13.5911 27.2233 13.5229 27.2999L12.7203 28.2011Z" fill="#04285B"/>
<path d="M19.0087 27.3985C17.8984 27.3978 16.7891 27.3305 15.6868 27.1972C15.6184 27.191 15.552 27.1711 15.4915 27.1387C15.4309 27.1063 15.3775 27.0622 15.3343 27.0088C15.2912 26.9554 15.2591 26.8939 15.2401 26.828C15.2211 26.762 15.2156 26.6929 15.2237 26.6247C15.2319 26.5566 15.2537 26.4908 15.2877 26.4312C15.3218 26.3716 15.3674 26.3194 15.422 26.2777C15.4765 26.2361 15.5389 26.2058 15.6054 26.1886C15.6718 26.1715 15.7411 26.1678 15.809 26.1779C17.9077 26.436 20.0301 26.436 22.1288 26.1779C22.2626 26.1635 22.3968 26.2021 22.5024 26.2856C22.608 26.3691 22.6766 26.4907 22.6935 26.6243C22.7103 26.7578 22.674 26.8927 22.5924 26.9997C22.5108 27.1068 22.3904 27.1776 22.2572 27.1967C21.1796 27.332 20.0947 27.3994 19.0087 27.3985Z" fill="#04285B"/>
<path d="M22.7953 23.2195C22.7154 23.2192 22.6366 23.2003 22.5653 23.1642C22.494 23.1281 22.4321 23.0758 22.3845 23.0116C21.6214 21.9799 21.4833 19.9351 21.4705 19.7056C21.4626 19.5697 21.509 19.4362 21.5996 19.3345C21.6901 19.2328 21.8173 19.1712 21.9532 19.1633C22.0887 19.1569 22.2213 19.2039 22.3227 19.2941C22.4241 19.3843 22.4861 19.5106 22.4954 19.646C22.5268 20.1862 22.7168 21.7345 23.2097 22.401C23.2661 22.4773 23.3002 22.5677 23.3083 22.6622C23.3164 22.7567 23.2981 22.8516 23.2556 22.9364C23.213 23.0211 23.1479 23.0925 23.0672 23.1424C22.9866 23.1924 22.8938 23.2191 22.7989 23.2195H22.7953Z" fill="#04285B"/>
<path d="M15.1456 23.2195C15.0508 23.2191 14.9579 23.1924 14.8773 23.1424C14.7967 23.0924 14.7315 23.0211 14.689 22.9363C14.6464 22.8516 14.6282 22.7567 14.6363 22.6622C14.6444 22.5677 14.6785 22.4773 14.7348 22.401C15.2288 21.7334 15.4183 20.1857 15.4496 19.646C15.4535 19.5785 15.4707 19.5125 15.5001 19.4517C15.5295 19.3909 15.5706 19.3365 15.6211 19.2916C15.6715 19.2467 15.7303 19.2121 15.7941 19.1899C15.8579 19.1677 15.9255 19.1583 15.9929 19.1622C16.0604 19.1662 16.1264 19.1833 16.1872 19.2127C16.248 19.2421 16.3024 19.2833 16.3473 19.3337C16.3922 19.3842 16.4268 19.443 16.449 19.5068C16.4712 19.5706 16.4806 19.6381 16.4767 19.7055C16.4638 19.9351 16.3226 21.9799 15.5626 23.0115C15.5144 23.0766 15.4515 23.1294 15.3791 23.1655C15.3066 23.2017 15.2266 23.2202 15.1456 23.2195Z" fill="#04285B"/>
<path d="M29.3499 29.7756C29.2162 29.7757 29.0878 29.7236 28.9919 29.6305C28.896 29.5374 28.8402 29.4106 28.8364 29.277C28.7403 25.933 27.4689 24.8808 27.4565 24.8705C27.3504 24.7863 27.2816 24.6638 27.2649 24.5293C27.2482 24.3949 27.2849 24.2593 27.3672 24.1516C27.4489 24.0448 27.5694 23.9746 27.7025 23.9561C27.8357 23.9377 27.9708 23.9725 28.0784 24.053C28.1462 24.1044 29.7509 25.3507 29.8634 29.2472C29.8673 29.3833 29.817 29.5153 29.7236 29.6142C29.6302 29.7132 29.5013 29.7711 29.3653 29.7751L29.3499 29.7756Z" fill="#04285B"/>
<path d="M29.3525 32.8074C28.951 32.8075 28.5584 32.6885 28.2246 32.4655C27.8907 32.2426 27.6304 31.9256 27.4767 31.5547C27.323 31.1837 27.2827 30.7756 27.361 30.3818C27.4392 29.988 27.6325 29.6262 27.9164 29.3423C28.2003 29.0583 28.562 28.865 28.9557 28.7866C29.3495 28.7082 29.7577 28.7484 30.1286 28.902C30.4996 29.0557 30.8166 29.3158 31.0397 29.6497C31.2628 29.9835 31.3819 30.376 31.3819 30.7775C31.3813 31.3156 31.1673 31.8315 30.7869 32.2121C30.4064 32.5926 29.8906 32.8067 29.3525 32.8074ZM29.3525 29.7746C29.1541 29.7745 28.9601 29.8332 28.7951 29.9434C28.6301 30.0535 28.5015 30.2101 28.4255 30.3933C28.3496 30.5766 28.3296 30.7782 28.3683 30.9728C28.4069 31.1674 28.5024 31.3461 28.6426 31.4864C28.7828 31.6268 28.9615 31.7223 29.1561 31.7611C29.3507 31.7998 29.5523 31.78 29.7356 31.7041C29.9189 31.6282 30.0756 31.4996 30.1858 31.3347C30.296 31.1698 30.3548 30.9759 30.3548 30.7775C30.3546 30.5117 30.2489 30.2568 30.061 30.0688C29.8731 29.8808 29.6183 29.775 29.3525 29.7746Z" fill="#04285B"/>
<path d="M8.25836 29.7756C8.12826 29.7759 8.00288 29.7268 7.90756 29.6383C7.81224 29.5497 7.75409 29.4283 7.74485 29.2985C7.46499 25.3573 9.63663 24.0977 9.72907 24.0458C9.84769 23.9789 9.98805 23.9618 10.1193 23.9983C10.2505 24.0349 10.3618 24.122 10.4287 24.2407C10.4957 24.3593 10.5127 24.4996 10.4762 24.6309C10.4396 24.7621 10.3525 24.8734 10.2339 24.9403C10.1558 24.9865 8.53926 25.9843 8.7688 29.2261C8.7784 29.362 8.73364 29.4961 8.64437 29.5989C8.55509 29.7018 8.42862 29.7649 8.29277 29.7745L8.25836 29.7756Z" fill="#04285B"/>
<path d="M7.21944 33.8873C7.13997 33.8876 7.06151 33.8696 6.99023 33.8345C6.91894 33.7993 6.85678 33.7482 6.80862 33.685C6.55796 33.3558 6.3733 32.9812 6.26481 32.5819C6.02643 31.8042 6.10464 30.9638 6.48244 30.2434C6.86023 29.523 7.50708 28.9808 8.28241 28.7347C8.65016 28.6313 9.03483 28.6022 9.41395 28.6491C9.79308 28.696 10.1591 28.818 10.4905 29.0079C11.0714 29.3435 11.536 29.8484 11.8223 30.4551C12.1086 31.0618 12.2029 31.7415 12.0927 32.4032C12.0703 32.5376 11.9955 32.6576 11.8848 32.7368C11.774 32.816 11.6362 32.8479 11.5019 32.8256C11.3675 32.8033 11.2475 32.7285 11.1683 32.6177C11.0891 32.5069 11.0572 32.3692 11.0795 32.2348C11.1549 31.7814 11.0909 31.3157 10.8959 30.8995C10.701 30.4832 10.3843 30.1359 9.98779 29.9034C9.77397 29.78 9.53769 29.7004 9.29276 29.6692C9.04783 29.6381 8.79915 29.6561 8.56125 29.7222C8.04669 29.8943 7.62074 30.2623 7.37579 30.7464C7.13084 31.2305 7.08666 31.7917 7.25281 32.3082C7.32712 32.5816 7.45373 32.8379 7.62562 33.0631C7.68345 33.1392 7.71889 33.2299 7.72795 33.3251C7.73701 33.4203 7.71934 33.516 7.67691 33.6017C7.63448 33.6874 7.56899 33.7595 7.48781 33.8099C7.40662 33.8604 7.31297 33.8872 7.21738 33.8873H7.21944Z" fill="#04285B"/>
<path d="M11.5931 32.8336C11.5731 32.8336 11.5526 32.8336 11.532 32.8305L10.9533 32.7622C10.8863 32.7543 10.8215 32.7332 10.7627 32.7002C10.7038 32.6672 10.652 32.6229 10.6103 32.5699C10.5685 32.5169 10.5376 32.4562 10.5194 32.3913C10.5011 32.3264 10.4958 32.2584 10.5037 32.1914C10.5117 32.1245 10.5327 32.0597 10.5657 32.0008C10.5987 31.942 10.643 31.8902 10.696 31.8484C10.803 31.7641 10.9392 31.7258 11.0745 31.7419L11.6532 31.8107C11.7832 31.8261 11.9023 31.8906 11.9863 31.991C12.0703 32.0914 12.1129 32.22 12.1052 32.3507C12.0975 32.4814 12.0402 32.6042 11.9451 32.694C11.8499 32.7839 11.724 32.8335 11.5931 32.8336Z" fill="#04285B"/>
<path d="M7.21954 33.8919C7.09897 33.892 6.98218 33.8497 6.88964 33.7725C6.79711 33.6952 6.73472 33.5878 6.71341 33.4691C6.6921 33.3504 6.71323 33.228 6.77309 33.1234C6.83296 33.0187 6.92774 32.9385 7.04084 32.8967L7.65705 32.6692C7.72027 32.6456 7.78752 32.6347 7.85496 32.637C7.92241 32.6394 7.98872 32.6551 8.05011 32.6831C8.1115 32.7111 8.16678 32.7509 8.21278 32.8003C8.25877 32.8497 8.2946 32.9076 8.3182 32.9709C8.3418 33.0341 8.35272 33.1013 8.35033 33.1688C8.34795 33.2362 8.3323 33.3025 8.30428 33.3639C8.27627 33.4253 8.23644 33.4806 8.18706 33.5266C8.13769 33.5726 8.07973 33.6084 8.01651 33.632L7.4003 33.86C7.34244 33.8814 7.28121 33.8922 7.21954 33.8919Z" fill="#04285B"/>
</svg>
