<svg width="16" height="16" viewBox="0 0 16 16" fill="none" xmlns="http://www.w3.org/2000/svg">
<g clip-path="url(#clip0_1122_1325)">
<path d="M13.0146 2.6819C11.0276 2.6819 9.11025 1.94993 7.62879 0.625777L7.60005 0.600098L7.57131 0.625777C6.08982 1.94993 4.17245 2.6819 2.18546 2.6819H0.981934V5.89011C0.981934 10.0564 3.39758 13.8447 7.17495 15.6023L7.60005 15.8001L8.02514 15.6023C11.8025 13.8447 14.2182 10.0564 14.2182 5.89014V2.6819H13.0146ZM10.6714 9.57009H9.02635V11.2151H6.17374V9.57009H4.52873V6.7175H6.17374V5.07249H9.02635V6.7175H10.6714V9.57009Z" fill="white"/>
<path d="M8.13569 7.60806V5.96301H7.06433V7.60806H5.41931V8.67939H7.06433V10.3244H8.13569V8.67939H9.7807V7.60806H8.13569Z" fill="white"/>
</g>
<defs>
<clipPath id="clip0_1122_1325">
<rect width="15.2" height="15.2" fill="white" transform="translate(0 0.600098)"/>
</clipPath>
</defs>
</svg>
