<svg width="39" height="38" viewBox="0 0 39 38" fill="none" xmlns="http://www.w3.org/2000/svg">
<path d="M19.2179 31.1103C19.0273 31.1103 18.8468 31.0244 18.7263 30.8768L10.4504 20.7203C7.66982 17.3075 7.06113 12.6708 8.86173 8.61917C10.6302 4.64027 14.2483 2.13462 18.5402 1.91704C18.9897 1.89431 19.4466 1.89431 19.8954 1.91704C24.1877 2.13462 27.8058 4.64027 29.5742 8.61917C31.3748 12.6708 30.766 17.3075 27.9854 20.7201L19.7097 30.8768C19.589 31.0245 19.4087 31.1103 19.2179 31.1103ZM19.2179 3.168C19.0121 3.168 18.8074 3.17339 18.6041 3.1835C14.7998 3.37654 11.591 5.60106 10.0207 9.13415C8.41507 12.7465 8.9565 16.879 11.4336 19.9192L19.2179 29.4726L27.0021 19.9193C29.4792 16.8791 30.0209 12.7466 28.4153 9.13438C26.8451 5.60106 23.6362 3.37654 19.8314 3.1835C19.6285 3.17339 19.4238 3.168 19.2179 3.168Z" fill="#04285B"/>
<path d="M6.92219 20.2877C6.69191 20.2877 6.46961 20.1618 6.35728 19.9426C3.9534 15.2527 4.41464 9.41367 7.53254 5.06715C7.73691 4.78291 8.13256 4.71756 8.41734 4.92162C8.70173 5.12575 8.76701 5.52186 8.56288 5.80648C5.71911 9.77079 5.29639 15.0925 7.48588 19.3644C7.64563 19.676 7.52244 20.0581 7.21076 20.2178C7.11827 20.2652 7.01939 20.2877 6.92219 20.2877Z" fill="#04285B"/>
<path d="M31.5135 20.2877C31.4163 20.2877 31.3174 20.2652 31.2249 20.2178C30.9132 20.058 30.79 19.676 30.9498 19.3643C33.1564 15.0592 32.7626 9.89043 29.9219 5.8752C29.7196 5.58936 29.7875 5.19371 30.0733 4.9914C30.3599 4.78916 30.7551 4.85748 30.9572 5.14286C34.0713 9.54494 34.501 15.2159 32.0783 19.9426C31.9661 20.1618 31.7438 20.2877 31.5135 20.2877Z" fill="#04285B"/>
<path d="M19.218 21.5769C14.6134 21.5769 10.8673 17.8308 10.8673 13.2262C10.8673 8.6217 14.6134 4.87558 19.218 4.87558C23.8225 4.87558 27.5686 8.6217 27.5686 13.2262C27.5686 17.8308 23.8225 21.5769 19.218 21.5769ZM19.218 6.14372C15.3127 6.14372 12.1354 9.32097 12.1354 13.2262C12.1354 17.1315 15.3127 20.3087 19.218 20.3087C23.1232 20.3087 26.3006 17.1315 26.3006 13.2262C26.3006 9.32097 23.1232 6.14372 19.218 6.14372Z" fill="#04285B"/>
<path d="M19.218 36.1C15.2522 36.1 12.026 33.4064 12.026 30.0955C12.026 29.2682 12.2231 28.467 12.6122 27.7141C12.7725 27.4033 13.1548 27.2809 13.4665 27.4419C13.7775 27.6025 13.8995 27.9849 13.7387 28.2961C13.4438 28.8673 13.2941 29.4727 13.2941 30.0955C13.2941 32.7072 15.9515 34.832 19.218 34.832C22.4844 34.832 25.1418 32.7073 25.1418 30.0955C25.1418 29.5141 25.0109 28.9463 24.7529 28.408C24.6014 28.0922 24.7347 27.7134 25.0505 27.5622C25.3671 27.4105 25.7452 27.5444 25.8963 27.8598C26.2371 28.5709 26.4098 29.323 26.4098 30.0955C26.4099 33.4064 23.1837 36.1 19.218 36.1Z" fill="#04285B"/>
<path d="M20.9352 18.3251H17.5008C17.1505 18.3251 16.8667 18.0413 16.8667 17.691V15.5775H14.7532C14.4029 15.5775 14.1191 15.2937 14.1191 14.9434V11.509C14.1191 11.1587 14.4029 10.8749 14.7532 10.8749H16.8667V8.76137C16.8667 8.41109 17.1505 8.12738 17.5008 8.12738H20.9352C21.2855 8.12738 21.5693 8.41116 21.5693 8.76137V10.8749H23.6828C24.0331 10.8749 24.3169 11.1587 24.3169 11.509V14.9434C24.3169 15.2937 24.0331 15.5775 23.6828 15.5775H21.5693V17.691C21.5693 18.0413 21.2855 18.3251 20.9352 18.3251ZM18.1348 17.0569H20.3012V14.9434C20.3012 14.5932 20.585 14.3094 20.9352 14.3094H23.0488V12.143H20.9352C20.585 12.143 20.3012 11.8592 20.3012 11.509V9.39544H18.1348V11.509C18.1348 11.8593 17.851 12.143 17.5008 12.143H15.3873V14.3094H17.5008C17.851 14.3094 18.1348 14.5932 18.1348 14.9434V17.0569Z" fill="#04285B"/>
</svg>
