<svg width="57" height="56" viewBox="0 0 57 56" fill="none" xmlns="http://www.w3.org/2000/svg">
<circle cx="28.5" cy="28" r="28" fill="#FF0000"/>
<g clip-path="url(#clip0_1389_1385)">
<path d="M12.9535 33.2554L19.0938 33.2554C21.2867 33.2554 22.7121 30.9527 21.7253 29.0887C21.0674 27.7729 21.6156 26.1282 22.8218 25.3607C25.563 23.716 31.3743 23.6064 34.2252 25.3607C35.541 26.0187 35.9796 27.773 35.3216 29.0887C34.3348 30.9528 35.7602 33.2554 37.9532 33.2554L44.0935 33.2554C45.7382 33.1457 47.054 31.8299 47.054 30.2949L47.054 26.1283C46.9443 21.852 38.8304 18.3433 28.5235 18.3433C18.2166 18.3433 9.99298 21.7423 9.99302 26.1283L9.99302 30.2949C10.1026 31.9396 11.4184 33.2554 12.9535 33.2554Z" fill="white"/>
</g>
<defs>
<clipPath id="clip0_1389_1385">
<rect width="31.1124" height="31.1124" fill="white" transform="translate(50.5 28) rotate(135)"/>
</clipPath>
</defs>
</svg>
