<svg width="47" height="46" viewBox="0 0 47 46" fill="none" xmlns="http://www.w3.org/2000/svg">
<g clip-path="url(#clip0_1389_1371)">
<mask id="mask0_1389_1371" style="mask-type:luminance" maskUnits="userSpaceOnUse" x="0" y="0" width="47" height="46">
<path d="M46.5 0H0.500001V46H46.5V0Z" fill="white"/>
</mask>
<g mask="url(#mask0_1389_1371)">
<path d="M33.083 10.5416C33.083 5.24893 28.7924 0.958313 23.4997 0.958313C18.207 0.958313 13.9163 5.24893 13.9163 10.5416V21.0833C13.9163 26.376 18.207 30.6666 23.4997 30.6666C28.7924 30.6666 33.083 26.376 33.083 21.0833V10.5416Z" fill="#04285B"/>
<path d="M23.4883 34.5C23.4922 34.5 23.496 34.5 23.4998 34.5C23.5037 34.5 23.5075 34.5 23.5113 34.5C29.1334 34.4946 33.9503 31.0308 35.9405 26.1142C36.3377 25.1331 37.4551 24.6596 38.4363 25.0568C39.4175 25.4539 39.8909 26.5713 39.4937 27.5525C37.1652 33.3052 31.8209 37.5195 25.4165 38.2279V44.0833C25.4165 45.1419 24.5584 46 23.4998 46C22.4413 46 21.5832 45.1419 21.5832 44.0833V38.2283C15.1775 37.5207 9.83189 33.3059 7.50295 27.5525C7.10582 26.5713 7.57924 25.4539 8.56038 25.0568C9.54171 24.6596 10.6591 25.1331 11.0563 26.1142C13.0467 31.0318 17.865 34.496 23.4883 34.5Z" fill="#04285B"/>
</g>
</g>
<defs>
<clipPath id="clip0_1389_1371">
<rect width="46" height="46" fill="white" transform="matrix(-1 0 0 1 46.5 0)"/>
</clipPath>
</defs>
</svg>
