<svg width="47" height="46" viewBox="0 0 47 46" fill="none" xmlns="http://www.w3.org/2000/svg">
<g clip-path="url(#clip0_1389_1378)">
<path d="M26.5197 9.48688H5.53282C2.76477 9.48688 0.5 11.7516 0.5 14.5197V31.4803C0.5 34.2484 2.76477 36.5131 5.53282 36.5131H26.5197C29.2877 36.5131 31.5525 34.2484 31.5525 31.4803V14.5197C31.5525 11.7013 29.2877 9.48688 26.5197 9.48688Z" fill="#04285B"/>
<path d="M42.7756 12.255C42.4737 12.3053 42.1717 12.4563 41.9201 12.6073L34.0688 17.1368V28.8129L41.9704 33.3425C43.4299 34.1981 45.2417 33.6948 46.0973 32.2353C46.3489 31.7823 46.4999 31.279 46.4999 30.7254V15.174C46.4999 13.3118 44.7384 11.802 42.7756 12.255Z" fill="#04285B"/>
</g>
<defs>
<clipPath id="clip0_1389_1378">
<rect width="46" height="46" fill="white" transform="translate(0.5)"/>
</clipPath>
</defs>
</svg>
